<?xml version="1.0" standalone="no"?>
<!DOCTYPE svg PUBLIC "-//W3C//DTD SVG 1.1//EN" "http://www.w3.org/Graphics/SVG/1.1/DTD/svg11.dtd" >
<svg xmlns="http://www.w3.org/2000/svg">
<metadata></metadata>
<defs>
<font id="cooperfiveopti_blackregular" horiz-adv-x="1421" >
<font-face units-per-em="2048" ascent="1638" descent="-410" />
<missing-glyph horiz-adv-x="735" />
<glyph horiz-adv-x="0" />
<glyph horiz-adv-x="682" />
<glyph unicode=" "  horiz-adv-x="735" />
<glyph unicode="&#x09;" horiz-adv-x="735" />
<glyph unicode="&#xa0;" horiz-adv-x="735" />
<glyph unicode="!" horiz-adv-x="671" d="M70 1192q-3 198 90 290t241 62q89 -17 136.5 -80t62.5 -186q10 -89 -22 -229q-10 -57 -27 -107q-24 -80 -55 -143l-7 -13l-38 -69q-7 -10 -22 -31t-19 -27q-22 -28 -53 -32t-67 20.5t-65 75.5l-49 86l-4 6q-2 5 -19 42t-24 58q-59 150 -59 277zM72 201q-3 25 0 49 q12 180 192 231q114 28 207 -28q96 -61 115 -158q26 -124 -33.5 -214.5t-183.5 -109.5q-47 -6 -86 2q-156 26 -201 179q-8 33 -10 49z" />
<glyph unicode="&#x22;" horiz-adv-x="727" d="M80 1337q-42 252 119 252q48 0 77 -25.5t37 -67.5t7 -78t-7 -75l-84 -485h-63zM416 1337q-42 252 119 252q49 0 78 -25.5t36.5 -67.5t7 -77.5t-7.5 -75.5l-84 -485h-63z" />
<glyph unicode="#" horiz-adv-x="1249" d="M70 424l30 151h244l76 363h-242l33 152h244l88 423h151l-88 -423h180l91 423h151l-90 -423h242l-31 -152h-242l-78 -363h242l-33 -151h-241l-90 -424h-152l90 424h-182l-90 -424h-152l90 424h-241zM496 575h182l78 363h-185z" />
<glyph unicode="$" horiz-adv-x="1441" d="M76 920q-26 167 59 325q62 121 182 193q71 46 156 65l21 4l43 9l51 8q4 25 4 55l-4 33l-2 16q-5 29 21 50.5t85 33.5q90 20 131 0t39 -74l-2 -18l-2 -35v-4l-2 -27l31 -6l63 -14q93 -18 156 -47q113 -56 151 -98.5t41 -108.5q9 -81 -45 -135q-80 -81 -160.5 -62 t-203.5 154q-34 37 -109 55q-40 7 -90 -4q-33 -7 -53 -20q-34 -21 -35 -61t37 -81q44 -44 221 -100q61 -21 90 -33q101 -42 152 -71q128 -77 180.5 -142.5t77.5 -175.5q21 -86 12 -154.5t-57 -170.5q-46 -101 -148 -170q-56 -37 -196 -84l-78 -23l-25 -6l-2 -27l-4 -28 q0 -13 -1 -33.5t-1 -28.5q2 -48 -12.5 -62.5t-81.5 -29.5q-80 -18 -126.5 9t-55.5 87v68q0 1 -6 39q-21 2 -82 10q-149 28 -234 62.5t-122.5 76.5t-51.5 107q-6 30 -6 65q0 74 27 122t69 59q64 19 101 -1.5t90 -101.5q103 -159 239 -149q42 5 72 20q36 20 40 58t-26 73 q-19 19 -78 53q-11 6 -215 103q-16 6 -46.5 18.5t-45.5 18.5q-64 28 -137 112q-76 97 -96 224z" />
<glyph unicode="%" horiz-adv-x="2052" d="M72 1087q-14 195 100 318q77 81 179.5 107t208.5 -10.5t185 -131.5q49 -52 68 -123q35 -119 27 -204t-64 -179q-58 -96 -151 -141t-201 -33q-272 28 -340 322q-9 39 -12 75zM374 1226q-6 -35 7 -100l6 -32l19 -76q16 -79 55 -96q21 -9 40 1t23 35q8 29 4 70l-4 57l-6 45 q-10 68 -35 106t-73 58q-30 -33 -36 -68zM553 47q-15 44 13 107.5t179 337.5q142 248 230 489q94 245 147.5 369t76.5 160t44 42l51 -8q118 -20 148 -46q36 -32 5 -115q-26 -70 -165 -309q-6 -10 -17 -30q-14 -25 -22 -38q-3 -5 -151 -312q-201 -416 -261 -628l-16 -54 l-2 -6q-7 -29 -43 -39h-35q-157 0 -182 80zM1180 424q-15 202 104 332q80 84 188.5 111.5t219.5 -10.5t194 -136q54 -67 70 -129q35 -127 25.5 -216t-66.5 -186q-60 -99 -157 -147.5t-210 -36.5q-141 15 -231 100.5t-125 237.5q-9 41 -12 80zM1493 561q0 -47 8 -96l27 -117 q6 -29 33 -80q13 -24 36.5 -26.5t38.5 16.5q16 20 19 52.5t-6 129.5q0 13 -4 29l-3 10l-30 92q-20 71 -66 78q-14 2 -26.5 -7t-16.5 -26q-6 -17 -10 -55z" />
<glyph unicode="&#x26;" horiz-adv-x="2199" d="M70 623q3 168 92 295q51 72 110 115.5t154 78.5l70 25l12 4q-4 20 -4 57q0 149 119 254t333 111q131 3 215 -41q94 -47 130.5 -82t39.5 -74q6 -59 -28 -96t-78 -31q-45 8 -119 39q-19 6 -35 16q-25 16 -77 -2q-21 -8 -31 -16q-38 -28 -47.5 -75t12.5 -66q46 -42 78 -66 q16 -16 26 -43q11 -43 -14.5 -75.5t-97.5 -57.5q-54 -19 -152 29q-5 3 -14 8t-14 8q-121 -100 -93 -313q26 -171 136 -267q131 -123 288 -98q31 8 49 19q74 28 108 75.5t24 96.5q-2 8 -11 26q-30 56 -72 60.5t-112 -37.5q-25 -14 -43 -17q-36 -5 -61.5 19t-26.5 67 q-5 93 65.5 163t272.5 159q9 4 28.5 12t28.5 12q115 45 186 76t120 57t72.5 49.5t33 45t10.5 51.5q0 32 -18.5 54.5t-34.5 19.5q-47 -9 -90 -23q-21 -6 -45 4q-38 16 -39.5 55t41.5 91q56 62 110.5 87.5t141.5 26.5q140 3 225.5 -86t85.5 -254q0 -152 -113 -285t-303 -190 q-49 -13 -65 -16l32 -76l35 -80l2 -6q13 -59 -8 -137q-30 -101 -135 -195q-101 -83 -252 -147q-157 -67 -412 -78q-89 0 -159 12q-203 31 -326 97q-138 72 -223 184q-139 175 -133 371z" />
<glyph unicode="'" horiz-adv-x="387" d="M70.5 1423.5q-1.5 36.5 5.5 63.5t20 51.5t39.5 37.5t63.5 13q41 0 67 -18.5t37.5 -46t14 -70.5t-1.5 -81t-13 -87l-74 -428h-63l-82 438q-6 35 -9 63t-4.5 64.5z" />
<glyph unicode="(" horiz-adv-x="1050" d="M70 578q-3 129 22 247q37 152 85 244t145 197q94 101 153.5 144.5t155.5 82.5l37 14l73 31q99 38 152 27q50 -9 72 -38.5t10 -62.5q-10 -37 -27.5 -52.5t-105.5 -68.5q-34 -20 -63 -71t-54 -136t-37.5 -221t-7.5 -305q6 -299 49 -471q32 -124 66 -188.5t96 -118.5 q76 -68 88 -96q17 -32 0.5 -67t-53.5 -42q-25 -4 -48 -1t-81 18q-118 46 -201 88l-33 14l-18 8q-35 18 -80 47q-91 65 -157 139.5t-124 180.5q-90 166 -110 371q-4 62 -4 86z" />
<glyph unicode=")" horiz-adv-x="1050" d="M70 1454q-10 43 4.5 73t48.5 38q23 5 48 1.5t81 -20.5q44 -11 203 -84l30 -16l19 -10q45 -22 80 -47q89 -60 154.5 -135t125.5 -181q91 -169 111 -375q17 -179 -19 -331q-35 -152 -82.5 -243.5t-146.5 -197.5q-92 -101 -152.5 -145.5t-156.5 -83.5l-37 -14l-74 -27 q-95 -39 -151 -31q-49 10 -71 40t-11 65q9 32 24 46.5t79 52.5q20 12 32 19q73 44 121.5 226t40.5 508q-6 282 -52 471q-31 122 -65 187.5t-96 119.5q-50 44 -67.5 62.5t-20.5 31.5z" />
<glyph unicode="*" horiz-adv-x="942" d="M70 1225q0 88 58 107t204 -17q16 -4 26 -6q-1 6 -4 18.5t-4 18.5q-8 104 25 153q32 50 96 49.5t98 -51.5q36 -45 33 -147q0 -16 -8 -56q26 26 55 35q101 36 157 4t64 -121q3 -38 -33 -78t-96 -51q-37 -5 -79 7q34 -66 47 -86l49 -76l2 -2q13 -17 -6 -68q-5 -14 -17 -29 q-35 -52 -89 -54.5t-103 44.5q-71 71 -74 156q-6 -29 -18 -55q-29 -61 -67.5 -95.5t-76.5 -37.5t-76 16q-12 8 -20 16q-46 39 -39 94t74 138q14 20 37 36q-36 -8 -74 -2q-67 13 -104 53t-37 87z" />
<glyph unicode="+" horiz-adv-x="1505" d="M70 502v362h501v502h363v-502h502v-362h-502v-502h-363v502h-501z" />
<glyph unicode="," horiz-adv-x="643" d="M70 254q9 168 174 221q50 14 92 8q75 -9 124.5 -48.5t84.5 -119.5q48 -113 14 -286q-9 -49 -27 -99q-50 -134 -94 -188q-72 -90 -107.5 -118t-64.5 -25q-61 7 -74 32t15 76q29 44 47 68q9 15 14 30q32 74 36 111t-15.5 59t-75.5 48q-18 6 -39 20q-113 71 -104 211z" />
<glyph unicode="-" horiz-adv-x="751" d="M74 469q-10 46 8 139q4 22 8 31l31 78q8 21 12.5 34t13 27t13 21t17 15t20.5 11t28 5.5t34.5 2t45 -2t55 -3.5t68.5 -6q39 -4 100 0q72 8 93 13q28 7 53 -31q18 -28 -10 -131l-33 -121q-23 -90 -84 -123q-32 -14 -63 -14.5t-228 6.5q-29 0 -76 -8q-61 -13 -78.5 -4 t-27.5 61z" />
<glyph unicode="." horiz-adv-x="655" d="M72 201q-3 25 0 49q12 180 192 231q113 28 205 -26q61 -39 87 -85.5t32 -125.5q6 -70 -7.5 -111.5t-56.5 -85.5q-41 -35 -69 -49q-87 -41 -172 -25q-81 13 -129.5 56.5t-71.5 122.5q-6 17 -10 49z" />
<glyph unicode="/" horiz-adv-x="1046" d="M70 84q0 6 12 43l2 8l203 385q80 147 176 379q108 280 169 425t83 182t37 42l30 -2q48 -5 86.5 -17.5t59.5 -27.5t35.5 -32t14.5 -32.5t-3 -27.5q-25 -60 -156 -270q-87 -144 -225 -463q-139 -313 -158 -379q-38 -120 -58 -178.5t-37 -95.5t-26.5 -44.5t-25.5 -9.5 l-10 -2l-23 2q-45 0 -88 19q-47 20 -71.5 46.5t-26.5 49.5z" />
<glyph unicode="0" d="M70 680q0 26 4 80q40 415 395 561q202 79 399 22q126 -34 230 -114q115 -94 171.5 -205t76.5 -285q9 -71 6 -135q-6 -141 -47 -243.5t-125 -196.5q-122 -129 -275 -173t-327 1q-134 38 -223.5 105.5t-176.5 197.5q-84 134 -104 301q-4 54 -4 84zM586 864q-7 -63 12 -190 q8 -50 31 -139q2 -5 5 -17.5t5 -17.5q25 -74 40 -101.5t38 -42.5q29 -19 59 -10t47 41q18 30 23 102q1 13 -2 80q-14 167 -68 299q-26 55 -42 76.5t-36 30.5q-29 15 -55.5 5t-38.5 -40q-16 -50 -18 -76z" />
<glyph unicode="1" d="M147 102q-8 53 27 77.5t123 23.5q72 -3 101 24t40 103q1 9 4 102q14 384 10 440q-4 49 -26 71q-1 2 -2 3q-26 25 -51.5 28.5t-116.5 -5.5q-26 -3 -53 14q-44 33 -38.5 80.5t62.5 93.5q19 17 86 51q105 54 371 109q132 25 172 29l23 4l88 4q117 7 167.5 -25t34.5 -88 q-9 -32 -29.5 -49t-74.5 -39q-29 -11 -41.5 -70t-11.5 -213l2 -221v-14l2 -21l6 -118q7 -136 18.5 -180t44.5 -68q24 -14 45 -18.5t93 -10.5q131 -15 69 -149q-11 -23 -43.5 -37.5t-122.5 -32.5q-86 -16 -213 -27q-135 -12 -272 -6q-109 2 -231 19q-151 23 -204 47.5 t-59 68.5z" />
<glyph unicode="2" d="M53 969q3 90 127 198q48 43 87 66.5t116 56.5q108 45 192.5 60.5t206.5 11.5q191 -8 293 -70q112 -66 159.5 -161t21.5 -215.5t-130 -247.5q-24 -27 -51 -54q-108 -100 -132 -124t-30 -37q-15 -29 0 -57.5t45 -33.5q25 -4 68 3q58 14 80 27.5t74 66.5q83 86 161 -33 q35 -61 17 -219q-5 -52 -53 -148l-21 -39l-6 -8q-16 -28 -29 -39q-67 -75 -111 -75.5t-108 65.5q-40 37 -138.5 48.5t-338.5 -5.5q-10 -1 -33 -3t-33 -3l-32 -2l-234 -23q-47 -3 -82 2q-43 3 -63 36t-6 79q11 36 63 86q251 263 324 375q74 117 86 149q48 113 26.5 170 t-102.5 60q-50 3 -125 -53l-84 -60l-8 -6q-34 -30 -107 6q-29 13 -52 42.5t-34 66.5q-4 28 -4 41z" />
<glyph unicode="3" d="M16 -20q9 60 40 85t91 27q29 0 191 -26q35 -5 41 -5q211 0 276 113q43 67 28 130.5t-87 107.5q-61 37 -168 20q-103 -14 -117 -18q-11 -3 -25 3t-29 21.5t-28.5 47t-19.5 73.5q-10 54 6 76.5t82 50.5q23 9 31 14q194 96 153 224q-22 69 -79.5 94.5t-137.5 -0.5 q-24 -9 -45 -21q-81 -45 -125.5 -34.5t-68.5 84.5q-19 66 10 111.5t139 111.5q118 73 320 92q180 21 315 -16q218 -59 287 -159t10 -253q-22 -64 -105 -127q-25 -15 -28 -23q-7 -11 -2.5 -22.5t18.5 -16.5q34 -7 88 -14q51 -6 103 -33q123 -68 161 -245q33 -173 -75 -353 q-70 -118 -193 -191.5t-334 -115.5q-180 -37 -356 -18q-55 4 -152 24q-135 34 -179.5 74t-35.5 107z" />
<glyph unicode="4" d="M48 86q-38 84 20 213q26 57 110 180q109 147 127 170q225 292 363 446t219.5 212t167.5 77q113 23 155 4q51 -23 65 -128t-1 -473q-1 -38 -4 -99l-6 -282l63 -7q59 -8 71 -18t13 -59l2 -54l2 -14q3 -139 -16 -205q-12 -50 -35.5 -61t-83.5 8q-4 4 -4 -2q0 -33 6 -68 q8 -54 8.5 -90t-7 -67.5t-29.5 -48t-56 -26.5t-89.5 -7t-127 13t-170.5 30l-61 12q-19 13 -29 82q-6 40 -2 113q2 23 10 75l-53 -4l-55 -6h-11l-110 -6q-176 -13 -314 -2q-100 8 -138 92zM377 393q5 -16 12 -16q45 6 160 -2q31 -2 75 -5q57 -4 68.5 -3.5t25.5 5.5q2 1 3 1 q8 3 16 22l2 2l2 191q0 115 -2 172q0 15 -12 26t-29 13q-26 0 -57 -31l-125 -154q-97 -116 -122 -158t-17 -63z" />
<glyph unicode="5" d="M77.5 487.5q-1.5 19.5 0.5 53.5q6 124 86 426q22 91 45 147q43 123 62 153t71 54h2l260 22q411 39 494 41q139 3 175 -33q31 -29 20 -116q-3 -25 -11 -72q-19 -118 -62.5 -163t-146.5 -56q-9 0 -26 -1t-23 -1q-422 5 -475 -41q-31 -21 -37.5 -44.5t10.5 -35.5q2 -2 2 -9 q0 -5 116 -14q51 -3 212 -14q78 -7 180 -45q118 -41 192.5 -104.5t114.5 -155.5q36 -77 34.5 -150.5t-42.5 -164.5q-55 -126 -209 -238q-117 -85 -323 -139q-105 -26 -191 -31q-167 -14 -272 11q-97 24 -136 46t-48 54q-27 97 -9.5 140.5t70.5 41.5q15 0 55 -4q7 -1 38.5 -6 t49.5 -6q135 -7 201.5 18t87.5 84q33 82 -23.5 137.5t-228.5 92.5q-6 1 -21 4t-24 4q-72 9 -109.5 15t-74 16t-50 18.5t-24.5 27t-12.5 38z" />
<glyph unicode="6" d="M76 664q3 130 56.5 281.5t150.5 295.5q9 15 27.5 42t23.5 34q64 81 106.5 123t90 60t93.5 10.5t119 -35.5q124 -47 145 -82t-32 -99q-62 -72 -88 -116l-4 -7l-41 -77q-33 -70 -37 -84q-8 -21 19 -21q9 2 137 51q72 28 157 15q165 -23 287 -207q66 -94 72 -250 q6 -177 -92 -334q-57 -87 -126 -143.5t-171 -100.5q-56 -23 -123 -36q-139 -27 -268 0q-166 38 -281 141q-99 86 -151.5 192.5t-65.5 257.5q-4 31 -4 89zM633 549q12 -52 47 -117q24 -45 41 -65.5t41 -30.5q29 -14 57.5 -1t32.5 42q4 18 4 53q-5 82 -25 123q-47 96 -86 125 q-29 22 -61.5 11t-44.5 -46q-15 -41 -6 -94z" />
<glyph unicode="7" d="M53 1016q0 40 6 80q37 265 160 299q36 8 57 3.5t97 -36.5q9 -4 14 -6q33 -13 174 -13l207 3q188 0 250 4l199 12q15 0 53 -14q39 -14 50 -43t-1 -91l-2 -6l-27 -86l-2 -10l-18 -88q-6 -29 -72 -233l-96 -304q-117 -378 -146 -497q-13 -54 -21 -84t-19.5 -63t-19.5 -47.5 t-24 -31t-30 -21t-39.5 -8.5t-50.5 -3t-66 4q-42 3 -80 12q-152 38 -182.5 81.5t20.5 139.5q22 41 187 402q38 82 135 262q37 65 78 164q40 97 -88 100q-79 3 -140 -2q-120 -9 -152 -14t-58 -17q-25 -12 -43.5 -28.5t-53.5 -57.5q-25 -32 -76 -35q-54 -3 -122 62 q-55 59 -58 211z" />
<glyph unicode="8" d="M45 887q-9 93 16 161.5t93 137.5q65 66 150.5 106t211.5 58q199 27 346.5 9t244 -71.5t143 -123t42.5 -144.5q-4 -89 -32.5 -139t-106.5 -111l-4 -2l-21 -25q-10 -14 -9 -20t16 -18q10 -5 59 -25q17 -8 55 -41q71 -66 95.5 -153t1.5 -207q-25 -148 -164 -269 q-79 -64 -201 -102q-109 -35 -227 -43q-141 -6 -265 22q-149 33 -252.5 100.5t-147.5 150.5t-39 177t63 181q14 19 43 53q29 29 27.5 45.5t-38.5 67.5q-12 18 -14 20q-48 57 -64 94t-22 111zM461 485q-12 -115 54.5 -205.5t172.5 -105.5q88 -14 150 10q53 22 64.5 74.5 t-28.5 103.5q-24 31 -69 54q-5 2 -15.5 6t-15.5 6l-162 66l-45 16l-92 41q-10 -25 -14 -66zM525 1117q-7 -21 1 -38q5 -11 23 -43q37 -48 75 -75.5t103 -49.5q36 -12 43 -14q28 39 29 41q43 82 12 150.5t-115 82.5q-92 16 -145 -20q-19 -13 -26 -34z" />
<glyph unicode="9" d="M61 705q-13 88 13 202q34 167 174 295q78 71 159 108t191 52q201 30 385 -66q150 -74 240 -206q71 -108 93 -225.5t-1 -268.5q-26 -146 -120.5 -301.5t-248.5 -288.5q-20 -18 -72 -59q-108 -83 -173 -109.5t-121.5 -12t-141.5 76.5q-106 75 -117 115t56 83q84 62 115 93 l6 6l59 63q48 55 59 72q8 14 0 22q-14 5 -35.5 3t-123.5 -15q-70 -9 -156 27q-151 63 -225 276q-6 19 -15 58zM592 844q0 -23 2 -33q18 -100 49 -139q23 -29 57 -28t56 32q19 26 25 55t3 78q-3 36 -12 74q-16 84 -55 123q-26 20 -56.5 14.5t-42.5 -31.5q-8 -19 -16 -53 q-13 -77 -10 -92z" />
<glyph unicode=":" horiz-adv-x="657" d="M72 201q-3 25 0 49q12 180 192 231q113 28 205 -26q61 -39 87 -85.5t32 -125.5q6 -70 -7.5 -111.5t-56.5 -85.5q-41 -35 -69 -49q-87 -41 -172 -25q-81 13 -129.5 56.5t-71.5 122.5q-6 17 -10 49zM72 836q-3 24 0 49q6 88 55 147t137 82q112 31 205 -27q61 -38 87 -84 t32 -124q6 -70 -7.5 -112t-56.5 -85q-41 -35 -69 -49q-85 -43 -172 -27q-81 15 -129.5 58.5t-71.5 121.5q-6 14 -10 50z" />
<glyph unicode=";" horiz-adv-x="657" d="M72 254q9 168 174 221q50 14 92 8q75 -9 124.5 -48.5t84.5 -119.5q48 -113 14 -286q-10 -55 -26 -99q-49 -132 -95 -188q-72 -90 -107.5 -118t-64.5 -25q-61 7 -74 32t15 76q29 44 47 68q9 15 14 30q32 74 36 111t-15.5 59t-75.5 48q-18 6 -39 20q-113 71 -104 211z M72 836q-3 24 0 49q6 88 55 147t137 82q112 31 205 -27q61 -38 87 -84t32 -124q6 -70 -7.5 -112t-56.5 -85q-41 -35 -69 -49q-85 -43 -172 -27q-81 15 -129.5 58.5t-71.5 121.5q-6 14 -10 50z" />
<glyph unicode="&#x3c;" horiz-adv-x="1167" d="M70 565v252l1028 383v-272l-660 -236l660 -235v-275z" />
<glyph unicode="=" horiz-adv-x="1789" d="M70 211v354h1650v-354h-1650zM70 799v356h1650v-356h-1650z" />
<glyph unicode="&#x3e;" horiz-adv-x="1167" d="M70 182v275l659 235l-659 236v272l1028 -383v-252z" />
<glyph unicode="?" horiz-adv-x="1173" d="M70 1163q10 121 110 230q29 29 64 57q129 99 315 102q234 3 369 -92q156 -112 172 -243q14 -100 -21 -175t-127 -141q-49 -29 -80 -43q-18 -9 -22 -10q-7 -2 -35 -33q-35 -37 -47 -90l-6 -20l-6 -29q-19 -99 -199 -72q-31 4 -51.5 23t-29.5 58t-3 94t34.5 137t78.5 180 q10 13 10 30q10 83 -13.5 132.5t-64.5 54.5q-38 3 -49 -29q-10 -52 -10 -123q0 -5 1 -17t1 -18q3 -37 -45 -96q-52 -68 -133 -74q-108 -7 -165 48.5t-48 158.5zM377 201q-3 25 0 49q12 180 192 231q114 28 207 -28q96 -61 115 -158q26 -123 -34 -214t-183 -110q-48 -6 -88 2 q-154 27 -199 179q-8 33 -10 49z" />
<glyph unicode="@" horiz-adv-x="2117" d="M68 586q0 94 20.5 191.5t65 197t108.5 190.5t155.5 170.5t201.5 138t253 92t302 33.5q200 0 365 -56.5t276 -156t172 -235.5t61 -295q0 -194 -68.5 -353.5t-189 -251t-266.5 -91.5q-242 0 -279 211q-71 -115 -158 -164t-194 -49q-153 0 -249.5 100.5t-96.5 276.5 q0 130 47 246.5t124.5 197.5t178.5 128.5t207 47.5q95 0 169.5 -51t88.5 -117l39 131h291l-140 -493q-2 -9 -12 -38.5t-17.5 -55t-15.5 -60.5t-7.5 -62t7 -52t27.5 -38.5t55 -13.5q53 0 111.5 41t108.5 109.5t83 171.5t33 215q0 139 -51 254.5t-149 200.5t-250.5 132.5 t-346.5 47.5q-105 0 -218 -39t-220.5 -116.5t-193 -182.5t-137.5 -248.5t-52 -302.5q0 -248 103 -431.5t284.5 -278.5t419.5 -95q176 0 342.5 50.5t347.5 158.5l62 -88q-398 -254 -805 -254q-140 0 -266 29.5t-225 82t-182 123.5t-141.5 154.5t-99 175.5t-60 185.5 t-19.5 185.5zM862 449q-2 -62 29.5 -106t85.5 -44q66 0 125.5 67.5t96.5 161.5t60 176.5t27 131.5q6 60 -29 117t-90 57q-61 0 -114 -50t-86.5 -121.5t-58 -153.5t-35 -143t-11.5 -93z" />
<glyph unicode="A" horiz-adv-x="1863" d="M14 80q-6 20 -6 37q0 23 11 37q20 26 96 65q40 19 60 34t47 51.5t54 100t71.5 174.5t109.5 280q24 63 37 97q53 139 65 189t12 133q0 93 10.5 133.5t43.5 77.5q62 74 176 74q51 0 112 -15q77 -19 138 -75.5t151 -206t232 -441.5q27 -49 73 -151l148 -309v-5l28 -51 l31 -55q19 -15 94 -39q18 -5 32.5 -26t17.5 -52q1 -6 1 -11q0 -45 -38 -75q-42 -33 -152 -57q-63 -14 -187 -14q-50 0 -110 2q-188 7 -251 16t-107 31q-44 25 -52 72q-2 9 -2 18q0 36 27 63l2 2l51 31q30 20 37 27q19 18 11.5 48.5t-37.5 43.5q-53 22 -191 22 q-134 0 -188 -3.5t-81 -14t-48 -37.5q-13 -16 -13 -40.5t9 -29.5q8 -3 75 -28q44 -21 56 -63q3 -12 4 -24q0 -30 -21 -59q-14 -22 -43.5 -36t-95.5 -29q-35 -7 -94 -10q-56 -2 -104 -2q-152 0 -214 24q-71 28 -88 76zM664 653q4 -4 26 -4l12 -2l97 -4q26 -1 51 -1l51 1 q26 1 41.5 4t19.5 6q3 2 3 5l-11 28l-77 156l-7 8l-2 6l-37 47q-15 18 -28 27q-12 9 -20 9l-1 -1q-8 0 -12 -6q-23 -32 -51 -113q-59 -158 -55 -166z" />
<glyph unicode="B" horiz-adv-x="1744" d="M82 1411q-11 26 -11 49q0 28 15 52q28 44 96 53q12 2 37 2h137q81 0 441 9h32q250 -6 329 -12.5t126 -21.5q105 -36 168 -103.5t78 -154.5q9 -53 9 -97q0 -36 -6 -65q-13 -66 -60 -129q-13 -22 -68 -65q-14 -14 -33 -25q-4 -4 -12 -16q-7 -18 6 -27q11 -6 43 -20l47 -21 l37 -14q108 -37 156 -149q27 -64 27 -144q0 -60 -15 -129q-29 -143 -128.5 -237.5t-258.5 -131.5q-39 -8 -64 -10q-18 -2 -26 -2.5t-24.5 -1.5t-24.5 -1q-8 -1 -33 -1h-23h-19q-18 0 -61.5 0.5t-81.5 1t-109.5 1t-139.5 1.5h-76l-361 -2q-109 0 -135 53q-15 29 -15 55 q0 65 93 107q80 30 80 525v24l-4 397q0 27 -2 39q-6 85 -25 109.5t-92 46.5q-31 10 -49 55zM775 1211q1 -33 5 -89l11 -190l6 -10l2 -4q8 -5 24 -5q36 0 109 27q54 22 57 172v7q-1 93 -25 141q-26 48 -83 63q-27 8 -45 10q-4 1 -9 1q-13 0 -23 -5q-14 -6 -20 -17 q-6 -12 -8 -40q-2 -20 -1 -43v-18zM784 479q3 -72 9 -143q12 -99 81 -99q27 0 64 15q74 34 102 88q21 40 21 107q0 22 -2 47q-4 65 -27 101.5t-71 55.5q-24 10 -31 11h-2l-64 10q-16 2 -28 2q-38 0 -47 -20q-7 -18 -7 -86q0 -37 2 -89z" />
<glyph unicode="C" horiz-adv-x="1687" d="M70 776q0 28 4 82q15 148 76 270q58 112 122.5 185.5t159.5 138.5q86 59 223 102q81 22 127 27q70 7 124 7q40 0 72 -4q72 -9 191 -50q12 -4 62 -21q36 -16 60 -10.5t79 41.5q20 7 41 2q24 -7 74 -57q59 -63 102 -184q33 -95 33 -170t-33 -129q-38 -60 -95 -88 q-42 -20 -83 -21q-15 0 -29 3q-56 10 -94 54q-20 24 -76 105q-9 21 -28 47q-24 36 -82 76q-19 14 -51 32q-89 44 -167 44q-12 0 -22 -1q-86 -7 -147.5 -69t-73.5 -160q-3 -26 -3 -54q0 -68 17 -149q9 -41 39 -112q89 -197 242 -271q86 -41 179 -41q72 0 147 25q62 23 106 55 q9 6 21.5 16t17.5 13q30 30 63 53q20 18 59 1.5t62 -62.5q19 -40 19 -92q0 -35 -9 -76q-17 -87 -69.5 -134.5t-218.5 -127.5q-197 -93 -405 -93q-35 0 -70 3q-186 12 -334 92q-107 59 -174.5 122t-137.5 171q-58 92 -83.5 165.5t-32.5 172.5q-4 46 -4 71z" />
<glyph unicode="D" horiz-adv-x="1953" d="M74 158q7 35 22.5 47t79.5 37q50 19 59.5 68.5t11.5 292.5q1 38 1 59q1 54 1 101q0 172 -9 255q-11 192 -21 235q-13 53 -55 81q-18 13 -62 34q-17 10 -28 62q-3 14 -3 27q0 35 24 57q33 31 128 51q4 1 14.5 2t14.5 2h10l82 4q324 16 651 16q166 0 283 -24 q212 -43 344 -154.5t207 -312.5q55 -141 55 -303q0 -44 -4 -90q-10 -115 -43 -195q-67 -197 -188.5 -309.5t-319.5 -165.5q-7 -1 -45.5 -9t-60.5 -10q-82 -10 -167 -11h-48q-122 0 -461 3q-36 1 -70 1q-126 0 -233 -9q-25 0 -35 4q-81 18 -114 58q-24 30 -24 68q0 13 3 28z M794 591q-1 -26 0 -52q0 -34 1 -66q2 -57 7.5 -89.5t18.5 -60t29.5 -38.5t44.5 -16q16 -3 32 -3q13 0 28 2q32 4 79 15q108 24 174 162q56 115 56 304q0 37 -2 76q-3 56 -17 119q-30 124 -63.5 192t-81.5 103.5t-131 56.5q-64 17 -101 17q-21 1 -33 -5q-30 -14 -30 -67v-10 q4 -90 4 -188q0 -141 -8 -298q-5 -93 -7 -154z" />
<glyph unicode="E" horiz-adv-x="1648" d="M70 1454q3 51 31.5 75t103.5 36q11 2 44 2q49 0 148 -4q106 -5 228 -5q183 0 401 11q191 12 209 14q34 3 62 3q23 0 41 -2q42 -4 73 -28.5t51.5 -69.5t36.5 -122q9 -49 9 -89q0 -39 -8 -69q-16 -60 -60 -88q-33 -19 -60 -19q-16 0 -31 7q-38 18 -120 111q-5 5 -25 30 q-19 23 -90 47.5t-160 24.5q-102 0 -143.5 -11.5t-54.5 -39.5l-13 -78q-8 -82 -8 -148v-26q-1 -54 39 -80q22 -15 50 -15q22 0 48 9q49 15 61 41t17 119q2 25 22 45.5t56 29.5q12 3 24 3q40 0 74 -36q44 -46 68 -155q11 -58 14 -127q1 -22 1 -43q0 -157 -40 -252 q-37 -76 -85 -98q-19 -9 -37 -9q-29 0 -56 21q-25 19 -31.5 38.5t-9.5 84.5q0 12 -6 24q-24 52 -51 66q-14 7 -34 8q-18 0 -40 -6q-46 -15 -54 -36q-4 -11 -4 -40q0 -25 3 -63l2 -21l4 -88v-16l4 -62q4 -72 60 -92q26 -9 76 -10q56 0 141 12l106 19l8 2q134 44 199 215 q14 34 55 51q20 10 55 8t66 -16q59 -29 59 -145v-11q0 -9 -4 -45q-7 -64 -21 -101.5t-75 -160.5q-18 -38 -31 -80q-3 -13 -53 -18l-90 16q-55 8 -297 8h-104l-344 -2l-224 -4l-45 -2q-28 -1 -52 -1q-87 1 -129 17q-54 22 -56 74q-1 12 -1 22q0 45 21 66l2 2l64 29l1 1 q37 18 46 33q14 23 18 125q1 16 2 54q2 61 4 100q3 65 3 126q0 31 -1 61q-2 385 -16 493l-2 13l-14 65q-10 43 -20 52t-64 24q-23 8 -39 41q-9 20 -9 42q0 7 1 13z" />
<glyph unicode="F" horiz-adv-x="1550" d="M72 141q3 40 16 58l68 45q29 20 44.5 35.5t29.5 50.5t18.5 74t5.5 121v37q0 66 -2 138q-4 94 -12 254l-11 234q-4 58 -9 79t-17 38q-29 29 -80 45q-23 7 -39 45q-11 24 -11 46q0 33 23 63q38 50 123 59q16 2 57 2q97 0 332 -13q103 -5 180 -5q38 0 70 2q95 4 393 28 q27 2 50 2q71 0 99 -19q38 -25 85 -141q17 -46 22 -80q15 -82 15 -127v-19q-4 -45 -33 -69q-44 -35 -83 -35h-6q-42 3 -95 48q-21 19 -74 86q-40 43 -127 67q-3 1 -9.5 2t-9.5 2q-68 11 -106 16.5t-74 8t-52.5 1t-32.5 -8.5t-23.5 -17t-16.5 -28l-8 -17l-2 -8 q-10 -37 -12 -117q-2 -16 -2 -47q4 -99 28 -125q14 -15 43 -15q22 0 52 9q58 17 70.5 34.5t23.5 94.5q7 39 53 66q23 14 45 14q24 0 47 -16q44 -30 74 -119q24 -67 27 -209q0 -99 -7 -139q-23 -110 -45 -164t-50 -70q-17 -10 -42 -10q-15 0 -33 4q-84 25 -84 121 q-1 69 -17.5 90t-74.5 35q-26 5 -42.5 5t-31 -3t-21.5 -15.5t-11.5 -30t-3.5 -49t4 -69t10 -94.5l10 -88v-2q14 -56 28 -68t80 -28l15 -3q53 -12 71 -52q8 -18 8 -38q0 -27 -13 -59q-22 -58 -135 -86q-81 -20 -233 -19q-61 0 -134 3q-165 8 -250 26t-116 48q-29 29 -29 78v7 z" />
<glyph unicode="G" horiz-adv-x="1910" d="M70 766q-1 9 -1 22q0 26 3 66q11 151 65 264t178 238q130 133 334 198q125 36 259 36q20 0 40 -1q125 -6 264 -47q7 -2 15 -5t18 -7l15 -6q16 -4 47 -2q33 0 77 16q2 1 23 8q14 5 29 5q37 0 81 -33q62 -47 103 -156q26 -63 29 -92l2 -8l4 -35v-15q0 -125 -65 -186 q-50 -47 -119 -47q-28 0 -60 8q-43 11 -90 54.5t-133 156.5q-30 34 -101 64q-11 6 -53 16q-40 9 -77 9q-48 0 -91 -15q-78 -25 -129.5 -91t-72.5 -171q-9 -48 -9 -104q0 -65 13 -140q4 -23 12 -59q49 -206 170 -318q94 -84 182 -94q14 -1 27 -1q50 0 76 19q32 24 41 90 q1 11 1 20q0 53 -42 75h-5l-79 6q-52 4 -78 32t-31 82q-1 7 -1 14q0 46 35 82q40 40 132 66q89 21 248 27q26 1 49 1q70 0 119 -7q160 -17 223.5 -48t87.5 -98q7 -23 7 -44q0 -17 -4 -32q-10 -35 -28 -44q-14 -4 -42.5 -12.5t-41.5 -12.5q-2 -1 -5 -3t-5 -3 q-38 -21 -47.5 -39t-38.5 -119q-8 -37 -53 -108q-62 -89 -142.5 -142t-209.5 -88q-118 -28 -267 -28q-376 3 -603 188t-277 512q-4 29 -8 86z" />
<glyph unicode="H" horiz-adv-x="1945" d="M71 1414q5 46 54 83q42 31 137 53q82 15 213 17q23 1 45 1q82 0 158 -9l84 -15q81 -13 116.5 -36.5t43.5 -65.5q3 -19 3 -34q0 -35 -14 -54l-2 -2l-59 -39q-38 -24 -49 -47l-19 -95q-11 -57 -15.5 -89t0.5 -60.5t17 -41t42.5 -21.5t67 -11t101.5 -2q10 0 29.5 1t28.5 1 q95 7 117 29q17 17 17 71q0 15 -1 33l-2 17l-6 69q-7 82 -16 101.5t-50 48.5q-27 19 -43 33q-31 25 -31 65q0 10 2 21q10 54 64 84q66 37 305 47h51q5 0 13.5 1t16 1t13.5 -2l8 -2l54 -4l161 -15l5 -2q4 0 22 -6q97 -36 121 -74q11 -17 10 -39q0 -29 -16 -67 q-10 -23 -68 -55q-55 -31 -64.5 -71t-13.5 -250q-1 -59 -2 -93v-92l6 -283q3 -162 12 -199q10 -42 50 -73q14 -11 53 -37q26 -20 35 -64q1 -8 1 -15q0 -42 -34 -79q-25 -28 -77 -40t-191 -21q-12 -2 -43 -2q-82 -4 -113 -4q-93 0 -151 10q-113 14 -156 30q-63 25 -75 78 q-3 12 -3 24q0 39 31 71q5 8 65 59q37 30 48 76q9 36 9 120q0 23 -1 50l-4 86v2q-6 49 -40 65q-26 12 -84 12q-18 0 -40 -1q-38 -2 -67 -3.5t-40.5 -2.5t-17.5 -1h-6q-89 1 -113 -53q-12 -27 -12 -81q0 -57 14 -144l10 -62v-4q3 -15 13 -28q10 -20 25.5 -32t58.5 -34 q23 -13 32 -61q2 -10 2 -20q0 -35 -26 -68q-21 -27 -66 -44t-141 -32q-56 -9 -156 -12h-35q-187 0 -278 30q-75 26 -102.5 49t-32.5 62q-1 8 -1 16q0 36 22 63q27 33 118 81q9 5 14.5 33t11 147.5t7.5 335.5q2 51 2 96q0 38 -2 71q-2 73 -2 124t-6.5 88.5t-11 60t-17.5 39 t-26 25t-35 18.5q-30 12 -54 29q-30 17 -30 54q0 6 1 12z" />
<glyph unicode="I" horiz-adv-x="1044" d="M72 1374q-2 12 -2 23q0 62 52 96q61 39 249 63q6 0 18.5 1.5t18.5 1.5q85 8 156 8q38 0 73 -2q219 -20 283 -80q29 -33 29 -75q-1 -8 -1 -14q-6 -50 -45 -73q-29 -15 -49 -27q-21 -10 -31 -37q-9 -27 -15 -121q-5 -80 -5 -204v-47q1 -156 6 -451q0 -29 2 -41 q5 -71 16.5 -93t65.5 -56q24 -12 39 -27q44 -37 44 -84q0 -42 -38 -67q-18 -14 -85 -39q-11 -4 -17 -6q-53 -18 -148 -30.5t-190 -12.5q-58 0 -152 12q-99 18 -144.5 35t-68.5 41q-37 35 -37 84q0 46 33 67q6 3 26 15t31 18q34 17 47 137v14q1 148 4 368q5 79 5 144 q0 41 -2 75q-4 75 -4 121v17v5q0 43 -16 75q-17 34 -32.5 48.5t-53.5 42.5q-11 8 -17 12q-5 3 -14.5 9t-14.5 9q-9 6 -16 45z" />
<glyph unicode="J" horiz-adv-x="1466" d="M-25 387q0 31 2 49q35 221 256 230q12 1 23 1q122 0 193 -89q57 -67 57 -145q0 -24 -6 -50q-2 -9 -6.5 -28.5t-6.5 -28.5q-3 -29 23 -50q19 -16 44 -16q8 0 17 2q37 7 84 60q34 39 45 108q8 44 8 118q0 46 -3 103l-17 416v18l-4 74q-4 57 -22 74t-97 49q-56 23 -68 72 q-3 13 -3 25q0 39 28 81q26 39 82.5 60.5t173.5 33.5l109 9l14 2q27 1 55.5 1t57.5 -1q62 -2 164 -13q115 -20 157.5 -41t53.5 -59q8 -28 8 -50q0 -28 -12 -46q-21 -34 -99 -76q-16 -9 -43 -82q-9 -28 -9 -133.5t9 -575.5v-11q0 -58 -29 -150q-72 -264 -440 -334 q-74 -13 -164 -13q-27 0 -55 1q-277 14 -426 126t-154 279z" />
<glyph unicode="K" horiz-adv-x="1955" d="M72 98q-1 8 -1 16q1 29 17 56q22 34 98 104q3 5 12 12t11 9q22 15 26.5 112t6.5 535q0 80 -6 154l-3 20l-8 66q-9 67 -19 79.5t-89 55.5q-23 18 -29 26q-19 27 -19 57q0 36 27 75q19 23 53 38.5t107 32.5q57 12 131 17q49 3 105 3q33 0 69 -1q171 -10 234 -39 q73 -26 86 -86q3 -12 3 -24q0 -48 -42 -93q-9 -10 -24 -27.5t-18.5 -21t-12.5 -16t-9.5 -14.5t-6 -13t-5 -15t-2 -18t-2 -23.5t-1 -30.5t-3.5 -40q-1 -17 -1 -33q0 -26 3 -47q3 -11 13 -15.5t20 -0.5q44 14 135 131q103 135 96 170v2l-18 22q-21 24 -23 59v6q0 32 18 66 q25 49 101 71.5t258 25.5h42q150 0 222 -19q94 -26 124 -78q13 -23 13 -47q0 -31 -22 -63q-18 -30 -65 -44t-146 -14q-37 0 -90 -28t-109 -86q-16 -16 -44 -45q-59 -59 -79 -81q-15 -17 -15 -46q-1 -8 1 -18q6 -42 31 -72t104 -118q55 -62 88 -100l268 -309 q95 -106 112.5 -120.5t90.5 -47.5q24 -14 31 -20q53 -41 53 -95t-53 -92q-36 -26 -51 -30q-8 -2 -28 -2q-37 0 -115 6q-46 4 -81 6q-18 1 -40 1q-88 0 -248 -19q-9 -1 -18 -1q-40 0 -70 23h-2l-33 51q-13 15 -150 187l-8 10l-176 199q-25 29 -53 47q-17 13 -36.5 5 t-25.5 -30q-5 -14 -4.5 -42t4.5 -69q3 -34 3.5 -45t4 -29t4.5 -21t9 -12t13 -11.5t20 -10.5q27 -15 45 -30q37 -31 37 -74q0 -10 -2 -20q-10 -56 -72 -91q-70 -36 -307 -36h-37q-231 0 -322 28q-92 26 -106 90z" />
<glyph unicode="L" horiz-adv-x="1476" d="M72 144q12 38 94 83q36 19 55 109t25 317q1 34 1 71q0 84 -5 177q-11 252 -21 301q-11 59 -45 82q-15 10 -47 23q-4 1 -13.5 3t-11.5 3q-20 7 -28 59q-1 9 -1 18q0 51 39 85q46 40 171 65q12 4 36 7.5t27 4.5q115 14 215 14q107 0 197 -16q136 -24 184 -70q30 -28 30 -64 q0 -21 -11 -44q-15 -32 -36.5 -50t-84.5 -54q-36 -21 -43.5 -46.5t-7.5 -125.5l6 -627q1 -55 5 -90t15.5 -62.5t28 -41t47.5 -19.5q25 -5 53 -5q6 1 14 1q36 2 95 8q123 15 180 152l35 88v2q9 37 72 37h10q48 -4 96 -52q42 -40 42 -124q0 -47 -13 -107q-41 -149 -103 -211 q-45 -51 -67 -67t-44 -16h-1q-22 0 -74 15l-64 15l-20 6q-44 12 -155 12q-46 0 -103 -2l-236 -10l-291 -16q-34 -2 -61 -2q-54 0 -86 8q-48 12 -66 39q-36 63 -36 100q-1 9 2 17z" />
<glyph unicode="M" horiz-adv-x="2150" d="M70 92q-1 4 -1 9q0 17 9 34q12 22 30 34.5t60 25.5q44 16 57 129q6 65 13 239l2 10l4 52l2 69q9 214 9 314q0 27 -1 47v14l-8 90q-5 68 -27 96l-2 2l-72 52q-55 37 -64 76q-2 8 -2 17q0 33 27 73q51 66 183 81l35 5l49 4q47 3 79 3q16 0 27 -1q48 -2 73 -4t57.5 -10 t47 -14.5t39.5 -28.5t38.5 -41t41 -63t49 -83.5t60.5 -112.5q22 -42 35 -65q31 -62 94 -189q4 -4 6 -8q53 -68 64 -76q17 -11 34 10q7 8 29 42q36 56 192 383q3 7 11.5 20.5t11.5 18.5q55 85 92 124.5t82.5 59t126.5 29.5q70 9 127 9q68 0 118 -12q93 -22 128 -73 q33 -49 33 -83q-1 -9 -3 -16q-10 -38 -77 -86q-38 -26 -53 -129t-21 -419q0 -53 2 -86q20 -308 29 -362t40 -67q22 -9 37 -20q20 -13 33 -33q27 -30 27 -64q1 -15 -5 -30q-18 -50 -85 -74q-78 -28 -156 -32q-24 -1 -62 -1q-84 0 -237 7q-91 3 -129 14q-145 36 -145 113 q0 10 2 20q8 30 23.5 47.5t66.5 50.5q24 20 37 76v4l4 146l2 174q-4 28 -26.5 40t-43.5 3q-15 -12 -24 -27l-13 -16l-20 -45l-8 -19l-56 -98q-14 -29 -153 -346l-29 -57q-7 -14 -18 -25q-22 -24 -51 -25t-39 19q-71 139 -107 211q-5 10 -15.5 31.5t-15.5 31.5 q-78 161 -98 215q-39 95 -54.5 126t-29.5 40q-15 10 -29 9.5t-22 -11.5q-13 -20 -15 -55q-1 -8 -1 -20q0 -38 6 -115q3 -48 3 -107q0 -29 -1 -61v-20q1 -49 9 -67q10 -22 54 -44q43 -26 60 -39q27 -16 23 -53t-42 -72q-57 -57 -285 -57q-136 0 -198 24q-83 34 -90 88z" />
<glyph unicode="N" horiz-adv-x="1964" d="M74 1395q-4 15 -4 29q0 41 35 72q47 42 163 60q94 11 148 11h17q139 0 178.5 -14.5t137.5 -103.5q11 -10 17 -15l371 -338q90 -89 130 -122.5t68 -45.5q22 -10 44 -2.5t28 26.5q8 28 8 45l2 68v6l-4 100q-4 81 -17 105t-69 53q-70 35 -83 67q-4 10 -4 22q0 30 22 75 q13 26 46.5 44.5t80.5 21.5l102 8h25q28 1 54 1q126 0 204 -20q121 -37 121 -118q0 -16 -5 -33q-11 -34 -27 -49.5t-65 -38.5q-53 -29 -63 -213l-11 -211q-4 -146 -8 -387v-107l-2 -88q-3 -126 -18 -180q-35 -129 -73 -155q-13 -9 -31 -10q-32 0 -79 32l-69 45l-4 2 q-134 101 -400 352q-126 122 -200 207q-45 51 -109 102q-25 21 -51 21q-8 0 -18 -3q-36 -10 -48 -50q-8 -24 -8 -60l-4 -90v-8q0 -83 6 -113l9 -60t10.5 -41.5t12.5 -29.5t20 -19.5t27.5 -17.5t41.5 -18q33 -17 33 -74q2 -60 -54.5 -99t-177.5 -52q-43 -5 -84 -5 q-18 0 -36 1q-124 7 -183.5 24t-87.5 47q-34 34 -34 83q0 44 28 61q55 38 72 47q27 17 41.5 60.5t23.5 161.5t9 329q0 159 -13 258q-7 61 -11.5 93t-13 65t-16.5 48t-25.5 32t-36.5 26.5t-52 23.5q-26 11 -37 56z" />
<glyph unicode="O" horiz-adv-x="1822" d="M70 842q6 89 32 174q53 151 114.5 239t170.5 166q114 83 232.5 123.5t267.5 44.5h26q126 0 232 -26q160 -44 272.5 -118.5t192.5 -189.5q126 -178 141 -399q2 -36 2 -70q0 -201 -70 -352q-82 -177 -268 -303q-142 -100 -340 -137q-76 -14 -158 -14q-27 0 -55 2 q-107 5 -215 38q-125 41 -215.5 101t-165.5 149q-151 185 -182 365q-15 96 -15 173q0 18 1 34zM645 1032q-1 -12 -1 -26q0 -104 48 -271q18 -73 49 -143q33 -71 60 -117q57 -95 111 -128q40 -24 87 -25q17 0 35 4q80 15 120 86q33 58 34 151q0 21 -2 43q-7 55 -21 123 q-55 225 -123 330q-50 80 -76 111.5t-55 46.5q-48 26 -93 26q-26 -1 -52 -9q-70 -24 -98 -99q-17 -40 -23 -103z" />
<glyph unicode="P" horiz-adv-x="1669" d="M75 1398q-3 11 -3 26q0 17 4 40q18 85 141 101q6 1 31 1q34 0 103 -2q127 -5 235 -8q20 0 317 19q31 3 65 3q20 0 42 -1q326 -13 478 -179q112 -122 112 -296q0 -64 -15 -135q-24 -117 -100 -215q-74 -93 -166 -139.5t-234 -61.5q-32 -2 -88 -2.5t-135 2.5 q-29 1 -35.5 -7t-13.5 -61q-6 -40 -6 -74q1 -65 23 -107q34 -62 128 -93q11 -3 18 -20t3 -47t-25 -60q-28 -43 -74 -64q-44 -20 -144 -30q-70 -7 -180 -7q-46 0 -99 1q-258 5 -340 77q-34 32 -40 80q-1 10 -1 18q0 33 18 46q33 23 76 47q46 32 57.5 68t12.5 153l8 561v45 q0 53 -2 87q-2 48 -9.5 87.5t-26 60t-43.5 34.5t-69 26q-16 3 -23 26zM788 1059v-36q0 -160 16 -185q8 -12 34 -13q32 0 92 21q50 20 80 80q25 50 25 123q0 14 -1 30q-4 82 -33 132t-88 81q-30 15 -54 15q-14 -1 -26 -5q-33 -14 -36 -49q-9 -95 -9 -194z" />
<glyph unicode="Q" horiz-adv-x="1835" d="M76 698q-6 50 -6 99q0 159 61 301q75 190 242 317q92 68 190 105q90 44 191 57q106 13 186 13q33 0 62 -2q99 -8 221 -48q30 -12 98 -45q181 -95 285 -240q79 -107 114 -205t43 -231q2 -35 2 -67q0 -84 -15 -149q-21 -90 -89 -224q-57 -117 -148 -196t-249 -148l-50 -21 l-24 -8q30 -13 72 -24q148 -49 216 -50q3 -1 5 -1q68 0 174 40q21 4 49 0q58 -13 70 -94q2 -8 2 -27q-6 -49 -51.5 -93.5t-155.5 -98.5q-116 -60 -255 -65h-22q-133 0 -317 53q-200 58 -471 188q-7 3 -20.5 9.5t-20.5 9.5q-98 46 -147 55q-29 6 -78 6q-30 0 -68 -2 q-28 -2 -52 16.5t-28 46.5q-2 10 -2 20q0 60 57 104q66 51 191 51h24q-40 34 -71 73q-188 218 -215 475zM662 987q3 -63 14 -119q20 -138 76 -272q47 -114 79.5 -165.5t67.5 -74.5q55 -35 107 -35q22 0 44 6q72 21 103 99q18 46 23 121v16q0 90 -39 228q-71 283 -181 378 q-51 45 -92 62q-28 10 -54 10q-38 0 -74 -21q-60 -37 -72 -114q-4 -31 -4 -66q0 -26 2 -53z" />
<glyph unicode="R" horiz-adv-x="1824" d="M74 1417q-1 9 -1 18q0 41 31 67q38 30 153 47t327 18h223h12l107 10q31 2 96 2q92 -5 182 -25q190 -45 280 -160q72 -92 72 -217q0 -31 -4 -63q-13 -85 -55.5 -154t-99.5 -102q-58 -28 -60 -29q-11 -7 -16 -18q-3 -9 -1 -16t5 -9q6 -2 20.5 -5t20.5 -5q101 -24 173 -110 t99 -224l13 -65l4 -31q9 -63 23 -78.5t85 -42.5q20 -6 33 -22q21 -25 21 -56q0 -32 -23 -69q-53 -94 -299 -105q-30 -2 -57 -2q-89 0 -152 20q-83 26 -135 84.5t-90 162.5q-11 33 -12 41q-65 209 -80 272q-3 26 -45 63q-27 23 -70 29q-30 6 -49.5 2.5t-28 -10t-8.5 -14.5 q6 -212 18 -308q12 -51 25 -65.5t72 -40.5q28 -14 41 -60q3 -13 3 -25q-1 -34 -27 -66q-36 -43 -118 -62q-84 -16 -231 -16q-71 0 -156 4q-143 6 -200 19.5t-86 43.5q-34 37 -34 86q0 47 27 62q17 9 66 34q33 18 49 76.5t19 192.5l2 125l4 147v53q0 178 -17 357l-4 22l-6 47 q-7 42 -19.5 56t-70.5 45q-44 21 -51 69zM754 1069q0 -37 2 -53q4 -89 10 -102q7 -15 30 -15q7 0 16 1q11 2 69 15q45 10 74 71q23 49 23 122q0 18 -1 37q-5 109 -64 149q-46 29 -83 29q-8 0 -16 -1q-43 -8 -54 -48l-2 -62z" />
<glyph unicode="S" horiz-adv-x="1513" d="M70 506q2 44 36 74q29 25 66 25q8 0 16 -1q38 -5 69 -28.5t77 -83.5l45 -64l10 -14q24 -38 107 -84q7 -3 18.5 -8t21 -8.5t17.5 -6.5q73 -25 130 -25h10q60 2 96.5 22t50.5 52q12 28 3.5 53.5t-32.5 39.5q-13 7 -24 12t-22 9.5t-35.5 12t-46.5 14.5t-73 23t-100 31 q-44 13 -80 29q-110 54 -162 98q-163 138 -188 317q-6 45 -6 85q0 64 15 116q24 85 99 174q74 84 191 141q84 39 127 48q120 30 198 30q4 -1 8 -1q80 -2 244 -34q31 -5 48.5 -2t80.5 23q18 7 37 7q40 0 80 -29q60 -43 139 -171q42 -64 42 -130q0 -37 -13 -74 q-20 -68 -72 -94q-26 -13 -56 -14q-29 0 -62 13q-39 13 -78.5 43t-134.5 117q-24 24 -115 41q-18 3 -36 3q-46 0 -89 -17q-34 -13 -47 -44.5t2 -60.5q13 -38 63 -65q108 -45 213 -64q164 -32 236 -75q150 -83 210 -205q42 -86 41 -197q0 -46 -7 -96q-13 -81 -54 -156 q-63 -120 -176 -195t-299 -114q-87 -18 -229 -18q-136 3 -244 28q-80 20 -127.5 37t-86.5 41t-62 61.5t-40 86t-34 126.5q-11 48 -14 89q-2 18 -2 57z" />
<glyph unicode="T" horiz-adv-x="1607" d="M0 1200q9 84 66 176q48 83 80 124q32 42 72 62q34 17 68 16h12q40 -4 114 -24q39 -9 348 -24h26l197 12q179 9 210 12t87 19q5 2 17.5 5t17.5 5q12 5 26 5q37 0 87 -34q68 -46 126 -153q33 -64 48 -139q10 -58 10 -103q0 -86 -56 -134q-43 -37 -100 -37q-17 0 -35 3 q-49 7 -83 31t-70 74q-19 31 -29 55q-41 87 -84 94q-26 4 -48 -11t-22 -34q-6 -275 -6 -460q0 -152 4 -244v-9l4 -84q4 -63 23.5 -91.5t73.5 -51.5q102 -42 102 -103q0 -33 -29 -71q-38 -48 -161 -80q-96 -26 -312 -26q-269 3 -354 38q-53 21 -92 60q-33 38 -33 78v8 q4 44 41 65q40 17 64 27q58 20 74 45.5t22 104.5l16 212v25q5 118 5 267q0 64 -1 134v5l-8 104q-3 28 -20 59q-12 23 -36 27.5t-46 -14.5q-21 -21 -41 -51l-58 -82l-8 -11q-16 -24 -28 -32q-75 -67 -139 -67q-61 0 -113 60q-32 39 -32 109q0 23 3 49z" />
<glyph unicode="U" horiz-adv-x="1998" d="M74 1352q-5 16 -5 31q1 42 39 76q52 46 193 81q103 27 260 27h40q103 0 165 -13q147 -27 192 -73q24 -25 24 -58q0 -28 -17 -61q-8 -15 -23.5 -27t-54.5 -32q-57 -30 -66 -72q-8 -38 -8 -225v-43v-144q0 -225 23 -287q31 -105 88 -143.5t192 -42.5h24q129 0 201 60 q44 38 62.5 81.5t21.5 114.5l9 338q2 44 2 82v46q-2 56 -3.5 96.5t-11 71t-18.5 50.5t-28.5 35t-40.5 25t-54 20q-20 6 -29 31.5t2 62.5q15 48 105 74q28 10 86 20q110 13 184 13q43 0 68 -2q144 -9 198 -55q37 -31 37 -71q0 -18 -8 -38q-12 -32 -29.5 -47.5t-68.5 -38.5 q-24 -9 -43 -51q-13 -29 -15 -125l-12 -426l-2 -99q-1 -122 -12.5 -185.5t-38.5 -117.5q-56 -107 -119.5 -162t-187.5 -102q-111 -45 -271 -61q-72 -7 -141 -7q-128 0 -245 25q-180 39 -279 111q-85 63 -127 130t-68 183q-16 82 -16 289l-4 377v4l-11 80q-6 52 -26.5 72 t-89.5 40q-28 7 -43 62z" />
<glyph unicode="V" horiz-adv-x="1837" d="M-4 1366v7q0 37 27 77q45 58 182 90q86 17 114 19q62 8 134 8t153 -8q6 -1 23.5 -3.5t27.5 -3.5q104 -17 153.5 -37.5t72.5 -52.5q26 -37 26 -72q0 -6 -1 -11q-5 -40 -40 -64q-6 -4 -22 -12q-19 -8 -28.5 -13.5t-15 -19t-3.5 -29t12 -48t26 -70t44 -101.5 q33 -75 74 -139.5t71 -94.5q6 -4 13 -4.5t17 9.5t19 28l8 17l33 57q45 80 77 146.5t47.5 109t22.5 75t6.5 48t-5.5 24.5v5l-50 36q-2 3 -14 15q-42 40 -47 68q-1 4 -1 9q0 26 26 64q18 26 54.5 40t121.5 26q50 7 118 7q23 0 48 -1q174 -3 248 -37q71 -33 71 -89 q1 -74 -25 -99q-22 -22 -106 -31q-25 -2 -48 -28.5t-65 -111.5t-108 -247q-12 -32 -158 -351q-121 -265 -217 -444l-14 -29l-27 -53q-61 -101 -171 -101q-19 0 -40 3q-28 5 -47.5 14t-45 35t-49 62.5t-62 108.5t-81 159t-108.5 227q-62 134 -105 250l-58 145t-46 109 t-39 84.5t-33.5 56.5t-32.5 41.5t-34 23.5t-40 17.5t-48 9.5q-30 7 -35 74z" />
<glyph unicode="W" horiz-adv-x="2740" d="M2 1350q-4 12 -5 24q0 33 28 76q20 28 59.5 48.5t130.5 45.5q94 23 272 23q62 0 93 -2q95 -2 165 -15q97 -20 136 -47q37 -26 45 -72q2 -11 3 -22q0 -31 -20 -51q-25 -25 -37 -35q-21 -26 -20.5 -45.5t20.5 -71.5l25 -57l31 -72q8 -19 23 -53.5t27.5 -62.5t25.5 -52 q11 -24 22.5 -38t18.5 -15t12 2q18 15 30 33q55 66 71 115q9 29 9 62q0 23 -4 48q-13 76 -43.5 124.5t-95.5 98.5q-29 18 -37 56q-3 14 -3 26q0 32 22 57q31 34 127.5 57t263.5 30q9 0 27.5 1t27.5 1q28 0 82 -4q147 -10 206.5 -23t86.5 -37q37 -31 37 -80q0 -43 -29 -65 q-6 -5 -19.5 -15.5t-19.5 -15.5q-30 -19 -34 -41v-7q0 -22 18 -62l2 -7l53 -110l14 -29l88 -182q11 -18 19 -29q14 -14 31 0q16 14 33 50t69 167q51 133 60.5 170t-1.5 58h-2l-63 30q-54 24 -54 78q0 20 7 43q11 35 53 58.5t133 41.5q66 11 143 11q47 0 99 -4l35 -4l69 -7 q6 -1 22 -4t25 -4q128 -32 128 -111q0 -16 -5 -34q-10 -39 -29.5 -51.5t-109.5 -42.5q-26 -15 -43 -27q-37 -28 -56.5 -63.5t-101.5 -221.5q-36 -82 -59 -133l-41 -94l-146 -340l-98 -231l-10 -25q-41 -101 -79.5 -146.5t-92.5 -64.5q-28 -8 -47 -8q-11 -1 -22 -1 q-111 0 -169 113l-30 58l-13 24q-75 171 -114 273q-77 203 -103 239l-6 11l-16 26q-31 -31 -49.5 -68.5t-45.5 -136.5q-29 -104 -59 -172q-62 -149 -105 -225t-79 -105t-88 -38q-14 -3 -28 -3q-37 0 -75 17q-34 16 -59 43.5t-63.5 101t-104.5 222.5l-172 379l-66 149 q-23 50 -96 195l-24 51l-48 88l-16 33q-5 5 -43 20q-24 10 -33 15q-80 50 -96 90z" />
<glyph unicode="X" horiz-adv-x="1847" d="M0 80q-4 15 -4 29q0 32 20 61q11 15 21 20l115 31q23 6 29.5 7.5t23 7t19 6.5t16.5 10.5t16.5 12.5t19 19.5t23.5 25t30.5 34.5t39.5 43q38 42 100 110q61 65 84.5 91.5t46.5 66t21 56t-17 52t-42 66t-77 86.5q-88 98 -145 166q-111 135 -133 160l-17 16l-4 3 q-6 4 -49 14q-3 1 -20.5 6t-30.5 10q-56 23 -71 73q-5 15 -5 29q0 33 25 62q37 44 93.5 66.5t174.5 35.5q74 9 113 9q66 2 176 2h17q127 -1 200 -15q78 -16 107.5 -44.5t33.5 -80.5q1 -9 1 -17q0 -30 -9 -50q-11 -26 -43 -55q-7 -12 -22 -23q-7 -2 30 -39q11 -10 27 -26 l59 -56l2 -2q18 -9 33.5 5.5t44.5 68.5l27 53l2 4q9 25 5 32.5t-38 29.5q-27 15 -45 45q-15 22 -15 47q0 17 7 34q18 43 71 60q67 20 187 25q75 4 135 4q129 0 188 -19q86 -28 101 -84q4 -18 4 -33q0 -30 -16 -50q-26 -31 -97 -46l-20 -6l-66 -10q-30 -4 -41 -11t-39 -38 l-96 -109l-8 -10l-119 -147q-4 -5 -11 -14q-31 -38 -31 -54q0 -21 41 -75q9 -11 31 -38q31 -39 50 -63q14 -17 41.5 -52t42.5 -53l190 -227q13 -16 36 -44q68 -82 88 -97q19 -14 69 -28q24 -7 39 -11q19 -5 41 -27q25 -31 25 -63q0 -42 -42 -86q-38 -40 -131.5 -61.5 t-298.5 -30.5q-20 -1 -45 -1q-50 0 -118 3q-156 10 -212 22t-83 39q-42 37 -42 79v6q4 45 54 73q2 1 7 4q17 9 23 13t12 12t5 13t-6.5 19t-14 26.5t-25.5 38.5q-16 25 -26 40q-23 31 -37 47l-4 8l-37 51q-21 27 -36.5 25t-36.5 -37q-22 -31 -37 -66q-28 -55 -62 -94 q-23 -32 -24 -39t16 -24l35 -35l6 -8q38 -34 48 -57q4 -10 4 -24q0 -17 -7 -40q-20 -65 -116 -76l-78 -8l-21 -2q-78 -8 -184 -8q-47 0 -70 2q-144 10 -199 31t-69 67z" />
<glyph unicode="Y" horiz-adv-x="1777" d="M-2 1411q-1 9 -1 18q0 85 109 111l72 14l15 2q82 11 208 11q57 1 106 1q121 0 186 -6q91 -7 165 -32q70 -22 89 -76q6 -17 6 -35q0 -36 -27 -73q-16 -19 -25 -27q-5 -4 -5 -12q0 -27 44 -99l18 -28l35 -56q15 -23 27 -24.5t31 20.5q11 13 31 37q30 36 42 50.5t25.5 34 t13 27.5t-2.5 19.5t-12.5 23t-25.5 26.5l-14 14q-18 18 -18 51q0 10 2 22q6 47 49 77t139 48q69 13 139 17h51h50q146 -4 201 -30t61 -85q1 -8 1 -16q0 -85 -83 -109l-8 -2l-45 -8q-54 -9 -92 -39t-117 -123l-82 -100l-25 -29q-73 -87 -117 -127q-13 -13 -28 -68 q-18 -63 -18 -148q0 -19 1 -40q2 -69 3.5 -109t5.5 -84t7.5 -65.5t12 -47t17.5 -36.5t25.5 -26t33 -23.5t43.5 -20.5q26 -12 35 -41q5 -12 5 -27q0 -18 -7 -39q-12 -39 -45 -73q-27 -26 -82 -39.5t-185 -25.5q-62 -7 -131 -7q-23 0 -47 1q-205 6 -330 43q-91 29 -120 63 q-17 21 -17 49q0 19 8 41q12 36 27.5 48.5t79.5 39.5q39 17 54 40.5t22 85.5q2 27 2 64q0 46 -4 107l-4 197q-10 49 -31 90l-64 80q-16 20 -46 58q-54 68 -76.5 97t-58.5 71.5t-47.5 55.5t-37.5 36t-35 27.5t-33.5 16t-40 15.5t-47.5 12q-55 14 -63 94z" />
<glyph unicode="Z" horiz-adv-x="1452" d="M98 279q68 108 441 657q2 6 10 14q103 129 135.5 183t34.5 86q0 23 -13 38t-32 15q-9 1 -20 1q-23 0 -58 -3l-94 -6h-2q-47 -13 -80 -52v-2l-37 -77q-42 -85 -103 -105q-19 -6 -37 -7q-41 0 -79 32q-47 39 -52 113v15q0 70 40 175q23 56 51 94q59 84 99 104q24 12 63 12 q24 0 53 -5q75 -11 151 -11q14 1 41.5 2t42.5 2q167 13 373 13h39q159 0 231 -22q82 -25 107 -75q12 -28 12 -51q0 -13 -4 -25q-10 -32 -74 -137l-106 -174l-115 -182l-26 -45l-15 -25q-36 -61 -127 -212t-139 -234q-15 -24 -17.5 -43.5t4.5 -30t21 -12.5q29 -5 64 -5 q15 0 32 1q55 5 82.5 10.5t54 15.5t42.5 31.5t31.5 50.5t35.5 82q18 45 98 45q26 0 58 -16q68 -38 68 -147q0 -60 -21 -142q-14 -58 -51 -131q-43 -70 -73 -93t-79 -26h-4l-135 25q-96 14 -379 14h-74q-9 0 -26.5 -1t-26.5 -1q-307 -24 -350 -32q-4 -1 -8 -1q-23 0 -62 19 q-30 16 -48 48q-17 31 -17 67q-1 56 69 166z" />
<glyph unicode="[" horiz-adv-x="647" d="M70 -424v1956h508v-105h-234v-1738h234v-113h-508z" />
<glyph unicode="\" horiz-adv-x="1048" d="M71.5 1436.5q0.5 15.5 14.5 32.5t35 32t59 27.5t86 17.5l33 2q15 -5 36 -41.5t83 -184t168 -423.5q90 -216 178 -379l201 -385l2 -8q12 -37 12 -43q-2 -23 -26.5 -49.5t-71.5 -46.5q-43 -19 -88 -19l-21 -2l-10 2q-17 2 -27 9.5t-27 44t-37 96t-57 178.5q-17 58 -157 379 q-148 334 -228 463q-133 217 -155 270q-3 12 -2.5 27.5z" />
<glyph unicode="]" horiz-adv-x="647" d="M70 -279h233v1741h-233v105h508v-1958h-508v112z" />
<glyph unicode="^" horiz-adv-x="851" d="M70 1371.5q-2 16.5 6 31.5q2 4 10 12l303 262q22 20 36 20t36 -20l305 -260q15 -13 16.5 -33t-10.5 -30l-86 -80l-27 -25q-5 0 -26 13l-207 141l-199 -133q-28 -17 -36.5 -18t-22.5 12l-86 82q-10 9 -12 25.5z" />
<glyph unicode="_" horiz-adv-x="1263" d="M-70 -158h1264v-168h-1264v168z" />
<glyph unicode="`" horiz-adv-x="661" d="M69.5 1514q-2.5 19 14.5 38l147 146q21 20 29.5 19.5t30.5 -21.5l287 -285q32 -29 2 -55l-86 -86q-22 -20 -30.5 -20.5t-37.5 16.5l-334 215q-20 14 -22.5 33z" />
<glyph unicode="a" horiz-adv-x="1400" d="M70 313q5 119 93 208t257 126q34 10 76 10h54q100 0 130 -6q5 -1 13 5.5t15 22t7 34.5q0 31 -17 118l-12 52v4q-15 47 -52 63q-15 6 -30 6q-22 0 -45 -14q-45 -31 -82 -86q-49 -72 -91.5 -102t-98.5 -33h-9q-56 0 -94.5 36.5t-38.5 92.5v8q2 65 45 115.5t148 101.5 q93 49 237 66q97 11 175 11q3 0 6 1q74 0 134 -12q64 -12 111 -34t82.5 -59.5t58.5 -85t38 -113.5q14 -65 20 -141q5 -64 4 -144v-29q-1 -16 -2 -46t-2 -45q-1 -16 -1 -30q-1 -64 11 -88q14 -29 76 -64q36 -19 44 -68q2 -10 1 -20q0 -40 -24 -84q-30 -49 -103 -81t-190 -38 q-16 -1 -30 -1q-60 0 -99 14q-48 16 -88 59l-11 12l-16 23q-14 21 -23.5 20t-29.5 -26q-93 -103 -257 -103h-18q-247 6 -340 178q-32 66 -32 151v15zM543 373q-2 -15 -1 -29q0 -48 18 -80q24 -42 71 -49q8 -2 16 -1q18 0 35 9q25 14 27 29q0 18 2 50.5t2 47.5q1 98 -21 126 q-11 14 -33 14q-21 0 -53 -13q-51 -16 -63 -104z" />
<glyph unicode="b" horiz-adv-x="1619" d="M71 1278q-2 8 -2 18q0 36 33 80q47 58 217 123q120 43 244 57l21 3l65 4q17 1 32 1q45 0 65 -14q26 -18 26 -82v-79v-41l-4 -166l-2 -123v-51v-9v-22l33 29q9 7 33.5 26t31.5 24.5t27 20t27.5 19t24 14.5t26.5 13.5t25.5 9.5t29.5 9t31 5q47 6 86 6q147 0 247.5 -76 t139.5 -211q22 -67 22 -177q0 -37 -2 -79q-6 -73 -35 -159q-60 -189 -190 -304q-182 -159 -397 -176q-36 -3 -71.5 -3t-70.5 3q-99 12 -155.5 34.5t-177.5 96.5q-5 3 -11.5 8t-9 6t-6.5 3.5t-6.5 1t-5.5 -2t-8.5 -5.5t-10 -8.5t-14.5 -12.5t-19 -16q-4 -2 -11 -6.5t-11 -6.5 q-53 -34 -96 -34h-4q-34 0 -57 30q-17 23 -17 52q0 11 2 22l2 8l25 86q31 88 34 179q17 333 17 529q0 207 -19 260q-11 33 -38 27q-4 -1 -12 -4q-22 -7 -34 -4q-60 22 -70 64zM768 567q1 -179 5.5 -226.5t21.5 -90.5q16 -36 47 -36q35 0 88 44q33 32 55.5 99.5t22.5 160.5 q0 219 -113 283q-16 10 -33 10q-36 0 -71 -49q-19 -32 -19 -66l-4 -100v-29z" />
<glyph unicode="c" horiz-adv-x="1267" d="M70 551v20q0 94 26 172q70 209 277 328q114 63 268 78q46 3 87 3q133 0 224 -34q134 -50 202 -130q66 -77 65 -165v-8q-6 -163 -134 -219q-47 -20 -91 -20q-38 0 -74 15q-76 33 -119 126q-23 51 -35 86q-6 22 -32 32q-14 5 -32 5q-16 0 -36 -4q-37 -10 -66 -58 q-26 -34 -29 -88v-13q0 -49 21 -108q26 -79 76 -128.5t118 -63.5q32 -7 61 -7q22 0 42 4q47 9 151 52q6 4 39 4h5q50 0 82 -40q30 -38 30 -101v-15q-3 -89 -143 -190q-65 -49 -168 -82q-100 -34 -200 -34q-84 0 -169 24q-76 17 -129 51q-271 149 -311 442q-6 30 -6 66z" />
<glyph unicode="d" horiz-adv-x="1611" d="M70 516v64q7 197 88 319q73 113 156 168t223 80q38 6 76 6q95 0 196 -37q46 -15 61 -24q4 -2 11.5 -5.5t11.5 -5.5q3 -2 6 2t4 11q5 18 5 39q0 31 -11 69q-2 9 -5 21.5t-5 17t-3 11.5t-5 9.5t-6.5 6t-11 5.5t-14 4.5t-21 6.5t-27.5 8q-32 11 -47 43q-8 16 -8 32t8 32 q9 20 25 34t52 33q17 10 33 13l27 8l55 14l162 41q59 15 99.5 23.5t75.5 10.5q14 1 26 1q18 0 30 -2q21 -3 37 -17.5t23 -32.5q7 -19 9 -53q2 -22 2 -43v-26q-2 -35 -7 -92q-3 -39 -3 -171q0 -207 7 -644v-25l4 -80q3 -71 37 -98h2l37 -21q47 -24 57 -54q3 -8 2 -17 q0 -25 -18 -60q-16 -33 -99 -67l-88 -37q-127 -48 -247 -55h-2h-58q-60 0 -76 9t-24 44l-2 6l-4 35q-2 10 -6 26q-15 26 -23.5 23t-39.5 -37q-9 -10 -15 -16.5t-17 -18t-22 -22.5q-62 -62 -232 -62h-16q-24 0 -86 4q-78 6 -162 64q-59 43 -91.5 88.5t-92.5 167.5 q-44 83 -53 223zM631 580q-1 -27 -1 -50q0 -38 3 -65q7 -55 16.5 -83.5t26.5 -53.5q30 -42 72 -42q6 0 13 2q50 8 91 54q63 80 63 336q0 86 -34 190q-26 28 -61 28q-10 0 -22 -3q-48 -12 -96 -59q-30 -30 -47 -87t-24 -167z" />
<glyph unicode="e" horiz-adv-x="1310" d="M70 559q6 334 317 508q150 83 303 86q110 0 232 -51q128 -55 208 -152.5t101 -216.5q9 -61 9 -98q0 -22 -3 -35q-9 -35 -61 -68q-31 -20 -103 -32q-67 -12 -180 -12h-19q-126 1 -272 22q-6 4 -22 4q-20 -3 -27.5 -19t0.5 -44q6 -25 19 -46t44 -55q71 -80 179 -80 q110 0 260 82q17 10 26 17q9 6 45 -9q48 -20 66 -73q4 -14 4 -28q0 -34 -24 -71q-34 -52 -134 -118q-92 -61 -212 -87q-71 -15 -147 -15q-53 0 -108 7q-336 41 -458 351q-35 86 -41 174q-2 20 -2 59zM538 776q-1 -4 -1 -8q-1 -8 3 -16q4 -12 10 -16q8 -6 28 -8q17 -2 33 -2 h7q20 0 60 3l57 2h6q51 7 63 33q4 8 4 22q0 26 -15 70q-7 19 -31 51q-35 31 -79 31q-13 0 -27 -2q-60 -12 -97 -76q-12 -28 -14 -45q-5 -25 -7 -39z" />
<glyph unicode="f" horiz-adv-x="940" d="M55 809q12 53 28.5 71.5t63.5 30.5q23 6 28 15t-1 35q-8 25 -61 118q-19 36 -19 97q0 19 2 41q12 126 106 214.5t255 118.5q51 8 106 8q27 0 55 -2q168 -13 266 -83.5t111 -163.5q2 -15 2 -30q0 -75 -45 -125q-51 -58 -143 -58h-6q-57 2 -114.5 40.5t-127.5 131.5 q-13 19 -35 22q-8 1 -15 1q-32 0 -51 -21q-20 -20 -20 -54q0 -9 2 -20q10 -76 138 -154l57 -30l20 -13q33 -14 82 -69q4 -4 70 -4h20l37 -2q47 -3 64 -32q15 -23 15 -73q0 -11 -1 -24q-4 -72 -24.5 -96.5t-79.5 -30.5q-52 -3 -74 -3q-11 0 -14 1h-3q-20 0 -20 -58v-51v-14 q1 -118 15.5 -176.5t47 -87.5t105.5 -54q20 -3 33 -51q4 -15 4 -29q0 -40 -30 -73q-40 -44 -138 -66q-52 -14 -166 -22q-49 -5 -102 -5q-41 0 -84 3q-116 6 -162 16q-104 24 -138 73q-18 25 -18 54q0 26 15 55q10 20 25.5 32t66.5 42q13 9 22 31q21 57 27 180q1 45 1 78 q0 66 -5 84q-9 30 -43 34h-11q-19 0 -55 -2h-9q-51 0 -72 34q-12 20 -12 52q0 27 9 64z" />
<glyph unicode="g" horiz-adv-x="1409" d="M74 202q-5 21 -5 42q0 44 25 87q37 63 127 109q32 16 35 17l-35 35l-12 12l-53 51l-2 4q-19 24 -43 86q-19 51 -19 106q0 50 16 99q17 51 48.5 96.5t81.5 84t113.5 66.5t146.5 43q73 13 156 13h22q24 0 59 -7t97 -22.5t102 -23.5q12 -2 26 -2q34 0 76 12q50 12 94 45 q14 8 40 25.5t40 25.5q7 3 15 3q12 0 27 -6q27 -11 40 -36q21 -34 21 -76q0 -50 -29 -110q-15 -34 -59 -68q-12 -7 -29 -20q-6 0 -6 -19l10 -24q6 -18 6 -43q0 -37 -12 -90q-23 -93 -78.5 -154t-163.5 -110q-80 -35 -192 -47q-85 -9 -116 -9h-9l-115 9l-6 2q-30 7 -41 -37 q-5 -27 14 -50t62 -34q14 -8 52 -8q12 0 25 1q60 3 261 27q45 4 67 8q12 2 37 2q155 -3 229 -44t107 -138q13 -40 13 -86q0 -58 -21 -125q-47 -151 -257 -249q-175 -81 -435 -81q-53 0 -109 3q-137 8 -209 34q-86 36 -141 82q-93 85 -93 172q0 92 87 142q32 16 39 18 q-20 10 -41 31q-68 60 -86 126zM397 -55q8 -76 73 -116t202 -44q47 0 71 8q77 22 105 52q20 21 20 43q0 10 -4 20q-7 22 -26 33t-39 8l-6 -2l-121 -13q-18 -2 -46 -2q-60 0 -169 9q-20 0 -60 4zM537 793q6 -78 22 -125q29 -73 67 -95q19 -11 40 -11q24 0 51 13q36 18 49 71 q7 29 7 75q0 38 -5 88q-14 126 -96 154q-17 6 -33 6q-25 0 -48 -13q-38 -22 -48 -67q-7 -28 -7 -68q0 -13 1 -28z" />
<glyph unicode="h" horiz-adv-x="1640" d="M62 1374q22 54 112 90l53 21l35 12q157 53 246 64h6l80 4q12 1 23 1q54 0 71 -17q14 -13 14 -46q0 -17 -4 -39q-25 -127 -25 -240q0 -122 29 -229l5 -8l10 -22l33 30l18 19l37 37l16 20q36 40 110 63q63 20 136 20q13 0 25 -1q109 -6 194 -66q37 -26 59 -47t41.5 -57 t29 -73t17.5 -108.5t11.5 -148.5t7.5 -207v-94q0 -72 12.5 -96t63.5 -55q8 -4 20 -17q24 -16 24 -54q0 -7 -1 -14q-5 -49 -45 -83q-65 -53 -275 -53q-35 0 -141 4q-144 9 -210 66q-46 40 -46 86q0 19 8 38v2l41 47q25 26 31.5 62t11.5 161q2 43 2 80q0 52 -4 92 q-10 103 -66 147q-34 27 -70 27q-24 0 -48 -12q-38 -19 -52 -49t-16 -114v-21q0 -81 13 -217l10 -131l2 -2q8 -27 14.5 -37.5t32.5 -34.5q21 -21 21 -58q0 -9 -1 -18q-14 -118 -311 -118q-87 0 -207 12q-57 6 -110 26q-39 18 -62.5 49t-23.5 59.5t16 51.5q16 22 45 45 q13 13 21 17q38 27 41 252l8 395q0 21 -1 61t-1 60q-9 184 -21 192l-49 27q-20 10 -45 41q-30 35 -30 71q0 17 8 35z" />
<glyph unicode="i" horiz-adv-x="913" d="M72 918q3 41 40.5 68.5t149.5 66.5q47 20 131 41q95 24 154 32q42 6 64 9t47 1t35 -3.5t21 -16t13 -25.5t3 -42.5t-1 -56t-6 -77.5v-20l-4 -301q-2 -148 -2 -218q0 -46 1 -58q5 -50 29 -69q9 -7 31 -18q46 -25 58 -53q6 -13 7 -32q0 -20 -7 -46q-14 -50 -73.5 -78 t-187.5 -38q-37 -4 -114 -4l-62 4l-129 6q-62 4 -96 10q-73 10 -96 60q-9 18 -9 40q0 35 25 78q15 31 70 66q10 6 15.5 25.5t10.5 81.5t9 181q1 39 1 71q0 59 -4 95q-6 55 -21 82t-50 51q-54 31 -54 77q0 5 1 10zM74 1350q-1 10 -1 19q0 33 17 57q22 31 90 69q59 26 78 33 q49 20 107 26q56 9 103 9q31 0 58 -4q112 -13 158 -75q26 -36 26 -75q0 -29 -14 -59q-41 -87 -237 -133q-84 -18 -150 -18q-73 -1 -125 21q-100 42 -110 130z" />
<glyph unicode="j" horiz-adv-x="913" d="M51 -240q4 18 8 23q4 8 6.5 11t5.5 6.5t11 5t15 3t26.5 4.5t38.5 7q24 4 39 14q27 15 38 36t5 42l-2 2l-17 27q-15 26 -19 77q-1 23 -1 74q0 59 2 154q1 11 2 34t2 35q13 173 13 264q0 37 -2 61q-8 80 -44 126q-9 13 -22 22l-9 7l-34 18q-34 22 -41 63q-1 8 -1 17 q0 31 21 57q35 44 148 94q95 48 266 70q63 7 98 10q10 1 21 1q22 0 43 -5q30 -6 41.5 -16t18.5 -39q8 -27 8 -57q0 -27 -5 -95q-1 -20 -1 -132q0 -224 3 -814q0 -171 -65.5 -256t-223.5 -114q-67 -12 -123 -12q-89 0 -151 30q-120 64 -120 131q0 7 1 14zM78 1339q-1 5 -1 11 q0 45 39 84q42 44 150 82q61 21 107 26q52 8 98 8q32 0 61 -4q113 -14 158 -76q27 -35 27 -74q0 -29 -15 -59q-41 -87 -237 -133q-89 -17 -154 -17q-33 0 -60 5q-81 12 -122 55q-47 45 -51 92z" />
<glyph unicode="k" horiz-adv-x="1757" d="M78 1342q18 32 84 71l82 47l8 4q6 3 61 25q90 31 140.5 48t104 26.5t77.5 11.5h5q22 0 46 -16q26 -18 33.5 -36.5t15.5 -69t9 -94t1 -130.5q0 -72 -4 -111q-3 -60 -3 -114q0 -81 7 -148q6 -36 40.5 -36t97.5 36q10 5 28 15q61 32 66 41q4 9 -17 27q-2 1 -5 4q-6 4 -9 7 q-1 1 -2.5 0t-3 -1t-4.5 3.5t-6 12.5l-6 16l-2 6q-3 24 2 43q11 35 48 52t144 34q52 6 96 6h21q181 -3 266 -49q43 -27 51 -70q2 -9 2 -17q0 -31 -24 -52q-13 -14 -26.5 -18t-88.5 -17q-1 0 -4 0.5t-8 0.5t-13 -2t-23 -9.5t-34 -20.5q-15 -9 -33 -18q-56 -41 -66 -59 q-6 -10 -6 -23q0 -25 22 -61q21 -33 153 -204q13 -16 24 -30q94 -122 132 -165.5t65.5 -63.5t77.5 -39q20 -6 41 -49q12 -24 12 -46q0 -26 -15 -48q-28 -44 -100 -60q-16 -4 -30 -4l-6 -2l-263 -4q-45 -1 -77 -1q-66 0 -84 4q-29 7 -61 41q-5 6 -17 19l-58 80l-12 15 l-102 131l-19 22l-84 109q-2 3 -7 9t-7 9q-6 7 -15.5 6t-15.5 -10q-8 -12 -8 -45q0 -15 2 -33l6 -74q15 -67 86 -120q13 -10 8 -58q-6 -41 -40.5 -63t-128.5 -39q-28 -4 -43 -4l-50 -6l-51 -2q-47 -3 -92 -3q-75 0 -145 9q-119 18 -167 58q-36 30 -36 67q0 12 4 26 q7 22 21 34.5t55 35.5q27 12 37.5 49.5t13.5 136.5l4 129l2 80q0 149 -2 225q-1 28 -2 79q-5 224 -20.5 265t-100.5 58q-35 6 -53 43q-10 19 -10 36q-1 16 8 32z" />
<glyph unicode="l" horiz-adv-x="983" d="M74 1278q-4 13 -4 27q0 31 20 67q27 47 113 89t266 83q37 9 78 12l102 9q29 2 47 2t34.5 -2t25 -9.5t15.5 -17.5t9.5 -29t3 -40.5t0.5 -55.5l-2 -59l-8 -346q-2 -30 -1.5 -70.5t1.5 -91.5l8 -254l4 -139l5 -72v-12l8 -76q5 -43 22.5 -64.5t73.5 -50.5q11 -5 17 -22 q2 -7 3 -16q-1 -12 -5 -28q-8 -26 -31 -51q-30 -33 -91 -53q-89 -28 -288 -28h-39q-9 1 -27.5 2t-27.5 2h-7l-100 16q-70 10 -101.5 21.5t-50.5 31.5q-39 34 -39 82t33 66q31 18 64 30q17 8 26.5 41t17.5 135.5t13 297.5q2 73 2.5 118t0.5 95t-1 77.5t-5 59.5t-8.5 47 t-13.5 34.5t-17.5 27.5t-24 19.5t-30.5 18t-38 15.5q-38 15 -53 61z" />
<glyph unicode="m" horiz-adv-x="2334" d="M69 121.5q0 49.5 35 77.5q8 5 25 15t25 15q21 12 30 78t9 250q0 149 -9 189.5t-53 84.5q-54 51 -57 68q-3 11 -3 23q0 35 29 71q43 46 209 97q91 26 149 40q58 15 106 20q24 2 42 2t31 -2q25 -5 43.5 -24.5t25.5 -46t11 -71.5l2 -9l2 -18l4 -27h2q2 -2 5 0.5t8 7.5t10 7 l24 30l39 33q68 56 109.5 77.5t91.5 31.5q44 12 104 12h9q154 0 245 -102l31 -31l2 -2l29 -41q3 -3 10 -4t21 8.5t28 28.5q59 73 135.5 106.5t183.5 36.5h14l124 -23q118 -42 166 -134q45 -86 45 -250v-21l-2 -236q-3 -77 -4 -109v-19q-1 -24 1 -54q2 -41 6 -51.5 t18.5 -28.5t28.5 -23.5t44 -17.5q7 -4 12 -43v-13q1 -49 -27 -80q-32 -36 -117 -54q-77 -17 -205 -16h-28q-91 4 -110 8q-152 26 -190 62q-19 18 -19 48q0 29 18 68q34 70 43 132q8 56 8 196v32q-3 137 -26 205q-12 44 -46 59q-14 6 -28 6q-21 0 -43 -12q-41 -22 -55 -69 q-13 -44 -13 -152v-16l5 -119l2 -76q3 -62 8.5 -74t56.5 -67q17 -19 17 -54q0 -19 -5 -44q-11 -48 -53.5 -75t-150.5 -48q-62 -11 -132 -11q-56 0 -118 7l-31 4l-59 8q-35 6 -84 22q-57 22 -66 72q-1 8 -1 17q0 44 40 96q16 24 43 51q15 15 15 201q0 42 -1 92 q-1 104 -12 143.5t-43 71.5q-27 24 -56 24q-6 0 -12 -1q-36 -6 -53 -42q-20 -48 -20 -182q0 -38 2 -82l4 -123v-43q3 -55 7 -68t34 -63q13 -19 13 -47q0 -18 -5 -39q-16 -56 -79 -83t-206 -33q-26 -2 -51 -2l-51 2l-53 2l-62 4q-114 5 -164 49q-37 35 -37 84.5z" />
<glyph unicode="n" horiz-adv-x="1683" d="M70 934q11 57 80 84l100 43l4 4q99 37 199 63h2l127 23q27 4 48 4q48 0 70 -18q34 -26 33 -93v-8l-2 -49q0 -14 2 -22q2 -4 8 -1.5t15 7.5q7 2 20 18l4 6l25 35q24 35 55 60q82 63 207 63q24 0 94 -8q119 -19 178.5 -56t104.5 -122q29 -50 37.5 -125t11.5 -295l4 -164 v-35q0 -63 7 -81t44 -50q5 -4 11.5 -10.5t14 -14.5t11.5 -12q30 -29 30 -66q1 -8 -1 -16q-8 -48 -53 -71q-31 -16 -95 -27l-84 -14l-20 -2q-47 -4 -101.5 -4t-115.5 4q-112 7 -141 16q-68 18 -100 48q-27 26 -28 59q0 5 1 10q3 31 15 50.5t52 61.5q17 20 19 103l2 14l4 92 q2 44 2 82q-1 84 -11 134q-16 74 -53 106q-33 26 -68 26q-9 0 -19 -2q-46 -8 -64 -51q-10 -21 -14 -55q-3 -27 -4 -86q0 -17 1 -37v-63q1 -178 10 -214q6 -28 37 -75q6 -8 9 -13q15 -21 18 -57v-7q-1 -56 -49 -88q-52 -34 -191 -52q-24 -4 -36 -4q-20 -2 -109 -2 q-82 0 -111 4q-106 19 -141.5 29.5t-52.5 29.5q-38 37 -38 71q0 47 73 87q40 17 51 84l2 4l10 233q2 56 3 86v31.5v34.5q-1 36 -3 52t-9 36.5t-15 28t-23.5 18.5t-32 16t-43.5 13q-6 0 -20 39q-9 30 -9 48q0 5 1 9z" />
<glyph unicode="o" horiz-adv-x="1462" d="M74 471q-3 31 -3 62q0 61 13 120q15 85 61 164q56 104 158 184q63 46 125 75.5t152 51.5q80 18 106 21q42 3 81 3q107 0 189 -24q167 -44 275 -147q153 -150 162 -360v-21q0 -114 -60 -254q-74 -160 -227 -262q-113 -76 -281 -104q-63 -12 -115 -12q-11 0 -22 1 q-122 4 -211 35.5t-186 104.5q-51 42 -80 75q-65 77 -96.5 143.5t-40.5 143.5zM600 739q-3 -20 -2 -43q0 -60 16 -147q3 -22 21 -96q33 -109 53.5 -149.5t50.5 -59.5q19 -12 39 -12q18 0 38 11q40 22 48 76q4 37 4 65q0 20 -2 34l-6 45l-6 57q-19 128 -41 191 q-25 69 -42 98.5t-42 44.5q-20 12 -41 12q-12 0 -25 -4q-35 -11 -45 -43q-15 -38 -18 -80z" />
<glyph unicode="p" horiz-adv-x="1591" d="M74 825q-3 11 -3 22q0 36 31 79q37 44 195 116q5 2 15.5 6.5t15.5 6.5l6 2l149 45q53 15 105 24q45 9 74 9q33 0 48 -11q21 -14 21 -57q0 -13 -2 -29q0 -3 -1 -10t-1 -10q3 -39 8 -47q1 -2 3 0t4.5 7t5 9t4.5 8.5t2 5.5q5 6 12 16t8 11l2 4l23 27q52 57 111 76 q57 18 179 18h13q87 -2 174 -54t154 -151q91 -130 91 -332q0 -60 -8 -127q-16 -128 -69 -227q-45 -89 -109.5 -155t-136.5 -99q-91 -39 -178 -39q-68 0 -135 27q-36 13 -72 33q-5 3 -17 -2.5t-18 -3.5q-8 3 -17.5 -2t-15.5 -15q-7 -20 -7 -43q0 -32 14 -69l16 -46v-2 q2 -6 7.5 -15t6.5 -11q10 -15 22.5 -24.5t45.5 -26.5q4 -3 20 -19q13 -22 13 -46q0 -33 -25 -71q-21 -30 -63 -45t-121 -16h-22q-38 0 -105 4q-59 6 -123 21q-165 38 -234 81q-67 38 -88 78q-13 22 -13 45q0 17 7 33q15 41 58 60q10 4 39 14q45 11 55 180q2 14 2 45 q0 101 1 253v79q0 163 -7 202q-8 47 -40 68q-11 8 -41 22q-8 5 -13 7q-66 31 -76 61zM729 528q-2 -35 -2 -73q0 -52 4 -109q8 -84 83 -84q25 0 58 10q72 23 102 86q26 53 26 153q0 20 -1 42q-4 81 -33 147t-69 95q-29 23 -56 23q-15 0 -29 -7q-40 -19 -56 -72 q-13 -36 -18 -72t-9 -139z" />
<glyph unicode="q" horiz-adv-x="1589" d="M72 602q15 174 116 299q151 192 379 236q69 16 148 16q35 0 82.5 -7t119.5 -19.5t127 -20.5q6 -1 34.5 -6t38 -4.5t42.5 2.5q26 2 113 26q32 9 57 9q41 0 65 -23q34 -33 34 -106q0 -11 -1 -23l-2 -23l-8 -84l-6 -110l-4 -66l-6 -129q-1 -19 -6 -340v-65q0 -125 6 -205 l2 -12l8 -51q7 -42 16 -55.5t56 -53.5q9 -7 20 -25q17 -23 17 -55q0 -64 -27 -88t-127 -47q-41 -13 -129 -13q-74 0 -180 9q-36 2 -94 14q-91 20 -130 35.5t-59 38.5q-40 42 -48.5 73.5t10 59t67.5 64.5q38 25 51 63v2l4 64l4 34q-6 17 -19 23t-36 -8q-1 -1 -39 -33 q-21 -19 -61.5 -24t-163.5 -5q-205 0 -353 189q-95 126 -116 303q-5 38 -5 78q0 31 3 63zM631 588q1 -129 36 -211t91 -113q18 -9 34 -9q18 0 34 10q32 20 38 71l10 90q7 98 7 172q0 165 -35 217q-27 42 -67 51q-10 2 -19 2q-29 0 -53 -20q-25 -19 -52 -72q-24 -63 -24 -188 z" />
<glyph unicode="r" horiz-adv-x="1245" d="M70 928q2 49 48 86t169 78q72 24 145 36q167 26 204 26h3q41 -2 55 -32q8 -15 19 -71l4 -25l2 -14q5 -18 8 -25q1 -7 9 -10t14 2q6 4 22 45q7 18 14 27q67 107 189 107q25 0 53 -5q33 -5 84 -31q87 -43 122 -113q25 -50 25 -118q0 -27 -4 -57q-9 -88 -47 -138 q-72 -98 -174 -102h-8q-96 0 -174 86q-18 22 -23 31q-14 17 -32 45q-7 10 -22.5 7.5t-29.5 -18.5q-16 -19 -19 -81q-1 -17 -1 -47q0 -81 6 -255q0 -36 21 -63q15 -28 34 -41.5t76 -36.5q35 -14 47 -78q1 -10 1 -18q0 -39 -28 -66q-36 -32 -137 -59q-67 -20 -223 -20 q-48 0 -104 2q-72 3 -105 10q-109 18 -146.5 34t-55.5 48q-19 39 -19 68q0 8 2 16q8 32 45 61q58 45 68 80q4 11 7 20t5 15.5t2 7.5q3 162 3 263q0 145 -6 165q-4 11 -15 10q-9 -2 -15 2l-2 2l-34 21q-3 2 -9.5 6t-9.5 6q-63 50 -63 106v5z" />
<glyph unicode="s" horiz-adv-x="1163" d="M70 268v31q6 69 45 95q21 13 48 14q25 0 56 -11q36 -13 94 -80q40 -50 86 -75q50 -25 79.5 -30t45.5 5q20 12 25.5 34t-6.5 44q-11 19 -47 41q-42 21 -162 74q-50 22 -125 90q-28 28 -49 55q-69 97 -69 208q0 113 71 214q53 76 143.5 123t202.5 53h8q58 0 174 -25 q16 -6 35 0h2l37 17q8 4 16 4q35 9 64 9q36 0 63 -14q49 -26 109 -124q27 -44 35 -80q5 -20 5 -44q0 -18 -3 -38q-8 -70 -59 -94q-21 -10 -48 -10q-39 0 -90 20q-37 14 -98 80q-40 40 -70 51t-61 2q-28 -10 -37.5 -32t4.5 -39q31 -45 68.5 -67t230.5 -112q37 -16 94 -73 q108 -106 107 -230q0 -90 -56 -188q-44 -76 -122 -126t-181 -65q-29 -5 -71 -5q-64 0 -156 12q-73 9 -104 10h-11q-31 0 -90 -4q-11 0 -39 -4h-7q-57 0 -128 116q-12 13 -31 52q-25 59 -28 116z" />
<glyph unicode="t" horiz-adv-x="1124" d="M51 1004q1 18 12.5 31t49.5 42q73 45 243 135q3 2 10 7.5t41.5 32.5t86.5 67q62 46 98 51q36 8 63 8q41 0 63 -18q33 -29 32 -115v-10l-7 -102v-9q-1 -10 0 -15.5t8.5 -8t13.5 -2.5h26h6q17 0 77 -2q54 -3 91 -3q22 0 39 1h4q38 0 61 -60q8 -19 8 -44q0 -13 -2 -27 q-13 -65 -44.5 -80t-149.5 -17h-72h-16h-4q-32 1 -38 -8q-6 -8 -6 -53q0 -20 1 -47q1 -5 1 -15q2 -38 3 -61q2 -57 2 -114.5t-2 -116.5v-5l10 -61q12 -69 62 -82q10 -3 22 -2q48 0 127 41q13 8 26 8q28 0 56 -35q24 -24 24 -98q0 -73 -151 -170q-98 -67 -240 -76 q-30 -2 -57 -2q-253 0 -342 189q-33 64 -41 158q-6 70 -7 245q0 62 1 137q0 56 8 174l-82 5h-8h-15q-68 -1 -84 17q-12 13 -12 55q0 23 4 55z" />
<glyph unicode="u" horiz-adv-x="1685" d="M74 991q6 30 34.5 48.5t106.5 39.5q46 14 199 31q68 8 106.5 12t79 5.5t59 0.5t37.5 -9t24.5 -16.5t10 -28.5t4 -38.5t-3.5 -52.5q-11 -122 -11 -358q0 -54 1 -115v-33l2 -59q3 -89 53 -129q30 -25 68 -25q24 0 51 10q42 15 63.5 52t29.5 123q4 46 4 112q0 58 -3 131 l-2 53l-6 39q-3 46 -22 74.5t-74 67.5q-15 10 -20 30t3 50q8 31 68 69q71 37 250 47l92 4l68 4q24 0 38 -2q72 -4 91 -30q15 -20 15 -75q0 -15 -1 -32v-14l-2 -86v-27v-166q0 -198 -4 -235q-4 -78 -4 -113q1 -11 1 -17q2 -29 11 -40l4 -2l64 -35q44 -22 56 -58q4 -12 4 -24 q0 -24 -17 -47q-17 -28 -45.5 -47t-92.5 -45q-7 -2 -20.5 -6t-20.5 -6l-37 -11l-63 -16q-32 -8 -92 -16q-92 -7 -141 -7q-22 -1 -35 1q-43 4 -56 24l-4 63q-4 44 -21 62t-38 8l-37 -35q-16 -19 -63 -47q-109 -72 -209 -78q-26 -1 -50 -1q-89 0 -149 20q-77 26 -126.5 99.5 t-69 193t-19.5 309.5q0 62 4 194q2 3 -4 23q-8 21 -18 33q-23 29 -80 51q-20 7 -37 51q-5 14 -5 31q0 8 1 16z" />
<glyph unicode="v" horiz-adv-x="1449" d="M-4 999q8 65 112 97q87 27 282 27q37 0 77 -1q16 -1 50 -2t50 -2l29 -2l84 -8q116 -14 119 -100v-10q-1 -28 -15 -52q-18 -28 -65 -61q-3 -2 -3 -10q0 -16 11 -56l4 -6l39 -86q5 -13 19 -41t20 -45q4 -10 17 -13t22 3q17 10 53 65q20 22 33 56l6 14l27 63q12 29 12 49 q0 10 -3 18q-8 24 -50 60q-19 15 -20.5 42.5t16.5 52.5q20 28 67 43.5t158 25.5q31 2 76 2q92 -1 129.5 -7t62.5 -21q37 -24 39 -66q0 -3 1 -6q0 -38 -30 -64q-25 -18 -53 -30q-39 -17 -54.5 -26.5t-39 -35.5t-42.5 -64.5t-54 -114t-83 -183.5q-35 -79 -55 -125 q-25 -61 -124 -236l-23 -41l-27 -43q-54 -93 -132 -99h-11q-71 0 -123 73q-42 57 -143 239q-18 31 -49 92t-35 68t-53 98q-127 240 -152.5 281.5t-48.5 44.5q-14 2 -25 6q-45 19 -67 47q-35 40 -35 81v9z" />
<glyph unicode="w" horiz-adv-x="2283" d="M2 1010q13 40 55.5 64.5t135.5 35.5q58 7 122 10q28 2 68.5 2t93.5 -2q141 -9 191.5 -19.5t76.5 -33.5q44 -41 44 -81q0 -32 -29 -62q-9 -9 -9 -26q0 -32 33 -93l13 -23l32 -51l43 -72l2 -2q9 -8 23 -4.5t29 14.5t33 40t34 71q3 7 3 16q0 22 -20 50q-28 38 -99 80 q-22 9 -21 50t33 70q51 47 205 62l110 12h21q27 3 58 3q19 0 40 -1q297 -11 297 -129q0 -19 -6 -29t-43 -53q-23 -34 -23 -75q0 -11 2 -23l41 -78q1 -3 47 -80q7 -14 30 -8t46 35q32 43 55 88q33 54 41.5 72t8.5 33.5t-13 39.5l-4 7l-24 32q-13 13 -21 45q-2 10 -2 19 q0 28 21 50q28 29 96 42q77 14 196 14q4 0 41 -2t74 -6q71 -6 95 -48q11 -19 11 -41q0 -26 -16 -56q-7 -17 -25 -27t-63 -24q-46 -15 -62.5 -31t-45.5 -72l-142 -291l-30 -63l-115 -230q-118 -236 -191 -266q-27 -13 -51 -13q-14 0 -28 5q-36 14 -74 68l-57 81l-29 39 q-16 26 -35 56t-28 43.5t-17.5 28.5t-13.5 26q-54 107 -74 140.5t-35 43.5q-27 17 -49 -14q-43 -87 -51 -107q-8 -24 -51 -108q-5 -13 -18.5 -37t-18.5 -35q-63 -117 -113 -172q-50 -54 -92 -56q-2 0 -4 -1q-41 0 -82 39q-28 25 -123 186l-207 352q-113 211 -140 250 q-32 44 -77 68q-12 6 -33 16q-66 32 -88 65q-13 20 -14 45q0 17 6 36z" />
<glyph unicode="x" horiz-adv-x="1419" d="M5 112q19 32 73 48q59 15 77.5 33t63.5 104q53 94 84 133q3 5 10 14q69 96 80 128q4 14 4 27q0 33 -25 69q-25 32 -128 131q-10 9 -21.5 20.5t-16 16.5t-13 12.5t-10 9.5t-10 6t-9.5 4.5t-11.5 3t-14 3t-19 3t-23.5 3.5q-38 7 -61 51q-9 18 -9 37q0 25 17 50 q29 43 107 68q94 30 372 35h105l24 -2l68 -4q145 -11 145 -101q0 -35 -22 -83q-8 -17 -13 -23q-2 -3 -2 -7q0 -16 27 -56l23 -39l12 -19q14 -20 21 -19t24 24q32 43 40 75q3 12 3 26q0 24 -8 56q-12 46 -13 71t14 45.5t46 30.5t90 21q29 5 61 5q13 0 27 -1q55 0 109 -8 q68 -16 94 -48q16 -20 16 -41q0 -13 -6 -26q-13 -31 -30 -44.5t-85 -53.5q-35 -21 -108 -123q-51 -76 -88 -139q-34 -57 -47 -70q-3 -3 -2 -9t10.5 -21.5t29.5 -44.5l76 -105l19 -27l16 -24l41 -51q32 -44 55 -60.5t80 -38.5q38 -9 47 -57q2 -9 2 -18q0 -34 -28 -61 q-35 -33 -131 -58q-92 -25 -272 -25h-40q-186 1 -252 11.5t-100 39.5q-31 25 -31 63q0 5 1 11q5 46 48 70q3 1 8.5 4t8.5 4q19 10 19 42q0 8 -1 17v2l-39 70q-26 48 -32 68q0 5 -9 10q-13 5 -27.5 -2t-36 -37t-44.5 -84q-19 -50 -19 -69q0 -17 33 -72q9 -14 9 -32 q0 -21 -14 -47q-26 -46 -77 -56q-46 -10 -110 -13h-82q-97 1 -140.5 19t-58.5 53q-10 20 -10 38q0 17 9 33z" />
<glyph unicode="y" horiz-adv-x="1439" d="M-4 936v6q0 40 37 86q22 26 68 43t149 37q65 14 181 14q39 0 83 -2l16 -2l78 -4q29 -2 88 -10q74 -14 104 -75q12 -27 12 -55q0 -36 -21 -75q-5 -10 -23 -37q-4 -7 -4 -19q0 -19 12 -52l2 -7l33 -75q7 -20 18 -37q32 -68 48 -84t36 18q32 69 45 131q2 12 7 32q8 41 8 61 q0 9 -1 14q-5 15 -37 57q-7 9 -11 14q-30 37 -30 74q0 19 8 37q21 56 97 78q37 11 82 14q53 4 138 4h13q76 0 115 -11q42 -12 74 -44q8 -13 15 -31q9 -24 9 -47q0 -32 -18 -59h-2l-98 -60q-35 -20 -55 -39.5t-44 -59t-52 -118t-67.5 -196t-102.5 -313.5q-23 -71 -35 -109 q-5 -22 -19 -49q-27 -66 -53 -109q-57 -94 -106 -148t-109 -89q-90 -50 -186 -62q-43 -6 -83 -6q-56 0 -107 11q-88 19 -146 61t-89 100q-27 50 -27 102q0 9 1 17q9 98 45.5 142t122.5 63q26 5 49 5q148 0 203 -206q3 -8 8 -35q0 -12 10 -22q9 -9 21 -10t18 7q30 26 35 89 q1 8 1 16q0 22 -6 48q-9 35 -40 108l-166 331q-166 339 -180 363q-27 48 -51 63q-6 3 -21 11l-55 26l-10 2q-32 11 -35 72z" />
<glyph unicode="z" horiz-adv-x="1224" d="M25 848q3 26 32 98q22 59 41.5 95t40.5 60q21 23 49 31q22 6 47 6h13q32 -2 80 -14q123 -26 285 -26h34q91 0 217 14q77 10 150 10q31 0 61 -2q61 -2 81 -46q8 -17 8 -38q0 -33 -19 -78l-39 -79l-6 -13l-45 -84l-170 -315l-43 -82l-43 -80l-13 -24q-5 -18 9 -29.5 t45 -11.5q65 0 107.5 32t88.5 121q13 23 35 31q24 13 47 13q47 0 90 -56q31 -38 31 -96q0 -79 -59 -195q-30 -57 -59 -85t-64 -36q-34 -12 -54 -12h-5q-20 2 -210 35q-65 11 -170.5 11t-252.5 -11l-146 -10l-29 -2h-20q-78 5 -102 42q-10 16 -11 37q0 29 19 68l37 76l4 8 q139 242 350 567q24 38 21 56t-33 26q-26 6 -49 6q-96 0 -142 -102q-15 -37 -26 -55q-25 -47 -82 -47h-1q-58 0 -104 55q-29 29 -29 90q0 19 3 41z" />
<glyph unicode="{" horiz-adv-x="1105" d="M70 408v124q213 35 294.5 112.5t81.5 234.5v262q0 90 33.5 165.5t102.5 134.5t185 92.5t269 33.5v-111q-55 -6 -103 -19t-94.5 -37.5t-79.5 -59t-53 -86.5t-20 -115v-269q0 -49 -9 -91t-22.5 -74.5t-38.5 -60.5t-48.5 -48t-60.5 -38t-66.5 -29.5t-75.5 -23.5t-77.5 -19 t-82.5 -17q236 -29 357.5 -121t121.5 -266v-254q0 -71 14 -123t51 -98.5t108 -78t179 -48.5v-103q-306 0 -448 114t-142 337v278q0 136 -92 204.5t-284 97.5z" />
<glyph unicode="|" horiz-adv-x="307" d="M70 -326v1893h168v-1893h-168z" />
<glyph unicode="}" horiz-adv-x="1105" d="M70 -520q108 17 179 48.5t108 78t51 98.5t14 123v254q0 174 121.5 266t357.5 121q-51 10 -82.5 17t-77.5 19t-75.5 23.5t-66.5 29.5t-60.5 38t-48.5 48t-38.5 60.5t-22.5 74.5t-9 91v269q0 63 -20 115t-53 86.5t-79.5 59t-94.5 37.5t-103 19v111q153 0 269 -33.5 t184.5 -93t102 -134.5t33.5 -165v-262q0 -156 82.5 -234t294.5 -113v-124q-192 -29 -284.5 -97.5t-92.5 -204.5v-278q0 -223 -141.5 -337t-447.5 -114v103z" />
<glyph unicode="~" horiz-adv-x="962" d="M70 1255l77 275q2 6 16 9.5t75 12.5q155 20 307 -10l12 -2l84 -20q73 -17 116.5 -17t92.5 19l45 24l-80 -276q-4 -16 -72 -21q-22 -3 -59 0q-11 0 -31 4h-2l-86 23q-102 26 -160 31t-139 -4q-72 -10 -127 -25z" />
<glyph unicode="&#xa1;" horiz-adv-x="673" d="M70 -106q0 65 22 180q13 58 29 104q22 71 55 144l6 12l41 69q20 36 37 58q23 29 55 33t67.5 -21t63.5 -76l50 -86l2 -6q74 -142 98 -291q32 -236 -65.5 -353t-262.5 -83q-86 15 -133.5 77.5t-62.5 184.5q0 9 -1 27t-1 27zM78 877q-6 104 56 179.5t171 94.5q45 7 84 -2 q80 -15 128.5 -58t74.5 -122q13 -50 10 -99q-15 -178 -194 -231q-117 -28 -205 29q-116 72 -125 209z" />
<glyph unicode="&#xa2;" horiz-adv-x="1310" d="M80 446q-30 183 31 330q44 104 106 169t174 126q43 24 105 39q-9 22 -9 35q-7 62 16 86t99 33q65 9 78 6l33 -13q35 -12 41 -20t8 -45l2 -37v-6q36 6 62.5 2.5t88.5 -23.5q87 -28 129 -45q99 -43 151 -127t45.5 -171t-66.5 -146q-60 -57 -132.5 -68t-133.5 25.5 t-91 110.5q-9 20 -20 57q-12 24 -23 33q-38 41 -90.5 31.5t-85.5 -68.5q-18 -31 -21 -76t13 -99.5t51 -103.5q111 -168 328 -98q9 1 41 12q23 12 65 25q47 15 92.5 -22.5t46.5 -96.5q3 -140 -200 -252q-77 -45 -170 -67v-35l-3 -42t-8.5 -28t-13.5 -19.5t-26 -12t-38 -9.5 t-57 -8q-42 -5 -64 -5.5t-40.5 3t-27 17.5t-13.5 34t-8 57v39q-27 9 -41 15q-103 40 -161.5 75.5t-113.5 92.5q-126 135 -149 290z" />
<glyph unicode="&#xa3;" horiz-adv-x="1802" d="M70.5 211q4.5 65 50.5 115q47 47 78 65q90 57 157 68q26 5 68 12q89 15 100 24.5t-12 51.5q-11 22 -18 35q-2 5 -7 15q-24 53 -37 62q-14 11 -69 12h-1h-1h-1h-2q-21 1 -34 1q-31 0 -47 -4q-46 -5 -107 -2q-68 6 -95.5 48.5t-4.5 110.5q15 47 38 58.5t97 13.5l99 4 q-19 55 -21 66q-80 302 219 473q142 84 387 106q191 17 318 -12q109 -25 190 -63.5t127.5 -82.5t67.5 -94t15.5 -100t-34.5 -98q-21 -36 -45 -54q-36 -31 -76 -41.5t-69 -1.5t-43 31q-2 3 -12 22.5t-15 30.5q-15 28 -69.5 44t-128.5 3q-75 -13 -109.5 -41t-60.5 -94 q-23 -60 -4 -85t85 -25q36 0 66 6q108 22 166.5 -7.5t58.5 -88.5q0 -64 -14 -91t-53 -36.5t-129 -8.5q-7 0 -47 5h-1h-1l-1 1h-1h-1h-1h-1q-60 10 -72 3q-13 -9 -17 -61q-1 -8 -2 -24q0 -14 -1 -22l-12 -67q-4 -32 -0.5 -37.5t35.5 -14.5l92 -28l39 -11q56 -13 100 -16 q180 -15 285 68q29 22 59 47q19 23 68 0q80 -29 74 -172q0 -94 -91 -195q-28 -33 -73 -57.5t-150 -63.5q-134 -46 -245 -49q-108 -4 -177 11.5t-221 78.5q-28 11 -38.5 15t-32 -2t-33.5 -13.5t-56 -36.5q-81 -46 -245 -43q-102 3 -164 29q-68 28 -104.5 85t-32 122z M250.5 166.5q15.5 -35.5 54.5 -45.5q45 -13 105 14q40 11 79 47q14 11 35 37q-7 4 -20.5 12.5t-20.5 12.5q-168 93 -229 -8q-19 -34 -3.5 -69.5z" />
<glyph unicode="&#xa5;" horiz-adv-x="1800" d="M-2 1411q-9 47 18.5 80.5t89.5 48.5l72 14l15 2q82 11 208 11q201 3 292 -4.5t165 -32.5q70 -22 89 -76t-21 -108q-16 -19 -25 -27q-19 -15 39 -111l18 -28l35 -56q15 -23 27 -24.5t31 20.5q89 106 102 130q18 33 -1 61q-8 11 -44 49q-23 23 -16 74q6 47 49 77t139 48 q44 8 139 14q51 3 101 0q147 -4 201.5 -28.5t60.5 -82.5q4 -54 -17.5 -88.5t-64.5 -46.5l-8 -2l-45 -8q-54 -9 -92 -39t-117 -123l-82 -100l-25 -29q-73 -87 -117 -127q-33 -33 -43 -141l-2 -27v-14h332q22 0 39.5 -17t18.5 -41q1 -26 -16.5 -43.5t-41.5 -17.5h-330l3 -61 h327l60 -66l-62 -57h-315q-9 -121 133 -183q26 -12 35.5 -40.5t-2.5 -67t-45 -72.5q-27 -26 -82 -39.5t-185 -25.5q-82 -9 -178 -6q-205 6 -330 43q-91 29 -119.5 63.5t-9.5 89.5q12 36 27.5 48.5t79.5 39.5q8 2 33 21q30 25 41.5 58.5t1.5 68.5h-324q-23 0 -39 16t-18 39 q-3 28 15 49.5t44 20.5h322v10l-2 14v19l2 18h-322q-26 0 -43 14q-20 15 -21.5 41t17.5 45q21 21 49 21h318l-2 14l-2 25q-8 45 -31 90l-64 80q-16 20 -46 58q-54 68 -76.5 97t-58.5 71.5t-47.5 55.5t-37.5 36t-35 27.5t-33.5 16t-40 15.5t-47.5 12q-49 14 -63 94z" />
<glyph unicode="&#xa7;" horiz-adv-x="1519" d="M81.5 500q-30.5 117 15 226.5t155.5 176.5q57 36 96 49q-33 23 -59 60q-49 64 -57.5 138.5t21.5 144t104.5 130t183.5 93.5q107 31 235 34q114 0 199 -18q176 -28 291 -94q60 -33 73 -49l2 -5l7 -22q17 -55 -6 -85.5t-117 -74.5q-16 -7 -47 -16q-85 -17 -112 1t-44 103 q0 11 -4 27q0 10 -37 51q-47 58 -114.5 71.5t-143.5 -24.5q-54 -31 -62.5 -84t33.5 -94q39 -42 150 -100l18 -11l215 -96q100 -47 153.5 -81t90.5 -74q116 -127 128.5 -257t-73.5 -247q-59 -93 -166 -135q37 -19 60 -45q78 -75 95 -166t-32.5 -182.5t-161.5 -161.5 q-74 -49 -187 -75t-241 -20q-147 6 -257 30t-165.5 57.5t-81 65t-24.5 60.5q2 34 15 54.5t55 50.5q4 2 12 7t12 7q66 34 119 37q43 4 64.5 -4.5t33.5 -32.5l6 -14l7 -15q1 -5 4.5 -15.5l5.5 -16.5q73 -180 225 -168q68 3 115 47q44 35 42.5 90t-50.5 94q-37 31 -110.5 70 t-299.5 147q-163 73 -256 156q-103 88 -133.5 205zM342 797q-2 -15 4 -47q13 -58 46.5 -92.5t125.5 -75.5q127 -57 373 -181q151 -76 205 -96q41 -12 66 10t24 72q-2 57 -29 98.5t-102 92.5q-38 29 -195 104l-184 86q-105 51 -129 68l-82 43q-37 19 -68.5 5t-48.5 -55 q-6 -18 -6 -32z" />
<glyph unicode="&#xa8;" horiz-adv-x="1116" d="M70 1475q0 23 12 38q73 116 126.5 158t103 27.5t120.5 -86.5q91 -89 91.5 -137.5t-87.5 -137.5q-62 -62 -101 -79.5t-77.5 -0.5t-99.5 78q-88 88 -88 140zM596 1479q0 24 19 53t71 80q98 106 170 88t180 -187q28 -42 -10 -108t-160 -143q-32 -24 -75 -7.5t-109 82.5 q-89 89 -86 142z" />
<glyph unicode="&#xa9;" horiz-adv-x="864" d="M70 1202q0 152 105.5 258.5t254.5 106.5q152 0 258.5 -106.5t106.5 -258.5q0 -150 -106.5 -256t-258.5 -106q-149 0 -254.5 106.5t-105.5 255.5zM111 1202q0 -132 93.5 -225.5t225.5 -93.5q134 0 229 93.5t95 225.5q0 133 -95 227.5t-229 94.5q-132 0 -225.5 -94.5 t-93.5 -227.5zM238.5 1240.5q15.5 79.5 78.5 123.5q26 19 51.5 28.5t51 10t41.5 -1.5t40 -8t29 -7q31 -7 37 15h19l6 -135h-23q-4 25 -22 55t-49 43q-42 18 -83 7.5t-71 -44.5q-38 -48 -42 -117.5t30 -122.5t94 -55q49 -3 78.5 6.5t64.5 38.5l13 10l12 -18l-6 -6 q-14 -15 -23.5 -23.5t-31.5 -22.5t-42.5 -19.5t-52.5 -6t-67 9.5q-75 19 -111.5 89.5t-21 150z" />
<glyph unicode="&#xaa;" horiz-adv-x="1531" d="M72 586q7 69 45.5 128t97 93.5t132 41.5t149.5 -28q70 -30 117.5 -65.5t154.5 -130.5q102 93 151 129t119 67q77 35 150.5 28t132 -41.5t97.5 -93.5t46 -128q8 -79 -28.5 -156.5t-112.5 -127t-168 -40.5q-61 6 -117 26.5t-100.5 50.5t-73 54t-59.5 55.5t-37 36.5 q-8 -7 -37.5 -36.5t-59.5 -54.5t-73.5 -55t-99.5 -50.5t-117 -26.5q-70 -6 -132 21.5t-102 75.5t-60.5 108.5t-14.5 118.5zM176 545q3 -92 79.5 -145t164.5 -31q76 17 120 47t130 112q18 18 28 27q-102 84 -150.5 118.5t-98.5 51.5q-68 22 -119.5 11.5t-86 -43.5 t-51.5 -72.5t-16 -75.5zM838 555q105 -102 139 -126q55 -41 137 -60q89 -22 165 31t79 145q1 36 -16 75.5t-51 72.5t-85.5 43.5t-118.5 -11.5q-51 -18 -101.5 -53t-147.5 -117z" />
<glyph unicode="&#xac;" horiz-adv-x="1538" d="M70 489v117h1398v-606h-116v489h-1282z" />
<glyph unicode="&#xad;" horiz-adv-x="751" d="M74 469q-10 46 8 139q4 22 8 31l31 78q8 21 12.5 34t13 27t13 21t17 15t20.5 11t28 5.5t34.5 2t45 -2t55 -3.5t68.5 -6q39 -4 100 0q72 8 93 13q28 7 53 -31q18 -28 -10 -131l-33 -121q-23 -90 -84 -123q-32 -14 -63 -14.5t-228 6.5q-29 0 -76 -8q-61 -13 -78.5 -4 t-27.5 61z" />
<glyph unicode="&#xae;" horiz-adv-x="864" d="M70 1204q0 151 105.5 257t256.5 106t257 -106t106 -257t-106 -256.5t-257 -105.5t-256.5 105.5t-105.5 256.5zM111 1202q0 -132 94 -225.5t227 -93.5q134 0 228 94t94 227t-94.5 226.5t-229.5 93.5q-132 0 -225.5 -93.5t-93.5 -228.5zM258 1022v18q53 0 53 29v301 q0 23 -7 28t-40 5v18h176q48 0 82 -10q38 -14 53 -43q18 -38 9.5 -71.5t-29.5 -49.5q-36 -30 -74 -30l127 -162q11 -15 37 -15v-18h-100l-139 184h-27v-135q0 -31 47 -31v-18h-168zM377 1376l2 -143q53 0 76 8q70 22 61 86q-4 37 -23.5 52.5t-37.5 15.5l-56 4 q-8 0 -14.5 -6.5t-7.5 -16.5z" />
<glyph unicode="&#xaf;" horiz-adv-x="983" d="M70.5 1262q-1.5 9 5.5 24l82 160q12 27 65 27h649q16 0 37 -3q14 0 2 -24l-86 -162q-14 -25 -22 -30t-39 -5h-658q-4 0 -13 1t-13 1q-8 2 -9.5 11z" />
<glyph unicode="&#xb0;" horiz-adv-x="770" d="M70 1124q-2 129 91.5 222.5t223.5 93.5q129 0 222 -93.5t93 -222.5q0 -130 -93 -222.5t-222 -92.5q-131 0 -223 92.5t-92 222.5zM154 1124q0 -96 67.5 -163.5t163.5 -67.5q94 0 162.5 68t68.5 163t-69 163.5t-164 68.5t-162.5 -68.5t-66.5 -163.5z" />
<glyph unicode="&#xb1;" horiz-adv-x="1251" d="M70 0v115h1112v-115h-1112zM70 741v117h497v498h117v-498h498v-117h-498v-497h-117v497h-497z" />
<glyph unicode="&#xb4;" horiz-adv-x="661" d="M88 1409l291 281q17 20 26.5 20.5t24.5 -18.5l152 -154q17 -15 14 -34t-25 -31l-333 -207q-26 -17 -35 -17t-29 17l-82 71q-41 35 -4 72z" />
<glyph unicode="&#xb5;" horiz-adv-x="1261" d="M74 -262q6 35 30.5 121t24.5 157v1035h180v-701q0 -173 109 -221q90 -42 174 -2q44 21 87.5 58.5t63.5 82.5v783h183v-807q0 -98 47 -148q51 -48 112 -16q25 15 37 38t18.5 54t10.5 41h41l-7.5 -32.5t-8.5 -31t-12.5 -35l-16.5 -31.5t-24 -33.5t-32 -28t-42 -27.5 q-46 -25 -93.5 -28t-75.5 6.5t-46 23.5q-21 16 -35.5 31t-23.5 36t-12.5 30.5t-9.5 39t-8 37.5q-50 -75 -145 -145q-98 -70 -199 -62q-34 1 -68.5 15.5t-55 29.5t-44 35t-28.5 23v-50q3 -69 28.5 -151.5t32.5 -126.5q17 -96 -15 -151.5t-81 -55.5q-48 0 -80 55t-16 152z" />
<glyph unicode="&#xb7;" horiz-adv-x="477" d="M-70 -537q5 15 23 33l47 17q34 12 55 29.5t39 47.5q21 34 6.5 65t-59.5 44l-31 8l-8 2q-37 9 -27 31l15 12l160 152q18 18 53 12q8 -2 20 -6l13 -6l30 -17q10 -7 27.5 -16.5t23.5 -13.5q81 -50 87.5 -131.5t-68.5 -151.5q-31 -34 -78 -63q-195 -127 -293 -103 q-23 6 -32 21t-3 34z" />
<glyph unicode="&#xbb;" horiz-adv-x="1198" d="M68 946l307 152l413 -848l267 1677l73 -10l-315 -1997l-510 1055l-203 -98z" />
<glyph unicode="&#xbf;" horiz-adv-x="1173" d="M70 -29q5 78 39 134.5t112 111.5q26 21 80 43q9 6 21 10l36 33q36 42 48 90l4 23l6 28q16 96 200 72q31 -4 51.5 -23t30 -58t3 -94t-35.5 -136.5t-79 -179.5q-7 -12 -11 -31q-10 -84 14 -133t66 -54q18 -1 31 7t16 22q11 43 11 121v35q-3 44 43 98q53 66 135 72 q108 9 166.5 -49t44.5 -158q-15 -122 -109 -227q-42 -42 -65 -58q-121 -96 -314 -102q-230 -6 -370 94q-99 70 -139 143t-35 166zM272 874q-6 104 56.5 181t171.5 94q35 7 84 0q82 -17 129.5 -60t70.5 -122q16 -50 13 -99q-8 -86 -57.5 -145t-135.5 -84q-115 -31 -207 27 q-113 70 -125 208z" />
<glyph unicode="&#xc0;" horiz-adv-x="1863" d="M14 80q-15 47 5 73.5t96 65.5q40 19 60 34t47 51.5t54 100t71.5 174.5t109.5 280q24 63 37 97q53 139 65 189t12 133q0 93 10.5 133.5t43.5 77.5q90 107 288 59q77 -19 138 -75.5t151 -206t232 -441.5q27 -49 73 -151l148 -309v-5l28 -51l31 -55q19 -15 94 -39 q18 -5 32.5 -26t17.5 -52q5 -53 -37 -86t-152 -57q-88 -20 -297 -12q-188 7 -251 16t-107 31q-44 25 -52 72t25 81l2 2l51 31q30 20 37 27q19 18 11.5 48.5t-37.5 43.5q-53 22 -191 22q-134 0 -188 -3.5t-81 -14t-48 -37.5q-13 -16 -13 -40.5t9 -29.5q8 -3 75 -28 q45 -20 56.5 -62.5t-17.5 -83.5q-14 -22 -43.5 -36t-95.5 -29q-35 -7 -94 -10q-237 -10 -318 22q-71 28 -88 76zM407.5 1958q-2.5 20 14.5 37l147 145q23 21 31 20t29 -22l289 -283q27 -30 2 -55l-86 -86q-23 -22 -31.5 -22.5t-36.5 18.5l-336 213q-20 15 -22.5 35zM664 653 q4 -4 26 -4l12 -2l97 -4q51 -3 102 0q26 1 41.5 4t19.5 6t3 6q-9 17 -11 27l-77 156l-7 8l-2 6l-37 47q-15 18 -28 27t-21 8.5t-12 -6.5q-23 -32 -51 -113q-59 -158 -55 -166z" />
<glyph unicode="&#xc1;" horiz-adv-x="1863" d="M14 80q-15 47 5 73.5t96 65.5q40 19 60 34t47 51.5t54 100t71.5 174.5t109.5 280q24 63 37 97q53 139 65 189t12 133q0 93 10.5 133.5t43.5 77.5q90 107 288 59q77 -19 138 -75.5t151 -206t232 -441.5q27 -49 73 -151l148 -309v-5l28 -51l31 -55q19 -15 94 -39 q18 -5 32.5 -26t17.5 -52q5 -53 -37 -86t-152 -57q-88 -20 -297 -12q-188 7 -251 16t-107 31q-44 25 -52 72t25 81l2 2l51 31q30 20 37 27q19 18 11.5 48.5t-37.5 43.5q-53 22 -191 22q-134 0 -188 -3.5t-81 -14t-48 -37.5q-13 -16 -13 -40.5t9 -29.5q8 -3 75 -28 q45 -20 56.5 -62.5t-17.5 -83.5q-14 -22 -43.5 -36t-95.5 -29q-35 -7 -94 -10q-237 -10 -318 22q-71 28 -88 76zM664 653q4 -4 26 -4l12 -2l97 -4q51 -3 102 0q26 1 41.5 4t19.5 6t3 6q-9 17 -11 27l-77 156l-7 8l-2 6l-37 47q-15 18 -28 27t-21 8.5t-12 -6.5 q-23 -32 -51 -113q-59 -158 -55 -166zM688.5 1821.5q-0.5 16.5 18.5 36.5l290 280q17 19 27 19t25 -17l151 -155q17 -14 14 -33t-24 -33l-334 -205q-28 -19 -36 -19t-27 19l-82 72q-22 19 -22.5 35.5z" />
<glyph unicode="&#xc2;" horiz-adv-x="1863" d="M14 80q-15 47 5 73.5t96 65.5q40 19 60 34t47 51.5t54 100t71.5 174.5t109.5 280q24 63 37 97q53 139 65 189t12 133q0 93 10.5 133.5t43.5 77.5q90 107 288 59q77 -19 138 -75.5t151 -206t232 -441.5q27 -49 73 -151l148 -309v-5l28 -51l31 -55q19 -15 94 -39 q18 -5 32.5 -26t17.5 -52q5 -53 -37 -86t-152 -57q-88 -20 -297 -12q-188 7 -251 16t-107 31q-44 25 -52 72t25 81l2 2l51 31q30 20 37 27q19 18 11.5 48.5t-37.5 43.5q-53 22 -191 22q-134 0 -188 -3.5t-81 -14t-48 -37.5q-13 -16 -13 -40.5t9 -29.5q8 -3 75 -28 q45 -20 56.5 -62.5t-17.5 -83.5q-14 -22 -43.5 -36t-95.5 -29q-35 -7 -94 -10q-237 -10 -318 22q-71 28 -88 76zM477 1845q5 10 10 15l304 262q22 19 36.5 19t34.5 -19l305 -260q15 -15 17 -34.5t-10 -29.5l-87 -80l-26 -26q-5 0 -27 14l-205 139l-200 -131q-26 -19 -36 -20 t-24 14l-86 82q-23 20 -6 55zM664 653q4 -4 26 -4l12 -2l97 -4q51 -3 102 0q26 1 41.5 4t19.5 6t3 6q-9 17 -11 27l-77 156l-7 8l-2 6l-37 47q-15 18 -28 27t-21 8.5t-12 -6.5q-23 -32 -51 -113q-59 -158 -55 -166z" />
<glyph unicode="&#xc3;" horiz-adv-x="1863" d="M14 80q-15 47 5 73.5t96 65.5q40 19 60 34t47 51.5t54 100t71.5 174.5t109.5 280q24 63 37 97q53 139 65 189t12 133q0 93 10.5 133.5t43.5 77.5q90 107 288 59q77 -19 138 -75.5t151 -206t232 -441.5q27 -49 73 -151l148 -309v-5l28 -51l31 -55q19 -15 94 -39 q18 -5 32.5 -26t17.5 -52q5 -53 -37 -86t-152 -57q-88 -20 -297 -12q-188 7 -251 16t-107 31q-44 25 -52 72t25 81l2 2l51 31q30 20 37 27q19 18 11.5 48.5t-37.5 43.5q-53 22 -191 22q-134 0 -188 -3.5t-81 -14t-48 -37.5q-13 -16 -13 -40.5t9 -29.5q8 -3 75 -28 q45 -20 56.5 -62.5t-17.5 -83.5q-14 -22 -43.5 -36t-95.5 -29q-35 -7 -94 -10q-237 -10 -318 22q-71 28 -88 76zM406 1700l77 274q3 8 90 21q150 22 308 -10l12 -3l84 -18q75 -17 117.5 -17t91.5 19l47 23l-80 -275q-4 -14 -72 -22q-23 -3 -61 0q-4 0 -8.5 1t-11 2.5 t-9.5 2.5h-2l-88 22q-100 25 -159 29.5t-138 -4.5q-71 -7 -129 -23zM664 653q4 -4 26 -4l12 -2l97 -4q51 -3 102 0q26 1 41.5 4t19.5 6t3 6q-9 17 -11 27l-77 156l-7 8l-2 6l-37 47q-15 18 -28 27t-21 8.5t-12 -6.5q-23 -32 -51 -113q-59 -158 -55 -166z" />
<glyph unicode="&#xc4;" horiz-adv-x="1863" d="M14 80q-15 47 5 73.5t96 65.5q40 19 60 34t47 51.5t54 100t71.5 174.5t109.5 280q24 63 37 97q53 139 65 189t12 133q0 93 10.5 133.5t43.5 77.5q90 107 288 59q77 -19 138 -75.5t151 -206t232 -441.5q27 -49 73 -151l148 -309v-5l28 -51l31 -55q19 -15 94 -39 q18 -5 32.5 -26t17.5 -52q5 -53 -37 -86t-152 -57q-88 -20 -297 -12q-188 7 -251 16t-107 31q-44 25 -52 72t25 81l2 2l51 31q30 20 37 27q19 18 11.5 48.5t-37.5 43.5q-53 22 -191 22q-134 0 -188 -3.5t-81 -14t-48 -37.5q-13 -16 -13 -40.5t9 -29.5q8 -3 75 -28 q45 -20 56.5 -62.5t-17.5 -83.5q-14 -22 -43.5 -36t-95.5 -29q-35 -7 -94 -10q-237 -10 -318 22q-71 28 -88 76zM336 1919q0 26 12 41q55 88 96.5 132t83 53.5t80 -12t92.5 -75.5q47 -47 67.5 -76t21 -61t-19.5 -61t-67 -76q-62 -62 -100.5 -79.5t-77 -0.5t-100.5 78 q-88 88 -88 137zM664 653q4 -4 26 -4l12 -2l97 -4q51 -3 102 0q26 1 41.5 4t19.5 6t3 6q-9 17 -11 27l-77 156l-7 8l-2 6l-37 47q-15 18 -28 27t-21 8.5t-12 -6.5q-23 -32 -51 -113q-59 -158 -55 -166zM862 1923q0 25 18.5 53.5t71.5 81.5q53 54 91.5 75.5t80 12t83.5 -54 t98 -131.5q27 -44 -11 -109.5t-161 -142.5q-30 -25 -74.5 -8t-110.5 84q-89 89 -86 139z" />
<glyph unicode="&#xc5;" horiz-adv-x="1863" d="M14 80q-15 47 5 73.5t96 65.5q40 19 60 34t47 51.5t54 100t71.5 174.5t109.5 280q24 63 37 97q53 139 65 189t12 133q0 93 10.5 133.5t43.5 77.5q90 107 288 59q77 -19 138 -75.5t151 -206t232 -441.5q27 -49 73 -151l148 -309v-5l28 -51l31 -55q19 -15 94 -39 q18 -5 32.5 -26t17.5 -52q5 -53 -37 -86t-152 -57q-88 -20 -297 -12q-188 7 -251 16t-107 31q-44 25 -52 72t25 81l2 2l51 31q30 20 37 27q19 18 11.5 48.5t-37.5 43.5q-53 22 -191 22q-134 0 -188 -3.5t-81 -14t-48 -37.5q-13 -16 -13 -40.5t9 -29.5q8 -3 75 -28 q45 -20 56.5 -62.5t-17.5 -83.5q-14 -22 -43.5 -36t-95.5 -29q-35 -7 -94 -10q-237 -10 -318 22q-71 28 -88 76zM573 1937q0 98 72 170t172 72q95 0 174 -72q71 -71 71 -171.5t-71 -172.5q-78 -71 -174 -71q-100 0 -172 72t-72 173zM664 653q4 -4 26 -4l12 -2l97 -4 q51 -3 102 0q26 1 41.5 4t19.5 6t3 6q-9 17 -11 27l-77 156l-7 8l-2 6l-37 47q-15 18 -28 27t-21 8.5t-12 -6.5q-23 -32 -51 -113q-59 -158 -55 -166zM713 1933q0 -44 31.5 -75t74.5 -31q50 0 76 33q32 31 32 74.5t-32 72.5q-26 33 -76 33q-43 0 -74.5 -32t-31.5 -75z" />
<glyph unicode="&#xc6;" horiz-adv-x="2549" d="M7 126.5q6 41.5 42 59.5q46 24 64 33q53 22 88 59t73.5 115t96.5 232q158 419 179 493q19 68 19 146v14q0 92 10.5 132t43.5 79q44 53 108.5 67.5t196.5 -4.5q82 -12 157 -84q41 35 81.5 47t129.5 17q51 0 332 -4q81 0 287 12q179 11 207 14q60 5 102.5 1t72.5 -28 t49.5 -69t35.5 -121q18 -97 1 -156t-61 -85q-50 -32 -87.5 -13.5t-116.5 109.5q-9 7 -25 31q-36 36 -133 57q-65 15 -156 12q-194 -5 -320 -29t-169 -51q-45 -25 -52 -45q-10 -26 27 -103q13 -26 53 -101q8 -16 32 -33t55 -27h2l163 4q121 2 168 2q19 0 31 9 q29 20 35.5 41.5t11.5 107.5q2 24 22 44.5t54 29.5q54 14 97 -31t67 -154q13 -50 16 -125q5 -179 -41 -290q-33 -75 -80 -96.5t-94 12.5q-25 19 -31.5 37.5t-9.5 80.5q0 17 -6 29q-26 54 -62 68t-122 2q-83 -14 -101 -29q-35 -24 -20 -73.5t106 -196.5q14 -21 35 -72 q8 -21 44 -35t112.5 -17t193.5 17q72 14 131.5 70t98.5 151q16 37 53 52q53 22 119 -9q62 -37 57 -153q0 -35 -12 -94q-15 -83 -86 -209l-12 -19l-21 -34q-23 -35 -48 -41t-91 6l-62 12l-26 6q-16 5 -118 1t-566 -27l-256 10q-79 3 -103 6.5t-41 13.5q-56 32 -70.5 86 t15.5 86h4l51 33q30 20 37 27q19 18 11.5 48.5t-37.5 43.5q-53 22 -191 22q-134 0 -188 -3.5t-81 -14t-48 -37.5q-13 -16 -13 -40.5t9 -29.5q7 -3 75 -28q45 -20 56.5 -62.5t-17.5 -83.5q-14 -22 -43.5 -36t-97.5 -29q-31 -7 -92 -10q-237 -10 -318 22q-42 14 -69 45 q-30 36 -24 77.5zM662 653q4 -4 26 -4l12 -2l97 -4q51 -3 102 0q26 1 41.5 4t19.5 6t3 6q-9 17 -11 27l-78 156l-6 8l-2 6l-37 47q-15 18 -28 27t-21 8.5t-12 -6.5q-23 -32 -51 -113q-59 -158 -55 -166z" />
<glyph unicode="&#xc7;" horiz-adv-x="1687" d="M70 776q0 28 4 82q15 148 76 270q58 112 122.5 185.5t159.5 138.5q86 59 223 102q81 22 127 27q123 12 195.5 3t191.5 -50q12 -4 62 -21q36 -16 60 -10.5t79 41.5q20 7 41 2q24 -7 74 -57q59 -63 102 -184q66 -190 0 -299q-38 -61 -95 -88.5t-112.5 -17.5t-93.5 54 q-20 24 -76 105q-9 21 -28 47q-24 36 -82 76q-19 14 -51 32q-102 50 -188.5 43t-148 -69t-73.5 -160q-10 -88 14 -203q9 -41 39 -112q89 -197 242 -270.5t326 -16.5q62 23 106 55q9 6 21.5 16t17.5 13q30 30 63 53q20 18 59 1.5t62 -62.5q32 -68 10 -168 q-17 -87 -69.5 -134.5t-218.5 -127.5q-230 -108 -475 -90q-186 12 -334 92q-107 59 -174.5 122t-137.5 171q-58 92 -83.5 165.5t-32.5 172.5q-4 46 -4 71zM676 -559q6 18 22 31l45 18q60 20 97 78q20 33 5 64t-61 44l-28 9l-11 2q-34 8 -26 28l14 15l160 149q21 21 53 15 l21 -7l12 -8l33 -16q8 -5 24.5 -14.5t24.5 -14.5q82 -50 88.5 -133t-68.5 -152q-33 -31 -77 -63q-191 -125 -295 -100q-22 4 -31.5 20t-1.5 35z" />
<glyph unicode="&#xc8;" horiz-adv-x="1648" d="M70 1454q3 51 31.5 75t103.5 36q28 4 192 -2q266 -12 629 6q191 12 209 14q61 5 103.5 1t73 -28.5t51 -69.5t36.5 -122q17 -97 0.5 -157.5t-59.5 -88.5q-53 -30 -91 -12t-120 111q-5 5 -25 30q-19 23 -90 47.5t-160 24.5q-102 0 -143.5 -11.5t-54.5 -39.5l-13 -78 q-10 -99 -8 -174q0 -54 39.5 -80.5t97.5 -5.5q49 15 61 41t17 119q2 25 22 45.5t56 29.5q54 13 98 -32.5t68 -155.5q11 -58 14 -127q6 -188 -39 -295q-36 -76 -84.5 -98t-93.5 12q-25 19 -31.5 38.5t-9.5 84.5q0 12 -6 24q-24 53 -51 66.5t-74 1.5q-46 -15 -54 -36t-1 -103 l2 -21l4 -88v-16l4 -62q5 -73 60.5 -92.5t216.5 2.5l106 19l8 2q134 44 199 215q14 34 55 51q20 10 55 8t66 -16q62 -30 59 -156q0 -9 -4 -45q-7 -64 -21 -101.5t-75 -160.5q-18 -38 -31 -80q-3 -13 -53 -18l-90 16q-66 10 -401 8l-344 -2l-224 -4l-45 -2 q-127 -6 -180.5 15.5t-56.5 74.5q-6 62 20 88l2 2l64 29l1 1q37 18 46 33q14 23 18 125q1 16 2 54q2 61 4 100q4 97 2 187q-2 385 -16 493l-2 13l-14 65q-10 43 -20 52t-64 24q-23 8 -39 41q-11 25 -8 55zM491.5 1958q-2.5 20 14.5 37l147 145q23 21 31 20t29 -22l288 -283 q27 -31 3 -55l-86 -86q-23 -22 -31.5 -22.5t-36.5 18.5l-334 213q-22 15 -24.5 35z" />
<glyph unicode="&#xc9;" horiz-adv-x="1648" d="M70 1454q3 51 31.5 75t103.5 36q28 4 192 -2q266 -12 629 6q191 12 209 14q61 5 103.5 1t73 -28.5t51 -69.5t36.5 -122q17 -97 0.5 -157.5t-59.5 -88.5q-53 -30 -91 -12t-120 111q-5 5 -25 30q-19 23 -90 47.5t-160 24.5q-102 0 -143.5 -11.5t-54.5 -39.5l-13 -78 q-10 -99 -8 -174q0 -54 39.5 -80.5t97.5 -5.5q49 15 61 41t17 119q2 25 22 45.5t56 29.5q54 13 98 -32.5t68 -155.5q11 -58 14 -127q6 -188 -39 -295q-36 -76 -84.5 -98t-93.5 12q-25 19 -31.5 38.5t-9.5 84.5q0 12 -6 24q-24 53 -51 66.5t-74 1.5q-46 -15 -54 -36t-1 -103 l2 -21l4 -88v-16l4 -62q5 -73 60.5 -92.5t216.5 2.5l106 19l8 2q134 44 199 215q14 34 55 51q20 10 55 8t66 -16q62 -30 59 -156q0 -9 -4 -45q-7 -64 -21 -101.5t-75 -160.5q-18 -38 -31 -80q-3 -13 -53 -18l-90 16q-66 10 -401 8l-344 -2l-224 -4l-45 -2 q-127 -6 -180.5 15.5t-56.5 74.5q-6 62 20 88l2 2l64 29l1 1q37 18 46 33q14 23 18 125q1 16 2 54q2 61 4 100q4 97 2 187q-2 385 -16 493l-2 13l-14 65q-10 43 -20 52t-64 24q-23 8 -39 41q-11 25 -8 55zM736.5 1817q-0.5 16 19.5 36l288 281q19 19 29 19t25 -17l151 -156 q15 -13 12.5 -32.5t-22.5 -32.5l-336 -205q-26 -19 -34 -19t-27 19l-82 72q-23 19 -23.5 35z" />
<glyph unicode="&#xca;" horiz-adv-x="1648" d="M70 1454q3 51 31.5 75t103.5 36q28 4 192 -2q266 -12 629 6q191 12 209 14q61 5 103.5 1t73 -28.5t51 -69.5t36.5 -122q17 -97 0.5 -157.5t-59.5 -88.5q-53 -30 -91 -12t-120 111q-5 5 -25 30q-19 23 -90 47.5t-160 24.5q-102 0 -143.5 -11.5t-54.5 -39.5l-13 -78 q-10 -99 -8 -174q0 -54 39.5 -80.5t97.5 -5.5q49 15 61 41t17 119q2 25 22 45.5t56 29.5q54 13 98 -32.5t68 -155.5q11 -58 14 -127q6 -188 -39 -295q-36 -76 -84.5 -98t-93.5 12q-25 19 -31.5 38.5t-9.5 84.5q0 12 -6 24q-24 53 -51 66.5t-74 1.5q-46 -15 -54 -36t-1 -103 l2 -21l4 -88v-16l4 -62q5 -73 60.5 -92.5t216.5 2.5l106 19l8 2q134 44 199 215q14 34 55 51q20 10 55 8t66 -16q62 -30 59 -156q0 -9 -4 -45q-7 -64 -21 -101.5t-75 -160.5q-18 -38 -31 -80q-3 -13 -53 -18l-90 16q-66 10 -401 8l-344 -2l-224 -4l-45 -2 q-127 -6 -180.5 15.5t-56.5 74.5q-6 62 20 88l2 2l64 29l1 1q37 18 46 33q14 23 18 125q1 16 2 54q2 61 4 100q4 97 2 187q-2 385 -16 493l-2 13l-14 65q-10 43 -20 52t-64 24q-23 8 -39 41q-11 25 -8 55zM477 1845q5 10 10 15l304 262q22 19 36.5 19t34.5 -19l305 -260 q15 -15 17 -34.5t-10 -29.5l-87 -80l-26 -26q-5 0 -27 14l-205 139l-200 -131q-26 -19 -36 -20t-24 14l-86 82q-23 20 -6 55z" />
<glyph unicode="&#xcb;" horiz-adv-x="1648" d="M70 1454q3 51 31.5 75t103.5 36q28 4 192 -2q266 -12 629 6q191 12 209 14q61 5 103.5 1t73 -28.5t51 -69.5t36.5 -122q17 -97 0.5 -157.5t-59.5 -88.5q-53 -30 -91 -12t-120 111q-5 5 -25 30q-19 23 -90 47.5t-160 24.5q-102 0 -143.5 -11.5t-54.5 -39.5l-13 -78 q-10 -99 -8 -174q0 -54 39.5 -80.5t97.5 -5.5q49 15 61 41t17 119q2 25 22 45.5t56 29.5q54 13 98 -32.5t68 -155.5q11 -58 14 -127q6 -188 -39 -295q-36 -76 -84.5 -98t-93.5 12q-25 19 -31.5 38.5t-9.5 84.5q0 12 -6 24q-24 53 -51 66.5t-74 1.5q-46 -15 -54 -36t-1 -103 l2 -21l4 -88v-16l4 -62q5 -73 60.5 -92.5t216.5 2.5l106 19l8 2q134 44 199 215q14 34 55 51q20 10 55 8t66 -16q62 -30 59 -156q0 -9 -4 -45q-7 -64 -21 -101.5t-75 -160.5q-18 -38 -31 -80q-3 -13 -53 -18l-90 16q-66 10 -401 8l-344 -2l-224 -4l-45 -2 q-127 -6 -180.5 15.5t-56.5 74.5q-6 62 20 88l2 2l64 29l1 1q37 18 46 33q14 23 18 125q1 16 2 54q2 61 4 100q4 97 2 187q-2 385 -16 493l-2 13l-14 65q-10 43 -20 52t-64 24q-23 8 -39 41q-11 25 -8 55zM299 1919q0 26 12 41q55 87 96.5 131.5t83 54t80 -12t91.5 -75.5 q48 -47 69 -76t21 -61t-20.5 -61t-67.5 -76q-61 -62 -100 -79.5t-77.5 -0.5t-99.5 78q-88 85 -88 137zM823 1923q0 24 19 52.5t73 82.5q52 54 90.5 75.5t79.5 12t83 -54t98 -131.5q27 -44 -10.5 -109.5t-159.5 -142.5q-32 -25 -75.5 -8t-109.5 84q-91 91 -88 139z" />
<glyph unicode="&#xcc;" horiz-adv-x="1044" d="M72 1374q-11 80 50 119t249 63q6 0 18.5 1.5t18.5 1.5q131 13 229 6q219 -20 283 -80q34 -38 28.5 -88.5t-45.5 -73.5q-29 -15 -49 -27q-21 -10 -31 -37t-15.5 -121.5t-4.5 -250.5t6 -451q0 -29 2 -41q5 -71 16.5 -93t65.5 -56q24 -12 39 -27q42 -36 43.5 -80.5 t-37.5 -70.5q-18 -14 -85 -39q-11 -4 -17 -6q-53 -18 -148 -30.5t-190 -12.5q-58 0 -152 12q-99 18 -144.5 35t-68.5 41q-36 35 -36.5 82.5t32.5 68.5q6 3 26 15t31 18q34 17 47 137v14q1 148 4 368q8 129 3 219.5t-4 137t-16 80t-32.5 48.5t-53.5 43q-11 8 -17 12 q-5 3 -14.5 9t-14.5 9q-9 6 -16 45zM155.5 1958q-2.5 20 14.5 37l147 145q21 21 29 20t31 -22l287 -283q30 -30 2 -55l-86 -86q-22 -22 -30 -22.5t-36 18.5l-336 213q-20 15 -22.5 35z" />
<glyph unicode="&#xcd;" horiz-adv-x="1044" d="M72 1374q-11 80 50 119t249 63q6 0 18.5 1.5t18.5 1.5q131 13 229 6q219 -20 283 -80q34 -38 28.5 -88.5t-45.5 -73.5q-29 -15 -49 -27q-21 -10 -31 -37t-15.5 -121.5t-4.5 -250.5t6 -451q0 -29 2 -41q5 -71 16.5 -93t65.5 -56q24 -12 39 -27q42 -36 43.5 -80.5 t-37.5 -70.5q-18 -14 -85 -39q-11 -4 -17 -6q-53 -18 -148 -30.5t-190 -12.5q-58 0 -152 12q-99 18 -144.5 35t-68.5 41q-36 35 -36.5 82.5t32.5 68.5q6 3 26 15t31 18q34 17 47 137v14q1 148 4 368q8 129 3 219.5t-4 137t-16 80t-32.5 48.5t-53.5 43q-11 8 -17 12 q-5 3 -14.5 9t-14.5 9q-9 6 -16 45zM432 1858l291 280q17 19 27.5 19t25.5 -17l152 -155q15 -13 12.5 -33t-22.5 -33l-336 -205q-26 -19 -34.5 -19t-27.5 19l-82 72q-42 34 -6 72z" />
<glyph unicode="&#xce;" horiz-adv-x="1044" d="M72 1374q-11 80 50 119t249 63q6 0 18.5 1.5t18.5 1.5q131 13 229 6q219 -20 283 -80q34 -38 28.5 -88.5t-45.5 -73.5q-29 -15 -49 -27q-21 -10 -31 -37t-15.5 -121.5t-4.5 -250.5t6 -451q0 -29 2 -41q5 -71 16.5 -93t65.5 -56q24 -12 39 -27q42 -36 43.5 -80.5 t-37.5 -70.5q-18 -14 -85 -39q-11 -4 -17 -6q-53 -18 -148 -30.5t-190 -12.5q-58 0 -152 12q-99 18 -144.5 35t-68.5 41q-36 35 -36.5 82.5t32.5 68.5q6 3 26 15t31 18q34 17 47 137v14q1 148 4 368q8 129 3 219.5t-4 137t-16 80t-32.5 48.5t-53.5 43q-11 8 -17 12 q-5 3 -14.5 9t-14.5 9q-9 6 -16 45zM170 1845q5 10 10 15l303 262q23 19 37.5 19t34.5 -19l305 -260q15 -15 16.5 -34.5t-10.5 -29.5l-86 -80l-24 -26q-7 0 -29 14l-205 139l-200 -131q-26 -19 -35.5 -20t-24.5 14l-86 82q-23 20 -6 55z" />
<glyph unicode="&#xcf;" horiz-adv-x="1044" d="M4 1917q0 26 12 41q55 87 96.5 131.5t83 54t80.5 -12t93 -75.5q47 -47 67.5 -76t21 -61t-19.5 -61t-67 -76q-62 -62 -101 -79.5t-77.5 -0.5t-100.5 78q-88 85 -88 137zM72 1374q-11 80 50 119t249 63q6 0 18.5 1.5t18.5 1.5q131 13 229 6q219 -20 283 -80 q34 -38 28.5 -88.5t-45.5 -73.5q-29 -15 -49 -27q-21 -10 -31 -37t-15.5 -121.5t-4.5 -250.5t6 -451q0 -29 2 -41q5 -71 16.5 -93t65.5 -56q24 -12 39 -27q42 -36 43.5 -80.5t-37.5 -70.5q-18 -14 -85 -39q-11 -4 -17 -6q-53 -18 -148 -30.5t-190 -12.5q-58 0 -152 12 q-99 18 -144.5 35t-68.5 41q-36 35 -36.5 82.5t32.5 68.5q6 3 26 15t31 18q34 17 47 137v14q1 148 4 368q8 129 3 219.5t-4 137t-16 80t-32.5 48.5t-53.5 43q-11 8 -17 12q-5 3 -14.5 9t-14.5 9q-9 6 -16 45zM530 1921q0 24 18.5 52.5t72.5 82.5q99 106 170.5 88.5 t179.5 -186.5q28 -43 -10 -109t-160 -143q-30 -25 -74.5 -8t-110.5 84q-89 89 -86 139z" />
<glyph unicode="&#xd1;" horiz-adv-x="1964" d="M74 1395q-16 59 31 101t163 60q94 11 148 11h17q139 0 178.5 -14.5t137.5 -103.5q11 -10 17 -15l371 -338q90 -89 130 -122.5t68 -45.5q22 -10 44 -2.5t28 26.5q8 28 8 45l2 68v6l-4 100q-4 81 -17 105t-69 53q-70 34 -83 66.5t18 97.5q13 26 46.5 44.5t80.5 21.5l102 8 h25q164 5 258 -19q144 -44 116 -151q-11 -34 -27 -49.5t-65 -38.5q-53 -29 -63 -213l-11 -211q-4 -146 -8 -387v-107l-2 -88q-3 -126 -18 -180q-35 -129 -73 -155.5t-110 22.5l-69 45l-4 2q-134 101 -400 352q-126 122 -200 207q-45 51 -109 102q-34 28 -69.5 18t-47.5 -50 q-8 -24 -8 -60l-4 -90v-8q0 -83 6 -113l9 -60t10.5 -41.5t12.5 -29.5t20 -19.5t27.5 -17.5t41.5 -18q33 -17 33 -74q2 -60 -54.5 -99t-177.5 -52q-61 -7 -120 -4q-124 7 -183.5 24t-87.5 47q-33 33 -34 79.5t28 64.5q55 38 72 47q27 17 41.5 60.5t23.5 161.5t9 329 q0 159 -13 258q-7 61 -11.5 93t-13 65t-16.5 48t-25.5 32t-36.5 26.5t-52 23.5q-26 11 -37 56zM596 1700l78 274q3 8 90 21q146 22 307 -10l12 -3l84 -18q73 -17 116.5 -17t90.5 19l47 23l-80 -275q-4 -15 -71 -22q-22 -3 -62 0q-4 0 -8.5 1t-10 2.5t-9.5 2.5h-2l-86 22 q-102 25 -161 29.5t-138 -4.5q-64 -6 -129 -23z" />
<glyph unicode="&#xd2;" horiz-adv-x="1822" d="M70 842q6 89 32 174q53 151 114.5 239t170.5 166q114 83 232.5 123.5t267.5 44.5q142 3 258 -26q160 -44 272.5 -118.5t192.5 -189.5q126 -178 141 -399q14 -245 -68 -422t-268 -303q-142 -100 -340 -137q-101 -18 -213 -12q-107 5 -215 38q-125 41 -215.5 101 t-165.5 149q-151 185 -182 365q-18 117 -14 207zM512.5 1958q-2.5 20 15.5 37l148 145q21 21 28.5 20t28.5 -22l289 -283q27 -30 2 -55l-86 -86q-22 -22 -30.5 -22.5t-37.5 18.5l-333 213q-22 15 -24.5 35zM645 1032q-7 -108 47 -297q18 -73 49 -143q33 -71 60 -117 q57 -95 111.5 -128t121.5 -21q80 15 120.5 86t31.5 194q-7 55 -21 123q-55 225 -123 330q-50 80 -76 111.5t-55 46.5q-75 41 -144.5 17.5t-98.5 -99.5q-17 -40 -23 -103z" />
<glyph unicode="&#xd3;" horiz-adv-x="1822" d="M70 842q6 89 32 174q53 151 114.5 239t170.5 166q114 83 232.5 123.5t267.5 44.5q142 3 258 -26q160 -44 272.5 -118.5t192.5 -189.5q126 -178 141 -399q14 -245 -68 -422t-268 -303q-142 -100 -340 -137q-101 -18 -213 -12q-107 5 -215 38q-125 41 -215.5 101 t-165.5 149q-151 185 -182 365q-18 117 -14 207zM645 1032q-7 -108 47 -297q18 -73 49 -143q33 -71 60 -117q57 -95 111.5 -128t121.5 -21q80 15 120.5 86t31.5 194q-7 55 -21 123q-55 225 -123 330q-50 80 -76 111.5t-55 46.5q-75 41 -144.5 17.5t-98.5 -99.5 q-17 -40 -23 -103zM772.5 1821.5q-0.5 16.5 18.5 36.5l290 280q17 19 27 19t25 -17l151 -155q17 -13 14.5 -33t-24.5 -33l-334 -205q-28 -19 -36 -19t-27 19l-82 72q-22 19 -22.5 35.5z" />
<glyph unicode="&#xd4;" horiz-adv-x="1822" d="M70 842q6 89 32 174q53 151 114.5 239t170.5 166q114 83 232.5 123.5t267.5 44.5q142 3 258 -26q160 -44 272.5 -118.5t192.5 -189.5q126 -178 141 -399q14 -245 -68 -422t-268 -303q-142 -100 -340 -137q-101 -18 -213 -12q-107 5 -215 38q-125 41 -215.5 101 t-165.5 149q-151 185 -182 365q-18 117 -14 207zM543 1845q5 10 10 15l303 262q22 19 36 19t36 -19l305 -260q15 -15 16.5 -34.5t-10.5 -29.5l-86 -80l-27 -26q-4 0 -26 14l-207 139l-199 -131q-28 -19 -36.5 -20t-22.5 14l-86 82q-23 20 -6 55zM645 1032q-7 -108 47 -297 q18 -73 49 -143q33 -71 60 -117q57 -95 111.5 -128t121.5 -21q80 15 120.5 86t31.5 194q-7 55 -21 123q-55 225 -123 330q-50 80 -76 111.5t-55 46.5q-75 41 -144.5 17.5t-98.5 -99.5q-17 -40 -23 -103z" />
<glyph unicode="&#xd5;" horiz-adv-x="1822" d="M70 842q6 89 32 174q53 151 114.5 239t170.5 166q114 83 232.5 123.5t267.5 44.5q142 3 258 -26q160 -44 272.5 -118.5t192.5 -189.5q126 -178 141 -399q14 -245 -68 -422t-268 -303q-142 -100 -340 -137q-101 -18 -213 -12q-107 5 -215 38q-125 41 -215.5 101 t-165.5 149q-151 185 -182 365q-18 117 -14 207zM489 1700l78 274q3 8 90 21q150 22 308 -10l12 -3l84 -18q75 -17 117.5 -17t91.5 19l47 23l-80 -275q-4 -14 -72 -22q-23 -3 -61 0q-4 0 -8.5 1t-11 2.5t-9.5 2.5h-2l-86 22q-102 25 -161 29.5t-138 -4.5q-71 -7 -129 -23z M645 1032q-7 -108 47 -297q18 -73 49 -143q33 -71 60 -117q57 -95 111.5 -128t121.5 -21q80 15 120.5 86t31.5 194q-7 55 -21 123q-55 225 -123 330q-50 80 -76 111.5t-55 46.5q-75 41 -144.5 17.5t-98.5 -99.5q-17 -40 -23 -103z" />
<glyph unicode="&#xd6;" horiz-adv-x="1822" d="M70 842q6 89 32 174q53 151 114.5 239t170.5 166q114 83 232.5 123.5t267.5 44.5q142 3 258 -26q160 -44 272.5 -118.5t192.5 -189.5q126 -178 141 -399q14 -245 -68 -422t-268 -303q-142 -100 -340 -137q-101 -18 -213 -12q-107 5 -215 38q-125 41 -215.5 101 t-165.5 149q-151 185 -182 365q-18 117 -14 207zM399 1919q0 25 13 41q55 88 96.5 132t83 53.5t80 -12t92.5 -75.5q47 -47 67.5 -76t21 -61t-19.5 -61t-67 -76q-62 -62 -101 -79.5t-77.5 -0.5t-100.5 78q-88 85 -88 137zM645 1032q-7 -108 47 -297q18 -73 49 -143 q33 -71 60 -117q57 -95 111.5 -128t121.5 -21q80 15 120.5 86t31.5 194q-7 55 -21 123q-55 225 -123 330q-50 80 -76 111.5t-55 46.5q-75 41 -144.5 17.5t-98.5 -99.5q-17 -40 -23 -103zM926 1923q0 25 18.5 53.5t71.5 81.5q99 106 170.5 88.5t179.5 -186.5q28 -43 -10 -109 t-160 -143q-30 -25 -74 -8t-110 84q-89 89 -86 139z" />
<glyph unicode="&#xd8;" horiz-adv-x="1822" d="M63 16q-45 42 17 93l182 165q-146 179 -178 361q-18 117 -14 207q6 89 32 174q53 151 114.5 239t170.5 166q114 83 232.5 123.5t267.5 44.5q142 3 258 -26q218 -62 348 -177l176 160q16 15 37 17.5t39 -11.5q17 -18 16.5 -39.5t-16.5 -35.5q-178 -162 -180 -164 q21 -23 45 -58q126 -178 141 -399q14 -245 -68 -422t-268 -303q-142 -100 -340 -137q-101 -18 -213 -12q-107 5 -215 38q-192 63 -313 181l-180 -166q-23 -21 -46.5 -27.5t-44.5 8.5zM645 1032q-7 -108 47 -297q4 -18 17 -57l364 328q-5 9 -15.5 26.5t-15.5 26.5 q-50 80 -76 111.5t-55 46.5q-75 41 -144.5 17.5t-98.5 -99.5q-17 -40 -23 -103zM750 573q25 -54 51 -98q57 -95 111.5 -128t121.5 -21q80 15 120.5 86t31.5 194q-7 55 -21 123q-11 51 -51 174q-362 -330 -364 -330z" />
<glyph unicode="&#xd9;" horiz-adv-x="1998" d="M74 1352q-18 61 33.5 107t193.5 81q103 27 260 27q131 3 205 -13q147 -27 192 -73t7 -119q-8 -15 -23.5 -27t-54.5 -32q-57 -30 -66 -72t-8 -268v-144q0 -225 23 -287q31 -105 88 -143.5t192 -42.5q147 -6 225 60q44 38 62.5 81.5t21.5 114.5l9 338q4 71 1.5 127.5 t-3.5 97t-10.5 71t-18.5 50.5t-28.5 35t-40.5 25t-54 20q-20 6 -29 31.5t2 62.5q15 48 105 74q28 10 86 20q110 13 184 13q43 0 68 -2q144 -10 198 -55.5t29 -108.5q-12 -32 -29.5 -47.5t-68.5 -38.5q-24 -9 -43 -51q-13 -29 -15 -125l-12 -426l-2 -99q-1 -122 -12.5 -185.5 t-38.5 -117.5q-56 -107 -119.5 -162t-187.5 -102q-111 -45 -271 -61q-206 -21 -386 18t-279 111q-85 63 -127 130t-68 183q-16 82 -16 289l-4 377v4l-11 80q-6 52 -26.5 72t-89.5 40q-28 7 -43 62zM702.5 1958q-2.5 20 14.5 37l147 145q21 21 29 20t31 -22l286 -283 q30 -30 2 -55l-86 -86q-22 -22 -30 -22.5t-37 18.5l-334 213q-20 15 -22.5 35z" />
<glyph unicode="&#xda;" horiz-adv-x="1998" d="M74 1352q-18 61 33.5 107t193.5 81q103 27 260 27q131 3 205 -13q147 -27 192 -73t7 -119q-8 -15 -23.5 -27t-54.5 -32q-57 -30 -66 -72t-8 -268v-144q0 -225 23 -287q31 -105 88 -143.5t192 -42.5q147 -6 225 60q44 38 62.5 81.5t21.5 114.5l9 338q4 71 1.5 127.5 t-3.5 97t-10.5 71t-18.5 50.5t-28.5 35t-40.5 25t-54 20q-20 6 -29 31.5t2 62.5q15 48 105 74q28 10 86 20q110 13 184 13q43 0 68 -2q144 -10 198 -55.5t29 -108.5q-12 -32 -29.5 -47.5t-68.5 -38.5q-24 -9 -43 -51q-13 -29 -15 -125l-12 -426l-2 -99q-1 -122 -12.5 -185.5 t-38.5 -117.5q-56 -107 -119.5 -162t-187.5 -102q-111 -45 -271 -61q-206 -21 -386 18t-279 111q-85 63 -127 130t-68 183q-16 82 -16 289l-4 377v4l-11 80q-6 52 -26.5 72t-89.5 40q-28 7 -43 62zM960.5 1821.5q-0.5 16.5 18.5 36.5l291 280q17 19 27.5 19t25.5 -17 l152 -155q15 -13 12 -33t-23 -33l-336 -205q-26 -19 -34 -19t-27 19l-84 72q-22 19 -22.5 35.5z" />
<glyph unicode="&#xdb;" horiz-adv-x="1998" d="M74 1352q-18 61 33.5 107t193.5 81q103 27 260 27q131 3 205 -13q147 -27 192 -73t7 -119q-8 -15 -23.5 -27t-54.5 -32q-57 -30 -66 -72t-8 -268v-144q0 -225 23 -287q31 -105 88 -143.5t192 -42.5q147 -6 225 60q44 38 62.5 81.5t21.5 114.5l9 338q4 71 1.5 127.5 t-3.5 97t-10.5 71t-18.5 50.5t-28.5 35t-40.5 25t-54 20q-20 6 -29 31.5t2 62.5q15 48 105 74q28 10 86 20q110 13 184 13q43 0 68 -2q144 -10 198 -55.5t29 -108.5q-12 -32 -29.5 -47.5t-68.5 -38.5q-24 -9 -43 -51q-13 -29 -15 -125l-12 -426l-2 -99q-1 -122 -12.5 -185.5 t-38.5 -117.5q-56 -107 -119.5 -162t-187.5 -102q-111 -45 -271 -61q-206 -21 -386 18t-279 111q-85 63 -127 130t-68 183q-16 82 -16 289l-4 377v4l-11 80q-6 52 -26.5 72t-89.5 40q-28 7 -43 62zM709 1845q5 10 10 15l303 262q22 19 37 19t35 -19l305 -260 q15 -15 16.5 -34.5t-10.5 -29.5l-86 -80l-27 -26q-4 0 -26 14l-207 139l-199 -131q-28 -19 -36.5 -20t-22.5 14l-86 82q-23 20 -6 55z" />
<glyph unicode="&#xdc;" horiz-adv-x="1998" d="M74 1352q-18 61 33.5 107t193.5 81q103 27 260 27q131 3 205 -13q147 -27 192 -73t7 -119q-8 -15 -23.5 -27t-54.5 -32q-57 -30 -66 -72t-8 -268v-144q0 -225 23 -287q31 -105 88 -143.5t192 -42.5q147 -6 225 60q44 38 62.5 81.5t21.5 114.5l9 338q4 71 1.5 127.5 t-3.5 97t-10.5 71t-18.5 50.5t-28.5 35t-40.5 25t-54 20q-20 6 -29 31.5t2 62.5q15 48 105 74q28 10 86 20q110 13 184 13q43 0 68 -2q144 -10 198 -55.5t29 -108.5q-12 -32 -29.5 -47.5t-68.5 -38.5q-24 -9 -43 -51q-13 -29 -15 -125l-12 -426l-2 -99q-1 -122 -12.5 -185.5 t-38.5 -117.5q-56 -107 -119.5 -162t-187.5 -102q-111 -45 -271 -61q-206 -21 -386 18t-279 111q-85 63 -127 130t-68 183q-16 82 -16 289l-4 377v4l-11 80q-6 52 -26.5 72t-89.5 40q-28 7 -43 62zM588 1919q0 23 14 41q55 87 95.5 131.5t82 54t80 -12t92.5 -75.5 q48 -47 69 -76t21 -61t-20.5 -61t-67.5 -76q-61 -62 -99.5 -79.5t-77 -0.5t-99.5 78q-90 87 -90 137zM1114 1923q0 25 18.5 53.5t71.5 81.5q53 54 91.5 75.5t80 12t83 -54t97.5 -131.5q27 -44 -10.5 -109.5t-159.5 -142.5q-32 -25 -76 -8t-110 84q-89 89 -86 139z" />
<glyph unicode="&#xdf;" horiz-adv-x="1648" d="M29 799q15 56 31 73t63 27q23 8 28 16.5t-1 34.5q-6 18 -62 119q-24 46 -16 137q12 127 106.5 215.5t259.5 118.5q63 12 140 6q230 -23 331 -86q150 -100 194 -224.5t-18 -248.5l-14 -33l-12 -16q-29 -57 -22.5 -83t57.5 -52q18 -9 36 -15l7 -2l69 -12h2l78 -20 q62 -18 85 -25.5t51 -25.5t43.5 -36.5t47.5 -62.5q48 -63 62 -176q12 -99 -18 -178t-117 -160q-73 -70 -149 -88.5t-218 0.5q-43 3 -123 -22q-51 -16 -135 116q-62 103 -55 193q6 70 43 96t100 4q44 -16 96 -80q26 -36 43.5 -45.5t44.5 -3.5q23 7 32.5 27.5t0.5 42.5 q-9 24 -27 38.5t-73 41.5q-112 59 -168 118q-71 72 -96.5 115.5t-30.5 93.5q6 69 27 150q12 54 12.5 80t-8.5 77q-23 92 -58 132q-74 94 -166 106q-19 4 -57 0q-44 -8 -56 -47t19 -86l2 -2l54 -60q24 -24 67 -90q86 -124 114 -214.5t40 -282.5q4 -86 0 -154 q-4 -83 -1.5 -109t21.5 -102q4 -22 2 -37q-3 -74 -34 -101t-132 -40q-39 -5 -182 10l-72 8l-36 5q-36 4 -52 8q-106 24 -141 72.5t-2 109.5q9 19 25 32t65 42q15 10 25 28q20 61 26 183q4 135 -3 161q-9 31 -44 34q-17 2 -67 -1q-56 -3 -80 35t-4 115z" />
<glyph unicode="&#xe0;" horiz-adv-x="1400" d="M70 313q5 119 93 208t257 126q34 10 76 10q147 2 184 -6q5 -1 13 5.5t15 22t7 34.5q0 31 -17 118l-12 52v4q-15 47 -52 63t-75 -8q-45 -31 -82 -86q-49 -72 -91.5 -102t-98.5 -33q-62 -3 -103.5 36.5t-38.5 100.5q2 65 45 115.5t148 101.5q93 49 237 66q97 11 174.5 11.5 t141 -11.5t110.5 -34t82.5 -59.5t58.5 -85t37.5 -113.5t20 -141.5t4.5 -172.5q-1 -16 -2 -46t-2 -45q-3 -89 10.5 -118t75.5 -64q36 -19 43.5 -68t-22.5 -104q-30 -49 -103 -81t-190 -38q-81 -4 -129 12.5t-88 59.5l-11 12l-16 23q-14 21 -23.5 20t-29.5 -26 q-98 -109 -275 -103q-247 6 -340 178q-35 72 -32 166zM290.5 1520.5q-2.5 19.5 14.5 38.5l148 145q21 20 28.5 19.5t28.5 -21.5l289 -285q27 -27 2 -55l-86 -86q-22 -20 -30.5 -20.5t-37.5 16.5l-334 215q-20 14 -22.5 33.5zM543 373q-7 -67 16.5 -108.5t71.5 -49.5 q26 -6 51 8t27 29q0 18 2 50.5t2 47.5q0 98 -21.5 126t-85.5 1q-51 -16 -63 -104z" />
<glyph unicode="&#xe1;" horiz-adv-x="1400" d="M70 313q5 119 93 208t257 126q34 10 76 10q147 2 184 -6q5 -1 13 5.5t15 22t7 34.5q0 31 -17 118l-12 52v4q-15 47 -52 63t-75 -8q-45 -31 -82 -86q-49 -72 -91.5 -102t-98.5 -33q-62 -3 -103.5 36.5t-38.5 100.5q2 65 45 115.5t148 101.5q93 49 237 66q97 11 174.5 11.5 t141 -11.5t110.5 -34t82.5 -59.5t58.5 -85t37.5 -113.5t20 -141.5t4.5 -172.5q-1 -16 -2 -46t-2 -45q-3 -89 10.5 -118t75.5 -64q36 -19 43.5 -68t-22.5 -104q-30 -49 -103 -81t-190 -38q-81 -4 -129 12.5t-88 59.5l-11 12l-16 23q-14 21 -23.5 20t-29.5 -26 q-98 -109 -275 -103q-247 6 -340 178q-35 72 -32 166zM543 373q-7 -67 16.5 -108.5t71.5 -49.5q26 -6 51 8t27 29q0 18 2 50.5t2 47.5q0 98 -21.5 126t-85.5 1q-51 -16 -63 -104zM604 1409l289 281q19 20 28.5 20.5t24.5 -18.5l152 -154q15 -15 12 -34t-23 -31l-333 -207 q-28 -17 -36.5 -17t-27.5 17l-82 71q-44 35 -4 72z" />
<glyph unicode="&#xe2;" horiz-adv-x="1400" d="M70 313q5 119 93 208t257 126q34 10 76 10q147 2 184 -6q5 -1 13 5.5t15 22t7 34.5q0 31 -17 118l-12 52v4q-15 47 -52 63t-75 -8q-45 -31 -82 -86q-49 -72 -91.5 -102t-98.5 -33q-62 -3 -103.5 36.5t-38.5 100.5q2 65 45 115.5t148 101.5q93 49 237 66q97 11 174.5 11.5 t141 -11.5t110.5 -34t82.5 -59.5t58.5 -85t37.5 -113.5t20 -141.5t4.5 -172.5q-1 -16 -2 -46t-2 -45q-3 -89 10.5 -118t75.5 -64q36 -19 43.5 -68t-22.5 -104q-30 -49 -103 -81t-190 -38q-81 -4 -129 12.5t-88 59.5l-11 12l-16 23q-14 21 -23.5 20t-29.5 -26 q-98 -109 -275 -103q-247 6 -340 178q-35 72 -32 166zM309.5 1371.5q-2.5 16.5 5.5 31.5q1 2 11 12l303 262q22 20 36.5 20t34.5 -20l306 -260q15 -13 16.5 -33t-10.5 -30l-86 -80l-27 -25q-6 0 -27 13l-206 141l-199 -133q-28 -17 -36.5 -18t-22.5 12l-86 82 q-10 9 -12.5 25.5zM543 373q-7 -67 16.5 -108.5t71.5 -49.5q26 -6 51 8t27 29q0 18 2 50.5t2 47.5q0 98 -21.5 126t-85.5 1q-51 -16 -63 -104z" />
<glyph unicode="&#xe3;" horiz-adv-x="1400" d="M70 313q5 119 93 208t257 126q34 10 76 10q147 2 184 -6q5 -1 13 5.5t15 22t7 34.5q0 31 -17 118l-12 52v4q-15 47 -52 63t-75 -8q-45 -31 -82 -86q-49 -72 -91.5 -102t-98.5 -33q-62 -3 -103.5 36.5t-38.5 100.5q2 65 45 115.5t148 101.5q93 49 237 66q97 11 174.5 11.5 t141 -11.5t110.5 -34t82.5 -59.5t58.5 -85t37.5 -113.5t20 -141.5t4.5 -172.5q-1 -16 -2 -46t-2 -45q-3 -89 10.5 -118t75.5 -64q36 -19 43.5 -68t-22.5 -104q-30 -49 -103 -81t-190 -38q-81 -4 -129 12.5t-88 59.5l-11 12l-16 23q-14 21 -23.5 20t-29.5 -26 q-98 -109 -275 -103q-247 6 -340 178q-35 72 -32 166zM238 1255l77 275q2 6 16 9.5t75 12.5q158 20 307 -10l12 -2l84 -20q75 -17 117.5 -17t91.5 19l108 24l-143 -276q-4 -16 -70 -21q-24 -3 -61 0q-7 0 -31 4h-2l-86 23q-100 26 -159.5 31t-137.5 -4q-73 -10 -129 -25z M543 373q-7 -67 16.5 -108.5t71.5 -49.5q26 -6 51 8t27 29q0 18 2 50.5t2 47.5q0 98 -21.5 126t-85.5 1q-51 -16 -63 -104z" />
<glyph unicode="&#xe4;" horiz-adv-x="1400" d="M70 313q5 119 93 208t257 126q34 10 76 10q147 2 184 -6q5 -1 13 5.5t15 22t7 34.5q0 31 -17 118l-12 52v4q-15 47 -52 63t-75 -8q-45 -31 -82 -86q-49 -72 -91.5 -102t-98.5 -33q-62 -3 -103.5 36.5t-38.5 100.5q2 65 45 115.5t148 101.5q93 49 237 66q97 11 174.5 11.5 t141 -11.5t110.5 -34t82.5 -59.5t58.5 -85t37.5 -113.5t20 -141.5t4.5 -172.5q-1 -16 -2 -46t-2 -45q-3 -89 10.5 -118t75.5 -64q36 -19 43.5 -68t-22.5 -104q-30 -49 -103 -81t-190 -38q-81 -4 -129 12.5t-88 59.5l-11 12l-16 23q-14 21 -23.5 20t-29.5 -26 q-98 -109 -275 -103q-247 6 -340 178q-35 72 -32 166zM147 1475q0 22 13 38q73 116 126.5 158t103 27.5t120.5 -86.5q91 -89 91.5 -137.5t-87.5 -137.5q-62 -62 -101 -79.5t-77.5 -0.5t-99.5 78q-89 89 -89 140zM543 373q-7 -67 16.5 -108.5t71.5 -49.5q26 -6 51 8t27 29 q0 18 2 50.5t2 47.5q0 98 -21.5 126t-85.5 1q-51 -16 -63 -104zM674 1479q0 24 19 53t71 80q98 106 170 88t180 -187q28 -42 -10 -108t-160 -143q-32 -24 -75 -7.5t-109 82.5q-89 89 -86 142z" />
<glyph unicode="&#xe5;" horiz-adv-x="1400" d="M70 313q5 119 93 208t257 126q34 10 76 10q147 2 184 -6q5 -1 13 5.5t15 22t7 34.5q0 31 -17 118l-12 52v4q-15 47 -52 63t-75 -8q-45 -31 -82 -86q-49 -72 -91.5 -102t-98.5 -33q-62 -3 -103.5 36.5t-38.5 100.5q2 65 45 115.5t148 101.5q93 49 237 66q97 11 174.5 11.5 t141 -11.5t110.5 -34t82.5 -59.5t58.5 -85t37.5 -113.5t20 -141.5t4.5 -172.5q-1 -16 -2 -46t-2 -45q-3 -89 10.5 -118t75.5 -64q36 -19 43.5 -68t-22.5 -104q-30 -49 -103 -81t-190 -38q-81 -4 -129 12.5t-88 59.5l-11 12l-16 23q-14 21 -23.5 20t-29.5 -26 q-98 -109 -275 -103q-247 6 -340 178q-35 72 -32 166zM449 1493q0 100 71 171t172 71q97 0 172 -72q70 -71 70 -171t-70 -171q-75 -72 -172 -72q-101 0 -172 71.5t-71 172.5zM543 373q-7 -67 16.5 -108.5t71.5 -49.5q26 -6 51 8t27 29q0 18 2 50.5t2 47.5q0 98 -21.5 126 t-85.5 1q-51 -16 -63 -104zM586 1489q0 -44 31.5 -74.5t76.5 -30.5q48 0 76 31q31 31 31 75t-31 75q-27 30 -76 30q-44 0 -76 -31t-32 -75z" />
<glyph unicode="&#xe6;" horiz-adv-x="1972" d="M76 250q-19 145 69 252.5t281 148.5q33 8 74 8q144 2 186 -4q5 -1 12.5 5t14 21.5t6.5 35.5q0 47 -14 119l-13 51v4q-13 47 -51.5 63t-75.5 -8q-45 -28 -84 -86q-47 -71 -90.5 -101.5t-101.5 -33.5q-60 -3 -101.5 36.5t-40.5 100.5q2 65 45 116t150 103q136 66 315 72 q164 4 248 -22.5t144 -96.5q66 69 155 98t215 19q84 -9 164 -45q254 -109 301 -344l12 -80q11 -64 1.5 -90t-56.5 -55q-75 -50 -241.5 -60t-335.5 37q-21 6 -41 6q-14 0 -19.5 -11.5t0.5 -31.5q13 -41 39 -78q68 -98 171.5 -123t219.5 31q81 39 111 62q9 6 47 -9 q44 -18 66 -71q14 -48 -20 -99t-132 -118q-79 -55 -181 -77.5t-286 -25.5q-213 -3 -278 8q-113 21 -158 66l-6 8l-21 29q-14 20 -22.5 19t-32.5 -25q-94 -111 -275 -105q-253 6 -340 178q-24 49 -30 103zM549 373q-7 -65 16.5 -106.5t71.5 -49.5q27 -6 51.5 7t26.5 28 q0 19 1 52t1 48q0 99 -21 126.5t-86 0.5q-50 -16 -61 -106zM1200 793q-1 -40 8.5 -53t38.5 -11h66l28 2h31l35 2q49 3 61.5 31.5t-12.5 93.5q-22 60 -79.5 77t-112.5 -20q-61 -46 -64 -122z" />
<glyph unicode="&#xe7;" horiz-adv-x="1267" d="M70 551q-3 106 26 192q70 209 277 328q114 63 268 78q192 14 311 -31q133 -50 201.5 -130t65.5 -173q-6 -163 -134 -219q-88 -38 -164.5 -5t-119.5 126q-23 51 -35 86q-6 22 -32.5 32t-67.5 1q-37 -10 -66 -58q-26 -35 -29 -88.5t21 -120.5q26 -79 76 -128.5t118 -63.5 q56 -12 103 -3t151 52q6 4 39 4q54 2 87.5 -40.5t29.5 -115.5q-3 -89 -143 -190q-65 -49 -168 -82q-184 -63 -369 -10q-76 17 -129 51q-271 149 -311 442q-6 30 -6 66zM473 -598q5 19 23 33l47 16q58 21 94 78q20 35 5.5 65.5t-60.5 43.5l-29 10l-8 2q-38 9 -27 28l14 13 l160 151q19 19 51 13q5 -1 23 -7l12 -6l31 -16q3 -2 22.5 -13t28.5 -18q80 -48 86.5 -130.5t-67.5 -151.5q-41 -41 -78 -64q-191 -125 -295 -100q-21 4 -30 19t-3 34z" />
<glyph unicode="&#xe8;" horiz-adv-x="1310" d="M70 559q6 334 317 508q150 83 303 86q110 0 232 -51q128 -55 208 -152.5t101 -216.5q15 -98 6 -133t-61 -68q-31 -20 -103 -32.5t-198.5 -11.5t-272.5 22q-6 4 -22 4q-20 -3 -27.5 -19t0.5 -44q6 -25 19 -46t44 -55q142 -161 439 2q17 10 26 17q9 6 45 -9q48 -20 66 -73 q14 -47 -20.5 -99t-133.5 -118q-91 -61 -211.5 -87t-255.5 -8q-336 41 -458 351q-35 86 -41 174q-2 20 -2 59zM290.5 1520.5q-2.5 19.5 14.5 38.5l148 145q21 20 28.5 19.5t28.5 -21.5l289 -285q27 -27 2 -55l-86 -86q-22 -20 -30.5 -20.5t-37.5 16.5l-334 215 q-20 14 -22.5 33.5zM538 776.5q-2 -13.5 2.5 -25t10.5 -16t26.5 -7t40 -2t60.5 2.5l57 2h6q52 8 63.5 33.5t-11.5 91.5q-7 19 -31 51q-46 41 -106.5 28.5t-96.5 -75.5q-12 -28 -14 -45q-5 -25 -7 -38.5z" />
<glyph unicode="&#xe9;" horiz-adv-x="1310" d="M70 559q6 334 317 508q150 83 303 86q110 0 232 -51q128 -55 208 -152.5t101 -216.5q15 -98 6 -133t-61 -68q-31 -20 -103 -32.5t-198.5 -11.5t-272.5 22q-6 4 -22 4q-20 -3 -27.5 -19t0.5 -44q6 -25 19 -46t44 -55q142 -161 439 2q17 10 26 17q9 6 45 -9q48 -20 66 -73 q14 -47 -20.5 -99t-133.5 -118q-91 -61 -211.5 -87t-255.5 -8q-336 41 -458 351q-35 86 -41 174q-2 20 -2 59zM538 776.5q-2 -13.5 2.5 -25t10.5 -16t26.5 -7t40 -2t60.5 2.5l57 2h6q52 8 63.5 33.5t-11.5 91.5q-7 19 -31 51q-46 41 -106.5 28.5t-96.5 -75.5 q-12 -28 -14 -45q-5 -25 -7 -38.5zM582 1409l290 281q17 20 27 20.5t27 -18.5l151 -154q15 -15 12.5 -34t-22.5 -31l-336 -207q-26 -17 -34.5 -17t-28.5 17l-82 71q-41 35 -4 72z" />
<glyph unicode="&#xea;" horiz-adv-x="1310" d="M70 559q6 334 317 508q150 83 303 86q110 0 232 -51q128 -55 208 -152.5t101 -216.5q15 -98 6 -133t-61 -68q-31 -20 -103 -32.5t-198.5 -11.5t-272.5 22q-6 4 -22 4q-20 -3 -27.5 -19t0.5 -44q6 -25 19 -46t44 -55q142 -161 439 2q17 10 26 17q9 6 45 -9q48 -20 66 -73 q14 -47 -20.5 -99t-133.5 -118q-91 -61 -211.5 -87t-255.5 -8q-336 41 -458 351q-35 86 -41 174q-2 20 -2 59zM330 1371.5q-2 16.5 6 31.5q2 4 10 12l303 262q23 20 37.5 20t34.5 -20l305 -260q15 -13 16.5 -33t-10.5 -30l-86 -80l-24 -25q-6 0 -29 13l-205 141l-201 -133 q-27 -17 -35.5 -18t-23.5 12l-86 82q-10 9 -12 25.5zM538 776.5q-2 -13.5 2.5 -25t10.5 -16t26.5 -7t40 -2t60.5 2.5l57 2h6q52 8 63.5 33.5t-11.5 91.5q-7 19 -31 51q-46 41 -106.5 28.5t-96.5 -75.5q-12 -28 -14 -45q-5 -25 -7 -38.5z" />
<glyph unicode="&#xeb;" horiz-adv-x="1310" d="M70 559q6 334 317 508q150 83 303 86q110 0 232 -51q128 -55 208 -152.5t101 -216.5q15 -98 6 -133t-61 -68q-31 -20 -103 -32.5t-198.5 -11.5t-272.5 22q-6 4 -22 4q-20 -3 -27.5 -19t0.5 -44q6 -25 19 -46t44 -55q142 -161 439 2q17 10 26 17q9 6 45 -9q48 -20 66 -73 q14 -47 -20.5 -99t-133.5 -118q-91 -61 -211.5 -87t-255.5 -8q-336 41 -458 351q-35 86 -41 174q-2 20 -2 59zM188 1475q0 23 15 38q105 169 177 187t173 -88q48 -47 69 -76.5t21 -61t-20.5 -61t-67.5 -76.5q-61 -62 -99.5 -79.5t-77 -0.5t-99.5 78q-91 91 -91 140z M538 776.5q-2 -13.5 2.5 -25t10.5 -16t26.5 -7t40 -2t60.5 2.5l57 2h6q52 8 63.5 33.5t-11.5 91.5q-7 19 -31 51q-46 41 -106.5 28.5t-96.5 -75.5q-12 -28 -14 -45q-5 -25 -7 -38.5zM715 1479q0 24 19 53t71 80q99 106 171.5 88t180.5 -187q27 -42 -10.5 -108t-159.5 -143 q-32 -24 -76.5 -7t-109.5 82q-89 89 -86 142z" />
<glyph unicode="&#xec;" horiz-adv-x="913" d="M59.5 1520.5q-2.5 19.5 14.5 38.5l147 145q21 20 29.5 19.5t30.5 -21.5l286 -285q27 -27 2 -55l-86 -86q-22 -20 -30 -20.5t-37 16.5l-334 215q-20 14 -22.5 33.5zM72 918q3 41 40.5 68.5t149.5 66.5q47 20 131 41q95 24 154 32q42 6 64 9t47 1t35 -3.5t21 -16t13 -25.5 t3 -42.5t-1 -56t-6 -77.5v-20l-4 -301q-3 -247 -1 -276q5 -50 29 -69q9 -7 31 -18q46 -25 58.5 -52.5t-0.5 -78.5q-14 -50 -73.5 -78t-187.5 -38q-37 -4 -114 -4l-62 4l-129 6q-62 4 -96 10q-73 11 -96 60.5t16 117.5q15 31 70 66q10 6 15.5 25.5t10.5 81.5t9 181 q3 111 -2.5 166t-21 82t-50.5 51q-59 34 -53 87z" />
<glyph unicode="&#xed;" horiz-adv-x="913" d="M72 918q3 41 40.5 68.5t149.5 66.5q47 20 131 41q95 24 154 32q42 6 64 9t47 1t35 -3.5t21 -16t13 -25.5t3 -42.5t-1 -56t-6 -77.5v-20l-4 -301q-3 -247 -1 -276q5 -50 29 -69q9 -7 31 -18q46 -25 58.5 -52.5t-0.5 -78.5q-14 -50 -73.5 -78t-187.5 -38q-37 -4 -114 -4 l-62 4l-129 6q-62 4 -96 10q-73 11 -96 60.5t16 117.5q15 31 70 66q10 6 15.5 25.5t10.5 81.5t9 181q3 111 -2.5 166t-21 82t-50.5 51q-59 34 -53 87zM205 1409l289 281q19 20 28.5 20.5t24.5 -18.5l151 -154q15 -15 12.5 -34t-22.5 -31l-336 -207q-26 -17 -34 -17t-27 17 l-82 71q-44 35 -4 72z" />
<glyph unicode="&#xee;" horiz-adv-x="913" d="M35.5 1371.5q-1.5 16.5 7.5 31.5q2 4 10 12l303 262q22 20 36 20t34 -20l305 -260q17 -13 18.5 -33t-12.5 -30l-86 -80l-24 -25q-6 0 -27 13l-207 141l-200 -133q-26 -17 -35 -18t-23 12l-86 82q-12 9 -13.5 25.5zM72 918q3 41 40.5 68.5t149.5 66.5q47 20 131 41 q95 24 154 32q42 6 64 9t47 1t35 -3.5t21 -16t13 -25.5t3 -42.5t-1 -56t-6 -77.5v-20l-4 -301q-3 -247 -1 -276q5 -50 29 -69q9 -7 31 -18q46 -25 58.5 -52.5t-0.5 -78.5q-14 -50 -73.5 -78t-187.5 -38q-37 -4 -114 -4l-62 4l-129 6q-62 4 -96 10q-73 11 -96 60.5t16 117.5 q15 31 70 66q10 6 15.5 25.5t10.5 81.5t9 181q3 111 -2.5 166t-21 82t-50.5 51q-59 34 -53 87z" />
<glyph unicode="&#xef;" horiz-adv-x="913" d="M-104 1475q0 23 12 38q73 116 126.5 158t103 27.5t120.5 -86.5q48 -47 69 -76.5t21 -61t-20.5 -61t-67.5 -76.5q-61 -62 -99.5 -79.5t-77 -0.5t-99.5 78q-88 88 -88 140zM72 918q3 41 40.5 68.5t149.5 66.5q47 20 131 41q95 24 154 32q42 6 64 9t47 1t35 -3.5t21 -16 t13 -25.5t3 -42.5t-1 -56t-6 -77.5v-20l-4 -301q-3 -247 -1 -276q5 -50 29 -69q9 -7 31 -18q46 -25 58.5 -52.5t-0.5 -78.5q-14 -50 -73.5 -78t-187.5 -38q-37 -4 -114 -4l-62 4l-129 6q-62 4 -96 10q-73 11 -96 60.5t16 117.5q15 31 70 66q10 6 15.5 25.5t10.5 81.5t9 181 q3 111 -2.5 166t-21 82t-50.5 51q-59 34 -53 87zM420 1479q0 23 19 52t71 81q99 106 171.5 88t180.5 -187q27 -42 -10.5 -108t-159.5 -143q-32 -24 -75.5 -7.5t-110.5 82.5q-50 52 -69 84t-17 58z" />
<glyph unicode="&#xf1;" horiz-adv-x="1683" d="M70 934q11 57 80 84l100 43l4 4q99 37 199 63h2l127 23q84 12 117.5 -14t33.5 -93v-8l-2 -49q0 -14 2 -22q2 -4 8 -1.5t15 7.5q7 2 20 18l4 6l25 35q24 35 55 60q82 63 207 63q24 0 94 -8q119 -19 178.5 -56t104.5 -122q29 -50 37.5 -125t11.5 -295l4 -164v-35 q0 -63 7 -81t44 -50q5 -4 11.5 -10.5t14 -14.5t11.5 -12q36 -35 28.5 -82.5t-52.5 -70.5q-31 -16 -95 -27l-84 -14l-20 -2q-94 -7 -217 0q-112 7 -141 16q-69 18 -100.5 48.5t-26.5 68.5q3 31 15 50.5t52 61.5q17 20 19 103l2 14l4 92q7 142 -8.5 215.5t-53.5 106.5 q-41 33 -86.5 24.5t-64.5 -51.5q-11 -20 -14.5 -54.5t-2.5 -123.5v-63q1 -178 10 -214q6 -28 37 -75q6 -8 9 -13q15 -21 18 -57q3 -62 -48.5 -95.5t-191.5 -51.5q-24 -4 -36 -4q-20 -2 -109 -2q-82 0 -111 4q-106 19 -141.5 29.5t-52.5 29.5q-91 89 35 158q40 17 51 84l2 4 l10 233q2 57 3 86.5t0 66t-3 52t-9 36t-15 28t-23.5 18.5t-32 16t-43.5 13q-6 0 -20 39q-11 38 -8 57zM573 1255l78 275q2 6 16 9.5t74 12.5q159 20 308 -10l12 -2l86 -20q73 -17 115.5 -17t91.5 19l47 24l-80 -276q-4 -16 -72 -21q-23 -3 -61 0q-9 0 -29 4h-2l-86 23 q-101 26 -161 31t-138 -4q-65 -9 -129 -25z" />
<glyph unicode="&#xf2;" horiz-adv-x="1462" d="M74 471q-10 94 10 182q15 85 61 164q56 104 158 184q63 46 125 75.5t152 51.5q80 18 106 21q159 12 270 -21q167 -44 275 -147q153 -150 162 -360q6 -122 -60 -275q-74 -160 -227 -262q-113 -76 -281 -104q-77 -14 -137 -11q-122 4 -211 35.5t-186 104.5q-51 42 -80 75 q-65 77 -96.5 143.5t-40.5 143.5zM374.5 1514q-2.5 19 14.5 38l148 146q21 20 29 19.5t30 -21.5l287 -285q29 -29 2 -55l-86 -86q-22 -20 -30.5 -20.5t-37.5 16.5l-334 215q-20 14 -22.5 33zM600 739q-9 -70 14 -190q3 -22 21 -96q33 -109 53.5 -149.5t50.5 -59.5 q37 -23 77.5 -1t47.5 76q7 64 2 99l-6 45l-6 57q-19 128 -41 191q-25 69 -42 98.5t-42 44.5q-31 19 -66 8t-45 -43q-15 -38 -18 -80z" />
<glyph unicode="&#xf3;" horiz-adv-x="1462" d="M74 471q-10 94 10 182q15 85 61 164q56 104 158 184q63 46 125 75.5t152 51.5q80 18 106 21q159 12 270 -21q167 -44 275 -147q153 -150 162 -360q6 -122 -60 -275q-74 -160 -227 -262q-113 -76 -281 -104q-77 -14 -137 -11q-122 4 -211 35.5t-186 104.5q-51 42 -80 75 q-65 77 -96.5 143.5t-40.5 143.5zM600 739q-9 -70 14 -190q3 -22 21 -96q33 -109 53.5 -149.5t50.5 -59.5q37 -23 77.5 -1t47.5 76q7 64 2 99l-6 45l-6 57q-19 128 -41 191q-25 69 -42 98.5t-42 44.5q-31 19 -66 8t-45 -43q-15 -38 -18 -80zM666 1409l290 281q17 20 28 20.5 t26 -18.5l151 -154q15 -15 12.5 -34t-22.5 -31l-336 -207q-26 -17 -34 -17t-27 17l-82 71q-43 35 -6 72z" />
<glyph unicode="&#xf4;" horiz-adv-x="1462" d="M74 471q-10 94 10 182q15 85 61 164q56 104 158 184q63 46 125 75.5t152 51.5q80 18 106 21q159 12 270 -21q167 -44 275 -147q153 -150 162 -360q6 -122 -60 -275q-74 -160 -227 -262q-113 -76 -281 -104q-77 -14 -137 -11q-122 4 -211 35.5t-186 104.5q-51 42 -80 75 q-65 77 -96.5 143.5t-40.5 143.5zM393.5 1371.5q-2.5 16.5 5.5 31.5q1 2 11 12l303 262q22 20 36.5 20t34.5 -20l306 -260q15 -13 16.5 -33t-10.5 -30l-86 -80l-27 -25q-6 0 -27 13l-204 141l-201 -133q-26 -17 -35.5 -18t-23.5 12l-86 82q-10 9 -12.5 25.5zM600 739 q-9 -70 14 -190q3 -22 21 -96q33 -109 53.5 -149.5t50.5 -59.5q37 -23 77.5 -1t47.5 76q7 64 2 99l-6 45l-6 57q-19 128 -41 191q-25 69 -42 98.5t-42 44.5q-31 19 -66 8t-45 -43q-15 -38 -18 -80z" />
<glyph unicode="&#xf5;" horiz-adv-x="1462" d="M74 471q-10 94 10 182q15 85 61 164q56 104 158 184q63 46 125 75.5t152 51.5q80 18 106 21q159 12 270 -21q167 -44 275 -147q153 -150 162 -360q6 -122 -60 -275q-74 -160 -227 -262q-113 -76 -281 -104q-77 -14 -137 -11q-122 4 -211 35.5t-186 104.5q-51 42 -80 75 q-65 77 -96.5 143.5t-40.5 143.5zM322 1257l77 275q2 6 16 9.5t74 12.5q159 20 308 -10l12 -2l84 -20q75 -17 117.5 -17t91.5 19l47 24l-80 -276q-4 -16 -72 -21q-24 -3 -61 0q-9 0 -29 4h-4l-86 23q-100 26 -159.5 31t-137.5 -4q-73 -10 -129 -25zM600 739q-9 -70 14 -190 q3 -22 21 -96q33 -109 53.5 -149.5t50.5 -59.5q37 -23 77.5 -1t47.5 76q7 64 2 99l-6 45l-6 57q-19 128 -41 191q-25 69 -42 98.5t-42 44.5q-31 19 -66 8t-45 -43q-15 -38 -18 -80z" />
<glyph unicode="&#xf6;" horiz-adv-x="1462" d="M74 471q-10 94 10 182q15 85 61 164q56 104 158 184q63 46 125 75.5t152 51.5q80 18 106 21q159 12 270 -21q167 -44 275 -147q153 -150 162 -360q6 -122 -60 -275q-74 -160 -227 -262q-113 -76 -281 -104q-77 -14 -137 -11q-122 4 -211 35.5t-186 104.5q-51 42 -80 75 q-65 77 -96.5 143.5t-40.5 143.5zM252 1475q0 23 12 38q73 116 126.5 158t103.5 27.5t122 -86.5q62 -62 79.5 -100t0.5 -75.5t-78 -99.5q-62 -62 -100.5 -79.5t-77 -0.5t-100.5 78q-88 88 -88 140zM600 739q-9 -70 14 -190q3 -22 21 -96q33 -109 53.5 -149.5t50.5 -59.5 q37 -23 77.5 -1t47.5 76q7 64 2 99l-6 45l-6 57q-19 128 -41 191q-25 69 -42 98.5t-42 44.5q-31 19 -66 8t-45 -43q-15 -38 -18 -80zM778 1479q0 24 19 53t71 80q71 72 120.5 86.5t103.5 -27.5t127 -158q28 -42 -9.5 -108t-160.5 -143q-30 -24 -75 -7t-110 82 q-89 89 -86 142z" />
<glyph unicode="&#xf7;" horiz-adv-x="1245" d="M70 496v116h1106v-116h-1106zM494 266q0 50 34.5 84.5t83.5 34.5t83 -34.5t34 -84.5q0 -48 -34 -82t-83 -34t-83.5 34t-34.5 82zM494 842q0 49 34 82.5t84 33.5t83.5 -33.5t33.5 -82.5q0 -50 -34 -84.5t-83 -34.5t-83.5 34.5t-34.5 84.5z" />
<glyph unicode="&#xf8;" horiz-adv-x="1462" d="M66.5 39.5q0.5 15.5 11.5 23.5q9 7 23.5 19t44.5 37t50.5 41.5t20.5 15.5q-2 4 -6 8q-65 77 -96.5 143.5t-40.5 143.5q-10 94 10 182q15 85 61 164q56 104 158 184q63 46 125 75.5t152 51.5q80 18 106 21q159 12 270 -21q161 -45 254 -129l131 107q8 9 25 5.5t31 -21.5 q11 -18 10.5 -32.5t-8.5 -21.5q-125 -100 -127 -100q112 -136 121 -315q6 -122 -60 -275q-74 -160 -227 -262q-113 -76 -281 -104q-77 -14 -137 -11q-122 4 -211 35.5t-186 104.5q-2 2 -8 6.5t-9 7.5l-153 -127q-9 -7 -22.5 -3t-22.5 17q-10 14 -9.5 29.5zM600 739 q-9 -70 14 -190q1 -4 3.5 -17.5t3.5 -21.5q13 11 33.5 28.5t64.5 54.5t73 61.5t29 23.5q0 2 -8 33q-25 69 -42 98.5t-42 44.5q-31 19 -66 8t-45 -43q-15 -38 -18 -80zM643 422q28 -90 47.5 -125t48.5 -53q37 -23 77.5 -1t47.5 76q7 64 2 99l-6 45l-6 57q-9 59 -10 64z" />
<glyph unicode="&#xf9;" horiz-adv-x="1685" d="M74 991q6 30 34.5 48.5t106.5 39.5q46 14 199 31q68 8 106.5 12t79 5.5t59 0.5t37.5 -9t24.5 -16.5t10 -28.5t4 -38.5t-3.5 -52.5q-13 -150 -10 -473v-33l2 -59q3 -89 52.5 -129t119.5 -15q42 15 63.5 52t29.5 123t1 243l-2 53l-6 39q-3 46 -22 74.5t-74 67.5 q-15 10 -20 30t3 50q8 31 68 69q71 37 250 47l92 4l68 4q24 0 38 -2q72 -4 91 -29.5t14 -107.5v-14l-2 -86v-27v-166q0 -198 -4 -235q-5 -101 -3.5 -130t11.5 -40l4 -2l64 -35q44 -22 56 -58.5t-13 -70.5q-17 -28 -45.5 -47t-92.5 -45q-7 -2 -20.5 -6t-20.5 -6l-37 -11 l-63 -16q-32 -8 -92 -16q-133 -10 -176 -5.5t-56 23.5l-4 63q-4 44 -21 62t-38 8l-37 -35q-16 -19 -63 -47q-109 -72 -209 -78q-122 -7 -199 19t-126.5 99.5t-69 193t-19.5 309.5q0 62 4 194q2 3 -4 23q-8 21 -18 33q-23 29 -80 51q-20 7 -37 51q-7 20 -4 47zM436.5 1520.5 q-2.5 19.5 16.5 38.5l147 145q21 20 28.5 19.5t28.5 -21.5l289 -285q27 -27 2 -55l-86 -86q-22 -20 -30 -20.5t-37 16.5l-334 215q-22 14 -24.5 33.5z" />
<glyph unicode="&#xfa;" horiz-adv-x="1685" d="M74 991q6 30 34.5 48.5t106.5 39.5q46 14 199 31q68 8 106.5 12t79 5.5t59 0.5t37.5 -9t24.5 -16.5t10 -28.5t4 -38.5t-3.5 -52.5q-13 -150 -10 -473v-33l2 -59q3 -89 52.5 -129t119.5 -15q42 15 63.5 52t29.5 123t1 243l-2 53l-6 39q-3 46 -22 74.5t-74 67.5 q-15 10 -20 30t3 50q8 31 68 69q71 37 250 47l92 4l68 4q24 0 38 -2q72 -4 91 -29.5t14 -107.5v-14l-2 -86v-27v-166q0 -198 -4 -235q-5 -101 -3.5 -130t11.5 -40l4 -2l64 -35q44 -22 56 -58.5t-13 -70.5q-17 -28 -45.5 -47t-92.5 -45q-7 -2 -20.5 -6t-20.5 -6l-37 -11 l-63 -16q-32 -8 -92 -16q-133 -10 -176 -5.5t-56 23.5l-4 63q-4 44 -21 62t-38 8l-37 -35q-16 -19 -63 -47q-109 -72 -209 -78q-122 -7 -199 19t-126.5 99.5t-69 193t-19.5 309.5q0 62 4 194q2 3 -4 23q-8 21 -18 33q-23 29 -80 51q-20 7 -37 51q-7 20 -4 47zM733 1409 l291 281q17 20 26.5 20.5t26.5 -18.5l152 -154q15 -15 12 -34t-24 -31l-334 -207q-26 -17 -35 -17t-29 17l-82 71q-41 35 -4 72z" />
<glyph unicode="&#xfb;" horiz-adv-x="1685" d="M74 991q6 30 34.5 48.5t106.5 39.5q46 14 199 31q68 8 106.5 12t79 5.5t59 0.5t37.5 -9t24.5 -16.5t10 -28.5t4 -38.5t-3.5 -52.5q-13 -150 -10 -473v-33l2 -59q3 -89 52.5 -129t119.5 -15q42 15 63.5 52t29.5 123t1 243l-2 53l-6 39q-3 46 -22 74.5t-74 67.5 q-15 10 -20 30t3 50q8 31 68 69q71 37 250 47l92 4l68 4q24 0 38 -2q72 -4 91 -29.5t14 -107.5v-14l-2 -86v-27v-166q0 -198 -4 -235q-5 -101 -3.5 -130t11.5 -40l4 -2l64 -35q44 -22 56 -58.5t-13 -70.5q-17 -28 -45.5 -47t-92.5 -45q-7 -2 -20.5 -6t-20.5 -6l-37 -11 l-63 -16q-32 -8 -92 -16q-133 -10 -176 -5.5t-56 23.5l-4 63q-4 44 -21 62t-38 8l-37 -35q-16 -19 -63 -47q-109 -72 -209 -78q-122 -7 -199 19t-126.5 99.5t-69 193t-19.5 309.5q0 62 4 194q2 3 -4 23q-8 21 -18 33q-23 29 -80 51q-20 7 -37 51q-7 20 -4 47zM432.5 1371.5 q-1.5 16.5 7.5 31.5q1 2 11 12l303 262q22 20 35.5 20t33.5 -20l305 -260q17 -13 19 -33t-12 -30l-86 -80l-25 -25q-6 0 -27 13l-206 141l-199 -133q-28 -17 -37 -18t-23 12l-86 82q-12 9 -13.5 25.5z" />
<glyph unicode="&#xfc;" horiz-adv-x="1685" d="M74 991q6 30 34.5 48.5t106.5 39.5q46 14 199 31q68 8 106.5 12t79 5.5t59 0.5t37.5 -9t24.5 -16.5t10 -28.5t4 -38.5t-3.5 -52.5q-13 -150 -10 -473v-33l2 -59q3 -89 52.5 -129t119.5 -15q42 15 63.5 52t29.5 123t1 243l-2 53l-6 39q-3 46 -22 74.5t-74 67.5 q-15 10 -20 30t3 50q8 31 68 69q71 37 250 47l92 4l68 4q24 0 38 -2q72 -4 91 -29.5t14 -107.5v-14l-2 -86v-27v-166q0 -198 -4 -235q-5 -101 -3.5 -130t11.5 -40l4 -2l64 -35q44 -22 56 -58.5t-13 -70.5q-17 -28 -45.5 -47t-92.5 -45q-7 -2 -20.5 -6t-20.5 -6l-37 -11 l-63 -16q-32 -8 -92 -16q-133 -10 -176 -5.5t-56 23.5l-4 63q-4 44 -21 62t-38 8l-37 -35q-16 -19 -63 -47q-109 -72 -209 -78q-122 -7 -199 19t-126.5 99.5t-69 193t-19.5 309.5q0 62 4 194q2 3 -4 23q-8 21 -18 33q-23 29 -80 51q-20 7 -37 51q-7 20 -4 47zM336 1475 q0 23 12 38q73 116 126.5 158t103.5 27.5t122 -86.5q62 -62 79.5 -100t0.5 -75.5t-78 -99.5q-62 -62 -100.5 -79.5t-77 -0.5t-100.5 78q-88 91 -88 140zM862 1479q0 24 19 53t71 80q99 106 172 88t181 -187q27 -42 -11 -108t-161 -143q-30 -24 -75 -7t-110 82 q-89 89 -86 142z" />
<glyph unicode="&#xff;" horiz-adv-x="1439" d="M-4 936q-3 43 37 92q22 26 68 43t149 37q87 18 264 12l16 -2l78 -4q29 -2 88 -10q74 -14 103.5 -75t-8.5 -130q-5 -10 -23 -37q-12 -19 8 -71l2 -7l33 -75q7 -20 18 -37q32 -68 48 -84t36 18q32 69 45 131q2 12 7 32q12 58 7 75q-5 15 -37 57q-7 9 -11 14 q-44 55 -22.5 111t97.5 78q37 11 82 14q53 4 138 4q86 1 128 -11t74 -44q8 -13 15 -31q22 -59 -9 -106h-2l-98 -60q-35 -20 -55 -39.5t-44 -59t-52 -118t-67.5 -196t-102.5 -313.5q-23 -71 -35 -109q-5 -22 -19 -49q-27 -66 -53 -109q-57 -94 -106 -148t-109 -89 q-90 -50 -186 -62q-101 -14 -189.5 5t-146.5 61t-89 100t-26 119q9 98 45.5 142t122.5 63q188 38 252 -201q3 -8 8 -35q0 -12 10 -22q9 -9 21 -10t18 7q30 26 35 89q3 29 -5.5 64t-39.5 108l-166 331q-166 339 -180 363q-27 48 -51 63q-6 3 -21 11l-55 26l-10 2 q-32 11 -35 72zM315 1477q0 23 13 39q55 87 96.5 131.5t83 54t80 -11.5t92.5 -74q47 -48 67.5 -77t21 -61.5t-19.5 -61.5t-67 -77q-62 -61 -101 -78t-77.5 -0.5t-100.5 76.5q-88 88 -88 140zM842 1481q0 23 18.5 52.5t71.5 82.5t91 74t79 11.5t82.5 -53.5t97.5 -132 q28 -42 -10 -108.5t-160 -143.5q-30 -24 -74.5 -7t-109.5 82q-89 89 -86 142z" />
<glyph unicode="&#x152;" horiz-adv-x="2603" d="M71 843q5 86 35 175q51 148 113 236t170 167q101 73 200 111.5t222 50.5q186 18 346 -29h60l131 -4q354 -8 618 6q165 10 209 15q59 5 100.5 1t71.5 -28.5t50 -69t36 -120.5q18 -96 1.5 -155t-58.5 -87q-51 -31 -90 -13t-117 109q-6 5 -27 31q-17 23 -88 47.5t-158 24.5 q-98 0 -139.5 -12.5t-54.5 -38.5l-12 -76q-11 -78 -11 -172q2 -54 40.5 -80t97.5 -6q47 15 59 40t18 117q2 25 21.5 46t54.5 30q54 13 96.5 -32t67.5 -154q12 -62 12 -125q6 -192 -39 -291q-33 -75 -81 -96.5t-91 12.5q-26 18 -32 36.5t-9 84.5q0 12 -6 24q-24 51 -51 64.5 t-72 1.5q-46 -15 -54.5 -36t-0.5 -101l2 -21l2 -86l2 -16l4 -62q3 -48 26.5 -71t83.5 -29.5t163 12.5l102 19l8 2q134 43 199 211q13 33 53 51q20 10 54 8t63 -16q64 -30 61 -154q-5 -58 -12 -94q-14 -78 -88 -209l-12 -18l-21 -33q-22 -36 -46.5 -42.5t-90.5 5.5l-63 12 l-25 7q-10 2 -120 0q-153 -3 -298 -5q-140 -6 -405 0q-133 2 -167 -1.5t-173 -30.5q-43 -9 -148 -4q-107 5 -215 38q-125 41 -215.5 101t-165.5 149q-151 185 -182 365q-20 122 -15 208zM647 1032q-7 -108 47 -297q18 -73 49 -143q33 -71 60 -117q57 -95 111.5 -128 t121.5 -21q80 15 120.5 86t31.5 194q-7 55 -21 123q-55 225 -123 330q-50 80 -76 111.5t-55 46.5q-75 41 -144 17.5t-97 -99.5q-18 -38 -25 -103z" />
<glyph unicode="&#x153;" horiz-adv-x="2078" d="M84 653q15 85 61 164q56 104 158 184q62 46 123.5 74.5t153.5 52.5q78 18 98 19q126 11 187.5 0t164.5 -60l72 -36l20 -13q5 3 34 19.5t40 22l34 17t41.5 18t37.5 11.5q89 27 174 27q104 0 217 -47q120 -52 193.5 -143.5t97.5 -206.5l12 -78q13 -64 3.5 -90t-58.5 -56 q-30 -20 -101.5 -32.5t-196 -11.5t-266.5 22q-8 4 -20 4q-20 -3 -27.5 -19t0.5 -44q11 -43 62 -99q140 -159 430 4q6 3 26 15q9 6 46 -9q46 -22 61 -71q16 -47 -17 -97.5t-130 -115.5q-158 -106 -359 -109q-65 0 -100 4q-127 14 -260 105q-112 -72 -271 -98 q-77 -14 -137 -11q-122 4 -211 35.5t-186 104.5q-51 42 -80 75q-96 111 -126 222t-1 247zM600 739q-9 -70 14 -190q3 -22 21 -96q33 -109 53.5 -149.5t50.5 -59.5q37 -23 77.5 -1t47.5 76q7 64 2 99l-6 45l-6 57q-19 128 -41 191q-25 69 -42 98.5t-42 44.5q-31 19 -66 8 t-45 -43q-15 -38 -18 -80zM1322 785.5q-2 -13.5 2.5 -24.5t10.5 -15.5t26 -7t39 -2t60 2.5l56 2h6q52 9 62.5 33.5t-11.5 89.5q-7 22 -31 49q-45 41 -104.5 29t-94.5 -74q-12 -28 -14 -45q-5 -24 -7 -37.5z" />
<glyph unicode="&#x178;" horiz-adv-x="1777" d="M-2 1411q-12 100 108 129l72 14l15 2q82 11 208 11q201 3 292 -4.5t165 -32.5q70 -22 89 -76t-21 -108q-16 -19 -25 -27q-19 -15 39 -111l18 -28l35 -56q15 -23 27 -24.5t31 20.5q11 13 31 37q30 36 42 50.5t25.5 34t13 27.5t-2.5 19.5t-12.5 23t-25.5 26.5l-14 14 q-23 23 -16 73q6 47 49 77t139 48q69 13 139 17h51h50q146 -4 201 -30t61 -85q8 -99 -82 -125l-8 -2l-45 -8q-54 -9 -92 -39t-117 -123l-82 -100l-25 -29q-73 -87 -117 -127q-13 -13 -28 -68q-22 -77 -17 -188q2 -69 3.5 -109t5.5 -84t7.5 -65.5t12 -47t17.5 -36.5t25.5 -26 t33 -23.5t43.5 -20.5q26 -12 35.5 -40.5t-2.5 -67t-45 -72.5q-27 -26 -82 -39.5t-185 -25.5q-82 -9 -178 -6q-205 6 -330 43q-91 29 -119.5 63.5t-9.5 89.5q12 36 27.5 48.5t79.5 39.5q39 17 54 40.5t21.5 85t-1.5 171.5l-4 197q-10 49 -31 90l-64 80q-16 20 -46 58 q-54 68 -76.5 97t-58.5 71.5t-47.5 55.5t-37.5 36t-35 27.5t-33.5 16t-40 15.5t-47.5 12q-55 14 -63 94zM876.5 1821.5q-0.5 16.5 18.5 36.5l291 280q17 19 26.5 19t26.5 -17l152 -155q15 -13 12 -33t-23 -33l-336 -205q-26 -19 -34.5 -19t-28.5 19l-82 72 q-22 19 -22.5 35.5z" />
<glyph unicode="&#x2c6;" horiz-adv-x="712" d="M-63 1845q5 10 10 15l303 262q23 19 37.5 19t34.5 -19l305 -260q15 -15 16.5 -34.5t-10.5 -29.5l-86 -80l-25 -26q-6 0 -28 14l-205 139l-201 -131q-26 -19 -35 -20t-24 14l-86 82q-23 20 -6 55z" />
<glyph unicode="&#x2dc;" horiz-adv-x="964" d="M70 1702l77 274q3 8 91 21q154 23 307 -10l12 -2l84 -19q73 -17 116.5 -17t92.5 19l45 23l-80 -275q-4 -15 -72 -20q-22 -5 -59 0q-11 0 -31 4h-2l-86 22q-102 25 -160 29.5t-139 -4.5q-69 -7 -127 -23z" />
<glyph unicode="&#x2000;" horiz-adv-x="1089" />
<glyph unicode="&#x2001;" horiz-adv-x="2179" />
<glyph unicode="&#x2002;" horiz-adv-x="1089" />
<glyph unicode="&#x2003;" horiz-adv-x="2179" />
<glyph unicode="&#x2004;" horiz-adv-x="726" />
<glyph unicode="&#x2005;" horiz-adv-x="544" />
<glyph unicode="&#x2006;" horiz-adv-x="363" />
<glyph unicode="&#x2007;" horiz-adv-x="363" />
<glyph unicode="&#x2008;" horiz-adv-x="272" />
<glyph unicode="&#x2009;" horiz-adv-x="435" />
<glyph unicode="&#x200a;" horiz-adv-x="121" />
<glyph unicode="&#x2010;" horiz-adv-x="751" d="M74 469q-10 46 8 139q4 22 8 31l31 78q8 21 12.5 34t13 27t13 21t17 15t20.5 11t28 5.5t34.5 2t45 -2t55 -3.5t68.5 -6q39 -4 100 0q72 8 93 13q28 7 53 -31q18 -28 -10 -131l-33 -121q-23 -90 -84 -123q-32 -14 -63 -14.5t-228 6.5q-29 0 -76 -8q-61 -13 -78.5 -4 t-27.5 61z" />
<glyph unicode="&#x2011;" horiz-adv-x="751" d="M74 469q-10 46 8 139q4 22 8 31l31 78q8 21 12.5 34t13 27t13 21t17 15t20.5 11t28 5.5t34.5 2t45 -2t55 -3.5t68.5 -6q39 -4 100 0q72 8 93 13q28 7 53 -31q18 -28 -10 -131l-33 -121q-23 -90 -84 -123q-32 -14 -63 -14.5t-228 6.5q-29 0 -76 -8q-61 -13 -78.5 -4 t-27.5 61z" />
<glyph unicode="&#x2012;" horiz-adv-x="751" d="M74 469q-10 46 8 139q4 22 8 31l31 78q8 21 12.5 34t13 27t13 21t17 15t20.5 11t28 5.5t34.5 2t45 -2t55 -3.5t68.5 -6q39 -4 100 0q72 8 93 13q28 7 53 -31q18 -28 -10 -131l-33 -121q-23 -90 -84 -123q-32 -14 -63 -14.5t-228 6.5q-29 0 -76 -8q-61 -13 -78.5 -4 t-27.5 61z" />
<glyph unicode="&#x2013;" horiz-adv-x="1349" d="M70 530v228h1210v-228h-1210z" />
<glyph unicode="&#x2014;" horiz-adv-x="1380" d="M70 516v221h1241v-221h-1241z" />
<glyph unicode="&#x2018;" horiz-adv-x="647" d="M70 1001q0 59 14 136q11 46 29 100q51 137 96 188q70 89 105 117t65 25q61 -6 74.5 -32t-13.5 -75q-1 -3 -49 -69q-8 -10 -16 -31q-31 -75 -34.5 -111.5t15.5 -57.5t76 -46q31 -18 39 -23q71 -44 95.5 -114.5t-3.5 -163.5q-33 -111 -162 -152q-45 -14 -94 -8 q-73 8 -123 47.5t-86 120.5q-28 67 -28 149z" />
<glyph unicode="&#x2019;" horiz-adv-x="647" d="M72 1337q9 163 174 219q45 15 92 9q74 -7 123.5 -47.5t85.5 -120.5q48 -113 14 -285q-9 -54 -26 -100q-48 -127 -95 -191q-72 -87 -107.5 -114.5t-64.5 -24.5q-61 6 -74 31.5t15 77.5q22 33 47 67q5 7 14 29q32 75 36 111.5t-15 58t-76 47.5q-36 18 -39 20 q-113 71 -104 213z" />
<glyph unicode="&#x201a;" horiz-adv-x="643" d="M70 254q9 168 174 221q50 14 92 8q75 -9 124.5 -48.5t84.5 -119.5q48 -113 14 -286q-9 -49 -27 -99q-50 -134 -94 -188q-72 -90 -107.5 -118t-64.5 -25q-61 7 -74 32t15 76q29 44 47 68q9 15 14 30q32 74 36 111t-15.5 59t-75.5 48q-18 6 -39 20q-113 71 -104 211z" />
<glyph unicode="&#x2022;" horiz-adv-x="659" d="M72 610q-3 26 0 52q6 88 55 147t137 82q109 30 205 -27q61 -38 87 -84.5t32 -126.5q6 -69 -7.5 -109t-56.5 -85q-46 -40 -69 -51q-87 -41 -172 -25q-81 13 -129 56.5t-72 121.5q-5 13 -10 49z" />
<glyph unicode="&#x202f;" horiz-adv-x="435" />
<glyph unicode="&#x2039;" horiz-adv-x="702" d="M71 573q9 52 91 147q18 21 127 140q224 246 297 273q30 7 39 -35q16 -121 0 -277l-7 -45q-3 -8 -20 -31l-41 -40l-47 -48l-18 -18l-89 -92l97 -109l26 -30l70 -82q23 -30 25 -35l2 -35q11 -185 0 -260q-3 -22 -14 -32t-25 -5q-44 23 -181 162q-61 58 -133 137 q-130 150 -154 184q-55 77 -45 131z" />
<glyph unicode="&#x203a;" horiz-adv-x="702" d="M80 -4q-18 105 0 274l6 45q3 12 20 29l41 43l43 45l23 23l88 92l-96 106l-27 33l-69 82q-25 28 -25 35l-4 35q-10 169 0 258q3 22 13.5 30.5t23.5 3.5q23 -7 56.5 -36t127.5 -121q57 -54 129 -137q131 -150 157 -185q55 -76 45 -131q-9 -52 -91 -147q-18 -21 -127 -140 q-220 -247 -299 -274q-12 -5 -22 5.5t-13 31.5z" />
<glyph unicode="&#x205f;" horiz-adv-x="544" />
<glyph unicode="&#x2122;" horiz-adv-x="1898" d="M70 1362l6 205h665l9 -205l-39 -2q3 72 -37 113.5t-125 44.5l-78 2v-656q0 -35 25 -47t79 -12v-37h-335v37q54 0 80 12t26 47v656l-78 -2q-85 -3 -125 -44.5t-37 -113.5zM809 1528v39h240l278 -606l264 606h236v-39h-8q-22 0 -34 -1t-28.5 -5t-24.5 -15.5t-8 -29.5v-613 q0 -35 25.5 -47t79.5 -12v-37h-336v37q54 0 80 12t26 47v582l-280 -678h-39l-303 645v-549q0 -34 26.5 -46.5t81.5 -12.5v-37h-272v37q55 0 82 12.5t27 46.5v590q0 27 -6 43t-22.5 22.5t-29 7.5t-42.5 1h-13z" />
<glyph unicode="&#x25fc;" horiz-adv-x="1126" d="M0 0v1126h1126v-1126h-1126z" />
</font>
</defs>
</svg>
